<svg width="384" height="306" viewBox="0 0 384 306" fill="none" xmlns="http://www.w3.org/2000/svg">
<path d="M285.776 114.926L250.536 124.676C243.006 126.756 236.176 121.596 235.286 113.146L231.096 73.576C230.206 65.126 235.576 56.586 243.106 54.496L278.346 44.746C285.876 42.666 292.706 47.826 293.596 56.276L297.786 95.846C298.676 104.296 293.306 112.836 285.776 114.926Z" fill="url(#paint0_linear_320_421)"/>
<path d="M260.907 92.5461C262.727 94.1861 263.107 96.9961 261.767 98.8161C260.427 100.636 257.867 100.786 256.047 99.1361C254.227 97.4861 253.847 94.6861 255.187 92.8661C256.527 91.0461 259.087 90.8961 260.907 92.5461Z" fill="#3F94D2"/>
<mask id="mask0_320_421" style="mask-type:luminance" maskUnits="userSpaceOnUse" x="251" y="48" width="44" height="63">
<path d="M251.066 110.026L253.096 48.2761C253.096 48.2761 288.746 71.5461 294.946 84.9861L251.066 110.036V110.026Z" fill="white"/>
</mask>
<g mask="url(#mask0_320_421)">
<path d="M267.677 106.356C267.487 106.616 267.287 106.866 267.077 107.106L264.087 104.006C267.247 100.376 266.827 94.3163 263.157 90.5063C261.377 88.6663 259.107 87.6163 256.767 87.5563C254.427 87.4963 252.287 88.4363 250.757 90.1963L247.767 87.0963C249.987 84.5463 253.077 83.1863 256.467 83.2663C259.857 83.3463 263.147 84.8663 265.727 87.5463C270.807 92.8063 271.597 101.036 267.677 106.356Z" fill="#3F94D2"/>
<path d="M274.876 112.706C274.556 113.146 274.216 113.566 273.856 113.976L270.866 110.876C273.896 107.396 275.376 102.696 275.026 97.6461C274.676 92.6061 272.546 87.8161 269.026 84.1661C265.506 80.5161 261.016 78.4461 256.376 78.3261C251.746 78.2061 247.526 80.0661 244.496 83.5461L241.506 80.4461C245.226 76.1761 250.396 73.8961 256.086 74.0361C261.766 74.1761 267.276 76.7261 271.596 81.1961C275.916 85.6761 278.536 91.5461 278.956 97.7361C279.346 103.336 277.896 108.576 274.866 112.696L274.876 112.706Z" fill="#3F94D2"/>
<path d="M281.517 117.936C281.087 118.526 280.627 119.096 280.147 119.646L277.157 116.546C281.487 111.566 283.597 104.846 283.097 97.6362C282.597 90.4262 279.547 83.5762 274.517 78.3662C269.477 73.1462 263.057 70.1862 256.437 70.0162C249.817 69.8462 243.777 72.5062 239.447 77.4862L236.457 74.3862C241.477 68.6162 248.467 65.5362 256.137 65.7362C263.817 65.9262 271.257 69.3662 277.087 75.4062C282.917 81.4462 286.457 89.3862 287.027 97.7362C287.547 105.296 285.597 112.376 281.507 117.936H281.517Z" fill="#3F94D2"/>
</g>
<path d="M334.636 25.186C334.416 25.676 334.316 26.186 334.316 26.686L318.436 28.976C318.056 28.366 317.506 27.866 316.806 27.556C314.936 26.716 312.736 27.556 311.896 29.426C311.056 31.296 311.896 33.496 313.766 34.336C315.636 35.176 317.836 34.336 318.676 32.466C318.756 32.296 318.806 32.126 318.856 31.946L334.286 29.726L328.736 45.096C327.456 45.226 326.266 46.016 325.706 47.276C324.866 49.146 325.706 51.346 327.576 52.186C329.446 53.026 331.646 52.186 332.486 50.316C333.156 48.806 332.746 47.096 331.586 46.046L337.246 30.356C338.926 30.716 340.686 29.876 341.416 28.236C342.256 26.366 341.416 24.166 339.546 23.326C337.676 22.486 335.476 23.326 334.636 25.196V25.186Z" fill="#D9F7FE"/>
<path d="M374.647 86.186H341.217C336.427 86.186 332.537 90.076 332.537 94.866V111.576C332.537 116.366 336.427 120.256 341.217 120.256H358.377L373.527 128.616L372.427 120.256H374.647C379.437 120.256 383.327 116.366 383.327 111.576V94.866C383.327 90.076 379.437 86.186 374.647 86.186Z" fill="url(#paint1_linear_320_421)"/>
<path d="M345.776 107.886C348.218 107.886 350.196 105.907 350.196 103.466C350.196 101.025 348.218 99.0461 345.776 99.0461C343.335 99.0461 341.356 101.025 341.356 103.466C341.356 105.907 343.335 107.886 345.776 107.886Z" fill="#3F94D2"/>
<path d="M357.937 107.886C360.378 107.886 362.357 105.907 362.357 103.466C362.357 101.025 360.378 99.0461 357.937 99.0461C355.496 99.0461 353.517 101.025 353.517 103.466C353.517 105.907 355.496 107.886 357.937 107.886Z" fill="#3F94D2"/>
<path d="M370.096 107.886C372.537 107.886 374.516 105.907 374.516 103.466C374.516 101.025 372.537 99.0461 370.096 99.0461C367.655 99.0461 365.676 101.025 365.676 103.466C365.676 105.907 367.655 107.886 370.096 107.886Z" fill="#3F94D2"/>
<path d="M169.31 140C166.16 132.6 169.6 124.05 176.99 120.9C184.39 117.75 192.94 121.19 196.09 128.58C199.24 135.98 195.8 144.53 188.41 147.68C181.01 150.83 172.46 147.39 169.31 140ZM190.06 168.21L202.08 163.09L200.14 158.55C202.98 156.51 205.39 154.03 207.3 151.23L211.88 153.07L216.76 140.95L212.18 139.11C212.73 135.77 212.71 132.31 212.08 128.87L216.62 126.93L211.5 114.91L206.96 116.85C204.92 114.01 202.44 111.6 199.64 109.69L201.48 105.11L189.36 100.23L187.52 104.81C184.18 104.26 180.72 104.28 177.28 104.91L175.34 100.37L163.32 105.49L165.26 110.03C162.42 112.07 160.01 114.55 158.1 117.35L153.52 115.51L148.64 127.63L153.22 129.47C152.67 132.81 152.69 136.27 153.32 139.71L148.78 141.65L153.9 153.67L158.44 151.73C160.48 154.57 162.96 156.98 165.76 158.89L163.92 163.47L176.04 168.35L177.88 163.77C181.22 164.32 184.68 164.3 188.12 163.67L190.06 168.21ZM185.39 140.6C181.91 142.08 177.88 140.47 176.4 136.98C174.92 133.49 176.54 129.47 180.02 127.99C183.5 126.51 187.53 128.12 189.01 131.61C190.49 135.09 188.88 139.12 185.39 140.6Z" fill="url(#paint2_linear_320_421)"/>
<path d="M220.59 167.34C218.65 162.79 220.77 157.53 225.31 155.6C229.85 153.67 235.12 155.78 237.05 160.32C238.98 164.86 236.87 170.13 232.33 172.06C227.78 174 222.52 171.88 220.59 167.34ZM233.35 184.69L240.74 181.54L239.55 178.75C241.3 177.5 242.78 175.97 243.96 174.25L246.78 175.38L249.78 167.93L246.96 166.8C247.3 164.74 247.29 162.62 246.9 160.5L249.69 159.31L246.54 151.92L243.75 153.11C242.5 151.36 240.97 149.88 239.25 148.71L240.38 145.89L232.93 142.89L231.8 145.71C229.74 145.37 227.62 145.38 225.5 145.77L224.31 142.98L216.92 146.13L218.11 148.92C216.36 150.17 214.88 151.7 213.71 153.42L210.89 152.29L207.89 159.74L210.71 160.87C210.37 162.93 210.38 165.05 210.77 167.17L207.98 168.36L211.13 175.75L213.92 174.56C215.17 176.31 216.7 177.79 218.42 178.96L217.29 181.78L224.74 184.78L225.87 181.96C227.93 182.3 230.05 182.29 232.17 181.9L233.36 184.69H233.35ZM230.48 167.71C228.34 168.62 225.86 167.63 224.95 165.49C224.04 163.35 225.03 160.87 227.17 159.96C229.31 159.05 231.79 160.04 232.7 162.18C233.61 164.32 232.62 166.8 230.48 167.71Z" fill="url(#paint3_linear_320_421)"/>
<g style="mix-blend-mode:screen">
<path d="M91.13 97.7701C90.09 102.76 95.32 110.47 102.8 115.01C106.98 117.54 110.98 118.54 113.88 118.07L114.2 116.55C114.79 116.87 115.57 117.13 116.13 117.37C117.32 116.71 117.93 115.67 118.24 114.19C119.28 109.2 114.05 101.49 106.57 96.9501C99.09 92.4201 92.18 92.7901 91.14 97.7701H91.13ZM82.98 88.4901C83.96 87.2201 85.32 86.3001 86.97 85.7401L84.1 81.5101L92.49 81.0601L95.47 85.4501C97.14 85.7601 98.91 86.2701 100.74 86.9601C101.3 86.5601 102.04 86.2901 102.94 86.1501L103.3 84.4201L106.3 86.2401C109.45 86.7701 113.43 88.48 117.62 91.83C123.22 96.31 124.98 100.68 125.53 102.96L129.7 109.12L125.91 109.32C126.98 111.54 127.7 113.71 127.99 115.75L132.52 118.49L131.08 125.43L126.81 122.85C125.91 124.28 124.59 125.33 122.94 126L125.43 129.68L117.04 130.13L114.66 126.61C112.21 126.23 109.54 125.42 106.76 124.2L106.23 126.75L95.81 120.44L96.34 117.89C93.73 115.85 91.37 113.6 89.32 111.26L86.17 111.43L79.82 102.06L83.11 101.88C82.08 99.5801 81.44 97.3401 81.27 95.2601L77 92.6801L78.44 85.7401L82.97 88.4801L82.98 88.4901Z" fill="url(#paint4_linear_320_421)"/>
<path d="M77.0098 92.69L78.4498 85.75L82.9798 88.4901C83.9598 87.2201 85.3198 86.3001 86.9698 85.7401L84.0998 81.5101L92.4898 81.0601L95.4698 85.4501C97.7098 85.8701 100.12 86.6301 102.62 87.7301L103.31 84.4301L113.73 90.7401L113.04 94.0401C115.39 95.8801 117.54 97.8801 119.43 99.9601L123.36 99.75L129.71 109.12L125.92 109.32C126.99 111.54 127.71 113.71 128 115.75L132.53 118.49L131.09 125.43L126.82 122.85C125.92 124.28 124.6 125.33 122.95 126L125.44 129.68L117.05 130.13L114.67 126.61C112.22 126.23 109.55 125.42 106.77 124.2L106.24 126.75L95.8198 120.44L96.3498 117.89C93.7398 115.85 91.3798 113.6 89.3298 111.26L86.1798 111.43L79.8298 102.06L83.1198 101.88C82.0898 99.5801 81.4498 97.3401 81.2798 95.2601L77.0098 92.6801V92.69ZM102.81 115C110.29 119.53 117.2 119.16 118.24 114.18C119.28 109.19 114.05 101.48 106.57 96.94C99.0898 92.41 92.1798 92.7801 91.1398 97.7601C90.0998 102.75 95.3298 110.46 102.81 115Z" fill="url(#paint5_linear_320_421)"/>
<path d="M84.4502 85.0201L85.8902 78.0801L90.4202 80.8201C91.4002 79.5501 92.7602 78.6301 94.4102 78.0701L91.5402 73.8401L99.9302 73.3901L102.91 77.7801C105.15 78.2001 107.56 78.9602 110.06 80.0602L110.75 76.7601L121.17 83.0701L120.48 86.3701C122.83 88.2101 124.98 90.2101 126.87 92.2901L130.8 92.0801L137.15 101.45L133.36 101.65C134.43 103.87 135.15 106.04 135.44 108.08L139.97 110.82L138.53 117.76L134.26 115.18C133.36 116.61 132.04 117.66 130.39 118.33L132.88 122.01L124.49 122.46L122.11 118.94C119.66 118.56 116.99 117.75 114.21 116.53L113.68 119.08L103.26 112.77L103.79 110.22C101.18 108.18 98.8202 105.93 96.7702 103.59L93.6202 103.76L87.2702 94.3901L90.5602 94.2101C89.5302 91.9101 88.8902 89.6701 88.7202 87.5901L84.4502 85.0101V85.0201ZM110.25 107.32C117.73 111.85 124.64 111.48 125.68 106.5C126.72 101.51 121.49 93.8001 114.01 89.2601C106.53 84.7301 99.6202 85.1001 98.5802 90.0801C97.5402 95.0701 102.77 102.78 110.25 107.32Z" fill="#1E9ABC"/>
<path d="M132.87 122.01L125.43 129.69L117.04 130.13L124.48 122.46L132.87 122.01Z" fill="url(#paint6_linear_320_421)"/>
<path d="M113.67 119.09L106.23 126.76L95.8101 120.45L103.25 112.78L113.67 119.09Z" fill="url(#paint7_linear_320_421)"/>
<path d="M93.6098 103.76L86.1698 111.44L79.8198 102.07L87.2698 94.3901L93.6098 103.76Z" fill="url(#paint8_linear_320_421)"/>
<path d="M84.4498 85.0201L77.0098 92.6901L78.4498 85.7501L85.8898 78.0701L84.4498 85.0201Z" fill="url(#paint9_linear_320_421)"/>
<path d="M96.3401 117.9L103.78 110.22L103.25 112.78L95.8101 120.45L96.3401 117.9Z" fill="#083860"/>
<path d="M122.1 118.94L124.48 122.46L117.04 130.13L114.66 126.62L122.1 118.94Z" fill="#083860"/>
<path d="M96.7599 103.6L89.3199 111.27L86.1699 111.44L93.6099 103.76L96.7599 103.6Z" fill="#083860"/>
<path d="M88.7198 87.6L81.2698 95.28L77.0098 92.69L84.4498 85.02L88.7198 87.6Z" fill="#083860"/>
<path d="M91.5399 73.8301L86.8599 78.6601L90.4199 80.8201C90.4199 80.8201 92.0199 78.8301 94.4099 78.0701L91.5399 73.8401V73.8301Z" fill="#083860"/>
<path d="M110.74 76.7502L108.25 79.3203L110.05 80.0502L110.74 76.7502Z" fill="#083860"/>
<path d="M137.15 101.44L134.45 104.23L133.36 101.65L137.15 101.44Z" fill="#083860"/>
<path d="M138.52 117.76L131.08 125.44L129.5 125.49L132.87 122.01L130.38 118.33C130.38 118.33 133.06 117.52 134.25 115.18L138.52 117.76Z" fill="#083860"/>
<path d="M103.78 110.22L96.3398 117.9C96.3398 117.9 91.2898 113.96 89.3198 111.27L96.7598 103.59C96.7598 103.59 101.14 108.35 103.78 110.22Z" fill="url(#paint10_linear_320_421)"/>
<path d="M84.4502 85.0201L85.8902 78.0801L90.4202 80.8201C91.4002 79.5501 92.7602 78.6301 94.4102 78.0701L91.5402 73.8401L99.9302 73.3901L102.91 77.7801C105.15 78.2001 107.56 78.9602 110.06 80.0602L110.75 76.7601L121.17 83.0701L120.48 86.3701C122.83 88.2101 124.98 90.2101 126.87 92.2901L130.8 92.0801L137.15 101.45L133.36 101.65C134.43 103.87 135.15 106.04 135.44 108.08L139.97 110.82L138.53 117.76L134.26 115.18C133.36 116.61 132.04 117.66 130.39 118.33L132.88 122.01L124.49 122.46L122.11 118.94C119.66 118.56 116.99 117.75 114.21 116.53L113.68 119.08L103.26 112.77L103.79 110.22C101.18 108.18 98.8202 105.93 96.7702 103.59L93.6202 103.76L87.2702 94.3901L90.5602 94.2101C89.5302 91.9101 88.8902 89.6701 88.7202 87.5901L84.4502 85.0101V85.0201ZM110.25 107.32C117.73 111.85 124.64 111.48 125.68 106.5C126.72 101.51 121.49 93.8001 114.01 89.2601C106.53 84.7301 99.6202 85.1001 98.5802 90.0801C97.5402 95.0701 102.77 102.78 110.25 107.32Z" fill="url(#paint11_linear_320_421)"/>
<path d="M132.87 122.01L125.43 129.69L117.04 130.13L124.48 122.46L132.87 122.01Z" fill="url(#paint12_linear_320_421)"/>
<path d="M113.67 119.09L106.23 126.76L95.8101 120.45L103.25 112.78L113.67 119.09Z" fill="url(#paint13_linear_320_421)"/>
<path d="M93.6098 103.76L86.1698 111.44L79.8198 102.07L87.2698 94.3901L93.6098 103.76Z" fill="url(#paint14_linear_320_421)"/>
<path d="M84.4498 85.0201L77.0098 92.6901L78.4498 85.7501L85.8898 78.0701L84.4498 85.0201Z" fill="url(#paint15_linear_320_421)"/>
<path d="M96.3401 117.9L103.78 110.22L103.25 112.78L95.8101 120.45L96.3401 117.9Z" fill="#083860"/>
<path d="M122.1 118.94L124.48 122.46L117.04 130.13L114.66 126.62L122.1 118.94Z" fill="#083860"/>
<path d="M96.7599 103.6L89.3199 111.27L86.1699 111.44L93.6099 103.76L96.7599 103.6Z" fill="#083860"/>
<path d="M88.7198 87.6L81.2698 95.28L77.0098 92.69L84.4498 85.02L88.7198 87.6Z" fill="#083860"/>
<path d="M91.5399 73.8301L86.8599 78.6601L90.4199 80.8201C90.4199 80.8201 92.0199 78.8301 94.4099 78.0701L91.5399 73.8401V73.8301Z" fill="#083860"/>
<path d="M110.74 76.7502L108.25 79.3203L110.05 80.0502L110.74 76.7502Z" fill="#083860"/>
<path d="M137.15 101.44L134.45 104.23L133.36 101.65L137.15 101.44Z" fill="#083860"/>
<path d="M138.52 117.76L131.08 125.44L129.5 125.49L132.87 122.01L130.38 118.33C130.38 118.33 133.06 117.52 134.25 115.18L138.52 117.76Z" fill="#083860"/>
<path d="M103.78 110.22L96.3398 117.9C96.3398 117.9 91.2898 113.96 89.3198 111.27L96.7598 103.59C96.7598 103.59 101.14 108.35 103.78 110.22Z" fill="url(#paint16_linear_320_421)"/>
<path d="M90.2498 94.3901L87.5298 94.5101L93.6898 103.15L87.9098 94.6501L90.2498 94.3901Z" fill="#C0FFF7"/>
<path d="M103.98 110.37L103.59 112.77L112.9 118.52L103.85 112.66L103.98 110.37Z" fill="#C0FFF7"/>
<path d="M100.74 86.9702C100.74 86.9702 98.8 87.7802 98.49 90.7002C98.17 93.6202 99.93 101.45 110.85 107.72C110.85 107.72 100.33 102.67 98.31 94.1002C96.77 87.5502 100.74 86.9702 100.74 86.9702Z" fill="#C0FFF7"/>
<path d="M94.9398 93.45C93.8998 98.44 99.1298 106.15 106.61 110.69C110.79 113.22 114.79 114.22 117.69 113.75L118.01 112.23C118.6 112.55 119.38 112.81 119.94 113.05C121.13 112.39 121.74 111.35 122.05 109.87C123.09 104.88 117.86 97.17 110.38 92.63C102.9 88.1 95.9898 88.47 94.9498 93.45H94.9398ZM86.7798 84.18C87.7598 82.91 89.1198 81.99 90.7698 81.43L87.8998 77.2L96.2898 76.75L99.2698 81.14C100.94 81.45 102.71 81.96 104.54 82.65C105.1 82.25 105.84 81.98 106.74 81.84L107.1 80.11L110.1 81.93C113.25 82.46 117.23 84.17 121.42 87.52C127.02 92 128.78 96.37 129.33 98.65L133.5 104.81L129.71 105.01C130.78 107.23 131.5 109.4 131.79 111.44L136.32 114.18L134.88 121.12L130.61 118.54C129.71 119.97 128.39 121.02 126.74 121.69L129.23 125.37L120.84 125.82L118.46 122.3C116.01 121.92 113.34 121.11 110.56 119.89L110.03 122.44L99.6098 116.13L100.14 113.58C97.5298 111.54 95.1698 109.29 93.1198 106.95L89.9698 107.12L83.6198 97.75L86.9098 97.57C85.8798 95.27 85.2398 93.03 85.0698 90.95L80.7998 88.37L82.2398 81.43L86.7698 84.17L86.7798 84.18Z" fill="url(#paint17_linear_320_421)"/>
<path d="M80.8096 88.38L82.2496 81.44L86.7796 84.18C87.7596 82.91 89.1196 81.99 90.7696 81.43L87.8996 77.2L96.2896 76.75L99.2696 81.14C101.51 81.56 103.92 82.32 106.42 83.42L107.11 80.12L117.53 86.43L116.84 89.73C119.19 91.57 121.34 93.57 123.23 95.65L127.16 95.44L133.51 104.81L129.72 105.01C130.79 107.23 131.51 109.4 131.8 111.44L136.33 114.18L134.89 121.12L130.62 118.54C129.72 119.97 128.4 121.02 126.75 121.69L129.24 125.37L120.85 125.82L118.47 122.3C116.02 121.92 113.35 121.11 110.57 119.89L110.04 122.44L99.6196 116.13L100.15 113.58C97.5396 111.54 95.1796 109.29 93.1296 106.95L89.9796 107.12L83.6296 97.75L86.9196 97.57C85.8896 95.27 85.2496 93.03 85.0796 90.95L80.8096 88.37V88.38ZM106.62 110.68C114.1 115.21 121.01 114.84 122.05 109.86C123.09 104.87 117.86 97.16 110.38 92.62C102.9 88.09 95.9896 88.46 94.9496 93.44C93.9096 98.43 99.1396 106.14 106.62 110.68Z" fill="url(#paint18_linear_320_421)"/>
<path d="M88.2598 80.7001L89.6998 73.7601L94.2298 76.5001C95.2098 75.2301 96.5698 74.3101 98.2198 73.7501L95.3498 69.5201L103.74 69.0701L106.72 73.4601C108.96 73.8801 111.37 74.6401 113.87 75.7401L114.56 72.4401L124.98 78.7501L124.29 82.0501C126.64 83.8901 128.79 85.8901 130.68 87.9701L134.61 87.7601L140.96 97.1301L137.17 97.3301C138.24 99.5501 138.96 101.72 139.25 103.76L143.78 106.5L142.34 113.44L138.07 110.86C137.17 112.29 135.85 113.34 134.2 114.01L136.69 117.69L128.3 118.14L125.92 114.62C123.47 114.24 120.8 113.43 118.02 112.21L117.49 114.76L107.07 108.45L107.6 105.9C104.99 103.86 102.63 101.61 100.58 99.2701L97.4298 99.4401L91.0798 90.0701L94.3698 89.8901C93.3398 87.5901 92.6998 85.3501 92.5298 83.2701L88.2598 80.6901V80.7001ZM114.06 103.01C121.54 107.54 128.45 107.17 129.49 102.19C130.53 97.2001 125.3 89.4901 117.82 84.9501C110.34 80.4201 103.43 80.7901 102.39 85.7701C101.35 90.7601 106.58 98.4701 114.06 103.01Z" fill="#1E9ABC"/>
<path d="M136.68 117.69L129.24 125.37L120.85 125.82L128.29 118.14L136.68 117.69Z" fill="url(#paint19_linear_320_421)"/>
<path d="M117.48 114.77L110.04 122.45L99.6196 116.14L107.06 108.46L117.48 114.77Z" fill="url(#paint20_linear_320_421)"/>
<path d="M97.4199 99.4501L89.9799 107.12L83.6299 97.7501L91.0699 90.0801L97.4199 99.4501Z" fill="url(#paint21_linear_320_421)"/>
<path d="M88.2596 80.7L80.8096 88.38L82.2596 81.44L89.6996 73.76L88.2596 80.7Z" fill="url(#paint22_linear_320_421)"/>
<path d="M100.15 113.58L107.59 105.91L107.06 108.46L99.6196 116.14L100.15 113.58Z" fill="#083860"/>
<path d="M125.91 114.62L128.29 118.14L120.85 125.82L118.46 122.3L125.91 114.62Z" fill="#083860"/>
<path d="M100.57 99.28L93.13 106.96L89.98 107.12L97.42 99.45L100.57 99.28Z" fill="#083860"/>
<path d="M92.5196 83.2802L85.0796 90.9602L80.8096 88.3802L88.2596 80.7002L92.5196 83.2802Z" fill="#083860"/>
<path d="M95.3499 69.51L90.6699 74.34L94.2299 76.5C94.2299 76.5 95.8299 74.51 98.2199 73.75L95.3499 69.52V69.51Z" fill="#083860"/>
<path d="M114.55 72.4302L112.06 75.0002L113.86 75.7402L114.55 72.4302Z" fill="#083860"/>
<path d="M140.95 97.1301L138.26 99.9101L137.16 97.3301L140.95 97.1301Z" fill="#083860"/>
<path d="M142.33 113.45L134.89 121.13L133.31 121.18L136.68 117.7L134.19 114.02C134.19 114.02 136.87 113.21 138.06 110.87L142.33 113.45Z" fill="#083860"/>
<path d="M107.59 105.91L100.15 113.59C100.15 113.59 95.0999 109.65 93.1299 106.96L100.57 99.28C100.57 99.28 104.95 104.04 107.59 105.91Z" fill="url(#paint23_linear_320_421)"/>
<path d="M88.2598 80.7001L89.6998 73.7601L94.2298 76.5001C95.2098 75.2301 96.5698 74.3101 98.2198 73.7501L95.3498 69.5201L103.74 69.0701L106.72 73.4601C108.96 73.8801 111.37 74.6401 113.87 75.7401L114.56 72.4401L124.98 78.7501L124.29 82.0501C126.64 83.8901 128.79 85.8901 130.68 87.9701L134.61 87.7601L140.96 97.1301L137.17 97.3301C138.24 99.5501 138.96 101.72 139.25 103.76L143.78 106.5L142.34 113.44L138.07 110.86C137.17 112.29 135.85 113.34 134.2 114.01L136.69 117.69L128.3 118.14L125.92 114.62C123.47 114.24 120.8 113.43 118.02 112.21L117.49 114.76L107.07 108.45L107.6 105.9C104.99 103.86 102.63 101.61 100.58 99.2701L97.4298 99.4401L91.0798 90.0701L94.3698 89.8901C93.3398 87.5901 92.6998 85.3501 92.5298 83.2701L88.2598 80.6901V80.7001ZM114.06 103.01C121.54 107.54 128.45 107.17 129.49 102.19C130.53 97.2001 125.3 89.4901 117.82 84.9501C110.34 80.4201 103.43 80.7901 102.39 85.7701C101.35 90.7601 106.58 98.4701 114.06 103.01Z" fill="url(#paint24_linear_320_421)"/>
<path d="M136.68 117.69L129.24 125.37L120.85 125.82L128.29 118.14L136.68 117.69Z" fill="url(#paint25_linear_320_421)"/>
<path d="M117.48 114.77L110.04 122.45L99.6196 116.14L107.06 108.46L117.48 114.77Z" fill="url(#paint26_linear_320_421)"/>
<path d="M97.4199 99.4501L89.9799 107.12L83.6299 97.7501L91.0699 90.0801L97.4199 99.4501Z" fill="url(#paint27_linear_320_421)"/>
<path d="M88.2596 80.7L80.8096 88.38L82.2596 81.44L89.6996 73.76L88.2596 80.7Z" fill="url(#paint28_linear_320_421)"/>
<path d="M100.15 113.58L107.59 105.91L107.06 108.46L99.6196 116.14L100.15 113.58Z" fill="#083860"/>
<path d="M125.91 114.62L128.29 118.14L120.85 125.82L118.46 122.3L125.91 114.62Z" fill="#083860"/>
<path d="M100.57 99.28L93.13 106.96L89.98 107.12L97.42 99.45L100.57 99.28Z" fill="#083860"/>
<path d="M92.5196 83.2802L85.0796 90.9602L80.8096 88.3802L88.2596 80.7002L92.5196 83.2802Z" fill="#083860"/>
<path d="M95.3499 69.51L90.6699 74.34L94.2299 76.5C94.2299 76.5 95.8299 74.51 98.2199 73.75L95.3499 69.52V69.51Z" fill="#083860"/>
<path d="M114.55 72.4302L112.06 75.0002L113.86 75.7402L114.55 72.4302Z" fill="#083860"/>
<path d="M140.95 97.1301L138.26 99.9101L137.16 97.3301L140.95 97.1301Z" fill="#083860"/>
<path d="M142.33 113.45L134.89 121.13L133.31 121.18L136.68 117.7L134.19 114.02C134.19 114.02 136.87 113.21 138.06 110.87L142.33 113.45Z" fill="#083860"/>
<path d="M107.59 105.91L100.15 113.59C100.15 113.59 95.0999 109.65 93.1299 106.96L100.57 99.28C100.57 99.28 104.95 104.04 107.59 105.91Z" fill="url(#paint29_linear_320_421)"/>
<path d="M94.0596 90.0701L91.3296 90.1901L97.4996 98.8301L91.7196 90.3301L94.0596 90.0701Z" fill="#C0FFF7"/>
<path d="M107.79 106.05L107.39 108.45L116.71 114.21L107.66 108.34L107.79 106.05Z" fill="#C0FFF7"/>
<path d="M104.54 82.6501C104.54 82.6501 102.6 83.4601 102.29 86.3801C101.97 89.3001 103.73 97.1301 114.65 103.4C114.65 103.4 104.13 98.3501 102.11 89.7801C100.57 83.2301 104.54 82.6501 104.54 82.6501Z" fill="#C0FFF7"/>
</g>
<g style="mix-blend-mode:screen">
<path d="M215.41 29.71C218.19 31.2 223.68 29.44 227.68 25.79C229.91 23.75 231.21 21.55 231.43 19.75L230.58 19.3C230.87 19.01 231.16 18.59 231.4 18.3C231.22 17.48 230.7 16.93 229.88 16.49C227.1 15 221.61 16.76 217.61 20.41C213.61 24.06 212.62 28.23 215.4 29.71H215.41ZM208.48 32.93C207.9 32.13 207.59 31.16 207.54 30.08L204.53 31.04L205.73 25.98L208.86 24.98C209.34 24.04 209.95 23.08 210.68 22.12C210.54 21.72 210.51 21.23 210.59 20.67L209.63 20.15L211.23 18.69C212.09 16.91 213.8 14.85 216.53 12.95C220.17 10.41 223.07 10.13 224.52 10.2L228.9 8.80002L228.36 11.09C229.86 10.84 231.28 10.79 232.54 10.98L234.96 8.77002L238.83 10.84L236.55 12.92C237.24 13.7 237.64 14.67 237.75 15.77L240.37 14.93L239.17 19.99L236.67 20.79C236.01 22.18 235.07 23.62 233.86 25.06L235.28 25.82L229.71 30.9L228.29 30.14C226.62 31.33 224.87 32.34 223.13 33.15L222.68 35.05L216.01 37.18L216.48 35.19C214.94 35.4 213.49 35.39 212.23 35.13L209.95 37.21L206.08 35.14L208.5 32.93H208.48Z" fill="url(#paint30_linear_320_421)"/>
<path d="M209.93 37.21L206.06 35.14L208.48 32.93C207.9 32.13 207.59 31.16 207.54 30.08L204.53 31.04L205.73 25.98L208.86 24.98C209.5 23.72 210.37 22.43 211.46 21.14L209.62 20.15L215.19 15.07L217.03 16.06C218.53 14.99 220.09 14.06 221.66 13.3L222.22 10.93L228.89 8.80002L228.35 11.09C229.85 10.84 231.27 10.79 232.53 10.98L234.95 8.77002L238.82 10.84L236.54 12.92C237.23 13.7 237.63 14.67 237.74 15.77L240.36 14.93L239.16 19.99L236.66 20.79C236 22.18 235.06 23.62 233.85 25.06L235.27 25.82L229.7 30.9L228.28 30.14C226.61 31.33 224.86 32.34 223.12 33.15L222.67 35.05L216 37.18L216.47 35.19C214.93 35.4 213.48 35.39 212.22 35.13L209.94 37.21H209.93ZM227.69 25.79C231.69 22.14 232.68 17.97 229.9 16.49C227.12 15 221.63 16.76 217.63 20.41C213.63 24.06 212.64 28.23 215.42 29.71C218.2 31.2 223.69 29.44 227.69 25.79Z" fill="url(#paint31_linear_320_421)"/>
<path d="M206.68 31.45L202.81 29.38L205.23 27.17C204.65 26.37 204.34 25.4 204.29 24.32L201.28 25.28L202.48 20.22L205.61 19.22C206.25 17.96 207.12 16.67 208.21 15.38L206.37 14.39L211.94 9.31001L213.78 10.3C215.28 9.23 216.84 8.30001 218.41 7.54001L218.97 5.17001L225.64 3.04001L225.1 5.33001C226.6 5.08001 228.02 5.03001 229.28 5.22001L231.7 3.01001L235.57 5.08001L233.29 7.16C233.98 7.94 234.38 8.91001 234.49 10.01L237.11 9.17001L235.91 14.23L233.41 15.03C232.75 16.42 231.81 17.86 230.6 19.3L232.02 20.06L226.45 25.14L225.03 24.38C223.36 25.57 221.61 26.58 219.87 27.39L219.42 29.29L212.75 31.42L213.22 29.43C211.68 29.64 210.23 29.63 208.97 29.37L206.69 31.45H206.68ZM224.43 20.03C228.43 16.38 229.42 12.21 226.64 10.73C223.86 9.24 218.37 11 214.37 14.65C210.37 18.3 209.38 22.47 212.16 23.95C214.94 25.44 220.43 23.68 224.43 20.03Z" fill="#1E9ABC"/>
<path d="M237.1 9.16992L240.36 14.9299L239.16 19.9899L235.9 14.2299L237.1 9.16992Z" fill="url(#paint32_linear_320_421)"/>
<path d="M232.01 20.0601L235.27 25.8201L229.7 30.9001L226.44 25.1401L232.01 20.0601Z" fill="url(#paint33_linear_320_421)"/>
<path d="M219.41 29.29L222.67 35.05L215.99 37.18L212.74 31.42L219.41 29.29Z" fill="url(#paint34_linear_320_421)"/>
<path d="M206.68 31.4499L209.93 37.2099L206.07 35.1399L202.81 29.3799L206.68 31.4499Z" fill="url(#paint35_linear_320_421)"/>
<path d="M228.28 30.1399L225.02 24.3799L226.44 25.1399L229.7 30.8999L228.28 30.1399Z" fill="#083860"/>
<path d="M233.4 15.03L235.9 14.23L239.16 19.99L236.66 20.79L233.4 15.03Z" fill="#083860"/>
<path d="M219.86 27.3899L223.12 33.1499L222.67 35.0499L219.41 29.2899L219.86 27.3899Z" fill="#083860"/>
<path d="M208.96 29.3701L212.22 35.1301L209.93 37.2101L206.68 31.4501L208.96 29.3701Z" fill="#083860"/>
<path d="M201.27 25.2801L203.32 28.9101L205.22 27.1701C205.22 27.1701 204.32 25.8701 204.28 24.3201L201.27 25.2801Z" fill="#083860"/>
<path d="M206.37 14.3999L207.45 16.3199L208.21 15.3799L206.37 14.3999Z" fill="#083860"/>
<path d="M225.64 3.04004L226.82 5.12003L225.1 5.32004L225.64 3.04004Z" fill="#083860"/>
<path d="M235.57 5.07007L238.83 10.8301L238.58 11.7801L237.1 9.17007L234.48 10.0101C234.48 10.0101 234.47 8.28006 233.28 7.16006L235.56 5.08007L235.57 5.07007Z" fill="#083860"/>
<path d="M225.02 24.3799L228.28 30.1399C228.28 30.1399 225.06 32.4499 223.12 33.1499L219.86 27.3899C219.86 27.3899 223.45 25.6199 225.02 24.3799Z" fill="url(#paint36_linear_320_421)"/>
<path d="M206.68 31.45L202.81 29.38L205.23 27.17C204.65 26.37 204.34 25.4 204.29 24.32L201.28 25.28L202.48 20.22L205.61 19.22C206.25 17.96 207.12 16.67 208.21 15.38L206.37 14.39L211.94 9.31001L213.78 10.3C215.28 9.23 216.84 8.30001 218.41 7.54001L218.97 5.17001L225.64 3.04001L225.1 5.33001C226.6 5.08001 228.02 5.03001 229.28 5.22001L231.7 3.01001L235.57 5.08001L233.29 7.16C233.98 7.94 234.38 8.91001 234.49 10.01L237.11 9.17001L235.91 14.23L233.41 15.03C232.75 16.42 231.81 17.86 230.6 19.3L232.02 20.06L226.45 25.14L225.03 24.38C223.36 25.57 221.61 26.58 219.87 27.39L219.42 29.29L212.75 31.42L213.22 29.43C211.68 29.64 210.23 29.63 208.97 29.37L206.69 31.45H206.68ZM224.43 20.03C228.43 16.38 229.42 12.21 226.64 10.73C223.86 9.24 218.37 11 214.37 14.65C210.37 18.3 209.38 22.47 212.16 23.95C214.94 25.44 220.43 23.68 224.43 20.03Z" fill="url(#paint37_linear_320_421)"/>
<path d="M237.1 9.16992L240.36 14.9299L239.16 19.9899L235.9 14.2299L237.1 9.16992Z" fill="url(#paint38_linear_320_421)"/>
<path d="M232.01 20.0601L235.27 25.8201L229.7 30.9001L226.44 25.1401L232.01 20.0601Z" fill="url(#paint39_linear_320_421)"/>
<path d="M219.41 29.29L222.67 35.05L215.99 37.18L212.74 31.42L219.41 29.29Z" fill="url(#paint40_linear_320_421)"/>
<path d="M206.68 31.4499L209.93 37.2099L206.07 35.1399L202.81 29.3799L206.68 31.4499Z" fill="url(#paint41_linear_320_421)"/>
<path d="M228.28 30.1399L225.02 24.3799L226.44 25.1399L229.7 30.8999L228.28 30.1399Z" fill="#083860"/>
<path d="M233.4 15.03L235.9 14.23L239.16 19.99L236.66 20.79L233.4 15.03Z" fill="#083860"/>
<path d="M219.86 27.3899L223.12 33.1499L222.67 35.0499L219.41 29.2899L219.86 27.3899Z" fill="#083860"/>
<path d="M208.96 29.3701L212.22 35.1301L209.93 37.2101L206.68 31.4501L208.96 29.3701Z" fill="#083860"/>
<path d="M201.27 25.2801L203.32 28.9101L205.22 27.1701C205.22 27.1701 204.32 25.8701 204.28 24.3201L201.27 25.2801Z" fill="#083860"/>
<path d="M206.37 14.3999L207.45 16.3199L208.21 15.3799L206.37 14.3999Z" fill="#083860"/>
<path d="M225.64 3.04004L226.82 5.12003L225.1 5.32004L225.64 3.04004Z" fill="#083860"/>
<path d="M235.57 5.07007L238.83 10.8301L238.58 11.7801L237.1 9.17007L234.48 10.0101C234.48 10.0101 234.47 8.28006 233.28 7.16006L235.56 5.08007L235.57 5.07007Z" fill="#083860"/>
<path d="M225.02 24.3799L228.28 30.1399C228.28 30.1399 225.06 32.4499 223.12 33.1499L219.86 27.3899C219.86 27.3899 223.45 25.6199 225.02 24.3799Z" fill="url(#paint42_linear_320_421)"/>
<path d="M213.26 29.6399L212.85 31.2799L219.06 29.1299L213 31.0799L213.26 29.6399Z" fill="#C0FFF7"/>
<path d="M225.14 24.2899L226.5 24.9399L231.54 20.4099L226.48 24.7599L225.14 24.2899Z" fill="#C0FFF7"/>
<path d="M210.68 22.12C210.68 22.12 210.82 23.41 212.5 24.11C214.18 24.81 219.13 25.13 224.76 19.74C224.76 19.74 219.92 25.1 214.48 24.8C210.32 24.57 210.67 22.11 210.67 22.11L210.68 22.12Z" fill="#C0FFF7"/>
<path d="M213.52 26.69C216.3 28.18 221.79 26.42 225.79 22.77C228.02 20.73 229.32 18.53 229.54 16.73L228.69 16.28C228.98 15.99 229.27 15.57 229.51 15.28C229.33 14.46 228.81 13.91 227.99 13.47C225.21 11.98 219.72 13.74 215.72 17.39C211.72 21.04 210.73 25.21 213.51 26.69H213.52ZM206.59 29.92C206.01 29.12 205.7 28.15 205.65 27.07L202.64 28.03L203.84 22.97L206.97 21.97C207.45 21.03 208.06 20.07 208.79 19.11C208.65 18.71 208.62 18.22 208.7 17.66L207.74 17.14L209.34 15.68C210.2 13.9 211.91 11.84 214.64 9.94C218.28 7.4 221.18 7.12 222.63 7.19L227.01 5.79001L226.47 8.08001C227.97 7.83001 229.39 7.78001 230.65 7.97001L233.07 5.76001L236.94 7.83001L234.66 9.91C235.35 10.69 235.75 11.66 235.86 12.76L238.48 11.92L237.28 16.98L234.78 17.78C234.12 19.17 233.18 20.61 231.97 22.05L233.39 22.81L227.82 27.89L226.4 27.13C224.73 28.32 222.98 29.33 221.24 30.14L220.79 32.04L214.12 34.17L214.59 32.18C213.05 32.39 211.6 32.38 210.34 32.12L208.06 34.2L204.19 32.13L206.61 29.92H206.59Z" fill="url(#paint43_linear_320_421)"/>
<path d="M208.04 34.2L204.17 32.13L206.59 29.92C206.01 29.12 205.7 28.15 205.65 27.07L202.64 28.03L203.84 22.97L206.97 21.97C207.61 20.71 208.48 19.42 209.57 18.13L207.73 17.14L213.3 12.06L215.14 13.05C216.64 11.98 218.2 11.05 219.77 10.29L220.33 7.92001L227 5.79001L226.46 8.08001C227.96 7.83001 229.38 7.78001 230.64 7.97001L233.06 5.76001L236.93 7.83001L234.65 9.91C235.34 10.69 235.74 11.66 235.85 12.76L238.47 11.92L237.27 16.98L234.77 17.78C234.11 19.17 233.17 20.61 231.96 22.05L233.38 22.81L227.81 27.89L226.39 27.13C224.72 28.32 222.97 29.33 221.23 30.14L220.78 32.04L214.11 34.17L214.58 32.18C213.04 32.39 211.59 32.38 210.33 32.12L208.05 34.2H208.04ZM225.79 22.78C229.79 19.13 230.78 14.96 228 13.48C225.22 11.99 219.73 13.75 215.73 17.4C211.73 21.05 210.74 25.22 213.52 26.7C216.3 28.19 221.79 26.43 225.79 22.78Z" fill="url(#paint44_linear_320_421)"/>
<path d="M204.78 28.44L200.91 26.37L203.33 24.16C202.75 23.36 202.44 22.39 202.39 21.31L199.38 22.27L200.58 17.21L203.71 16.21C204.35 14.95 205.22 13.66 206.31 12.37L204.47 11.38L210.04 6.3L211.88 7.29C213.38 6.22 214.94 5.29 216.51 4.53L217.07 2.16L223.74 0.0299988L223.2 2.32C224.7 2.07 226.12 2.02 227.38 2.21L229.8 0L233.67 2.07L231.39 4.15C232.08 4.93 232.48 5.9 232.59 7L235.21 6.16L234.01 11.22L231.51 12.02C230.85 13.41 229.91 14.85 228.7 16.29L230.12 17.05L224.55 22.13L223.13 21.37C221.46 22.56 219.71 23.57 217.97 24.38L217.52 26.28L210.85 28.41L211.32 26.42C209.78 26.63 208.33 26.62 207.07 26.36L204.79 28.44H204.78ZM222.53 17.02C226.53 13.37 227.52 9.2 224.74 7.72C221.96 6.23 216.47 7.99 212.47 11.64C208.47 15.29 207.48 19.46 210.26 20.94C213.04 22.43 218.53 20.67 222.53 17.02Z" fill="#1E9ABC"/>
<path d="M235.21 6.1499L238.46 11.9099L237.26 16.9699L234 11.2099L235.21 6.1499Z" fill="url(#paint45_linear_320_421)"/>
<path d="M230.11 17.04L233.37 22.8L227.8 27.89L224.55 22.12L230.11 17.04Z" fill="url(#paint46_linear_320_421)"/>
<path d="M217.51 26.27L220.77 32.03L214.1 34.16L210.84 28.4L217.51 26.27Z" fill="url(#paint47_linear_320_421)"/>
<path d="M204.78 28.4401L208.04 34.2001L204.17 32.1301L200.91 26.3701L204.78 28.4401Z" fill="url(#paint48_linear_320_421)"/>
<path d="M226.38 27.1201L223.12 21.3601L224.55 22.1201L227.8 27.8901L226.38 27.1201Z" fill="#083860"/>
<path d="M231.5 12.01L234 11.21L237.26 16.97L234.76 17.77L231.5 12.01Z" fill="#083860"/>
<path d="M217.96 24.3701L221.22 30.1301L220.77 32.0301L217.51 26.2701L217.96 24.3701Z" fill="#083860"/>
<path d="M207.06 26.3501L210.32 32.1101L208.04 34.2001L204.78 28.4401L207.06 26.3501Z" fill="#083860"/>
<path d="M199.38 22.2701L201.43 25.9001L203.33 24.1601C203.33 24.1601 202.43 22.8601 202.39 21.3101L199.38 22.2701Z" fill="#083860"/>
<path d="M204.47 11.3799L205.56 13.3099L206.31 12.3699L204.47 11.3799Z" fill="#083860"/>
<path d="M223.74 0.0200195L224.92 2.11002L223.2 2.31002L223.74 0.0200195Z" fill="#083860"/>
<path d="M233.67 2.06006L236.93 7.82006L236.68 8.77006L235.2 6.16006L232.58 7.00006C232.58 7.00006 232.57 5.27006 231.38 4.15006L233.66 2.07006L233.67 2.06006Z" fill="#083860"/>
<path d="M223.12 21.3601L226.38 27.1201C226.38 27.1201 223.16 29.4301 221.22 30.1301L217.96 24.3701C217.96 24.3701 221.55 22.6001 223.12 21.3601Z" fill="url(#paint49_linear_320_421)"/>
<path d="M204.78 28.44L200.91 26.37L203.33 24.16C202.75 23.36 202.44 22.39 202.39 21.31L199.38 22.27L200.58 17.21L203.71 16.21C204.35 14.95 205.22 13.66 206.31 12.37L204.47 11.38L210.04 6.3L211.88 7.29C213.38 6.22 214.94 5.29 216.51 4.53L217.07 2.16L223.74 0.0299988L223.2 2.32C224.7 2.07 226.12 2.02 227.38 2.21L229.8 0L233.67 2.07L231.39 4.15C232.08 4.93 232.48 5.9 232.59 7L235.21 6.16L234.01 11.22L231.51 12.02C230.85 13.41 229.91 14.85 228.7 16.29L230.12 17.05L224.55 22.13L223.13 21.37C221.46 22.56 219.71 23.57 217.97 24.38L217.52 26.28L210.85 28.41L211.32 26.42C209.78 26.63 208.33 26.62 207.07 26.36L204.79 28.44H204.78ZM222.53 17.02C226.53 13.37 227.52 9.2 224.74 7.72C221.96 6.23 216.47 7.99 212.47 11.64C208.47 15.29 207.48 19.46 210.26 20.94C213.04 22.43 218.53 20.67 222.53 17.02Z" fill="url(#paint50_linear_320_421)"/>
<path d="M235.21 6.1499L238.46 11.9099L237.26 16.9699L234 11.2099L235.21 6.1499Z" fill="url(#paint51_linear_320_421)"/>
<path d="M230.11 17.04L233.37 22.8L227.8 27.89L224.55 22.12L230.11 17.04Z" fill="url(#paint52_linear_320_421)"/>
<path d="M217.51 26.27L220.77 32.03L214.1 34.16L210.84 28.4L217.51 26.27Z" fill="url(#paint53_linear_320_421)"/>
<path d="M204.78 28.4401L208.04 34.2001L204.17 32.1301L200.91 26.3701L204.78 28.4401Z" fill="url(#paint54_linear_320_421)"/>
<path d="M226.38 27.1201L223.12 21.3601L224.55 22.1201L227.8 27.8901L226.38 27.1201Z" fill="#083860"/>
<path d="M231.5 12.01L234 11.21L237.26 16.97L234.76 17.77L231.5 12.01Z" fill="#083860"/>
<path d="M217.96 24.3701L221.22 30.1301L220.77 32.0301L217.51 26.2701L217.96 24.3701Z" fill="#083860"/>
<path d="M207.06 26.3501L210.32 32.1101L208.04 34.2001L204.78 28.4401L207.06 26.3501Z" fill="#083860"/>
<path d="M199.38 22.2701L201.43 25.9001L203.33 24.1601C203.33 24.1601 202.43 22.8601 202.39 21.3101L199.38 22.2701Z" fill="#083860"/>
<path d="M204.47 11.3799L205.56 13.3099L206.31 12.3699L204.47 11.3799Z" fill="#083860"/>
<path d="M223.74 0.0200195L224.92 2.11002L223.2 2.31002L223.74 0.0200195Z" fill="#083860"/>
<path d="M233.67 2.06006L236.93 7.82006L236.68 8.77006L235.2 6.16006L232.58 7.00006C232.58 7.00006 232.57 5.27006 231.38 4.15006L233.66 2.07006L233.67 2.06006Z" fill="#083860"/>
<path d="M223.12 21.3601L226.38 27.1201C226.38 27.1201 223.16 29.4301 221.22 30.1301L217.96 24.3701C217.96 24.3701 221.55 22.6001 223.12 21.3601Z" fill="url(#paint55_linear_320_421)"/>
<path d="M211.36 26.6301L210.95 28.2701L217.16 26.1201L211.1 28.0601L211.36 26.6301Z" fill="#C0FFF7"/>
<path d="M223.25 21.2699L224.6 21.9199L229.65 17.3999L224.58 21.7499L223.25 21.2699Z" fill="#C0FFF7"/>
<path d="M208.78 19.11C208.78 19.11 208.92 20.4 210.6 21.1C212.28 21.8 217.23 22.12 222.86 16.73C222.86 16.73 218.02 22.09 212.58 21.79C208.42 21.56 208.77 19.1 208.77 19.1L208.78 19.11Z" fill="#C0FFF7"/>
</g>
<path style="mix-blend-mode:multiply" opacity="0.55" d="M172.88 305.66C266.702 305.66 342.76 299.02 342.76 290.83C342.76 282.64 266.702 276 172.88 276C79.0579 276 3 282.64 3 290.83C3 299.02 79.0579 305.66 172.88 305.66Z" fill="url(#paint56_linear_320_421)"/>
<path d="M258.31 137H87.4798C79.3944 137 72.8398 143.555 72.8398 151.64V253.59C72.8398 261.675 79.3944 268.23 87.4798 268.23H258.31C266.395 268.23 272.95 261.675 272.95 253.59V151.64C272.95 143.555 266.395 137 258.31 137Z" fill="#353C46"/>
<path d="M261.7 147.99H84.0801V252.72H261.7V147.99Z" fill="white"/>
<path d="M51 259.36H294.79C294.79 259.36 294.79 277.81 270.45 276.13H75.51C75.51 276.13 51 277.09 51 259.36Z" fill="#FEF8FA"/>
<path d="M197.38 262.56H148.41C146.64 262.56 145.21 261.13 145.21 259.36H200.59C200.59 261.13 199.16 262.56 197.39 262.56H197.38Z" fill="#606060"/>
<path d="M261.7 147.99L84.0801 252.72V147.99H261.7Z" fill="#F0F1F1"/>
<path d="M111.042 208.136H109.909V207.587H112.808V208.136H111.676V211.074H111.042V208.136Z" fill="#231F20"/>
<path d="M114.773 209.331C114.694 206.993 118.533 206.987 118.453 209.331C118.533 211.675 114.694 211.669 114.773 209.331ZM117.819 209.331C117.87 207.723 115.356 207.723 115.413 209.331C115.356 210.939 117.876 210.939 117.819 209.331Z" fill="#231F20"/>
<path d="M125.208 207.587C126.549 207.502 128.644 207.519 128.571 209.331C128.65 211.142 126.549 211.159 125.208 211.074V207.587ZM126.674 210.525C128.91 210.225 127.976 207.627 125.842 208.136V210.525H126.674Z" fill="#231F20"/>
<path d="M131.09 207.587H131.724V211.074H131.09V207.587Z" fill="#231F20"/>
<path d="M136.769 209.297H137.369V210.684C133.043 213.056 133.428 205.373 137.408 208.102L137.012 208.498C134.566 206.619 133.91 211.561 136.769 210.372V209.291V209.297Z" fill="#231F20"/>
<path d="M140.041 207.587H140.675V211.074H140.041V207.587Z" fill="#231F20"/>
<path d="M144.14 208.136H143.008V207.587H145.907V208.136H144.774V211.074H144.14V208.136Z" fill="#231F20"/>
<path d="M150.227 210.27H148.517L148.183 211.074H147.532L149.072 207.587H149.7L151.246 211.074H150.578L150.227 210.27ZM150.012 209.761L149.366 208.232L148.721 209.761H150.006H150.012Z" fill="#231F20"/>
<path d="M153.488 207.587H154.122V210.525H155.911V211.074H153.482V207.587H153.488Z" fill="#231F20"/>
<path d="M158.227 207.587H158.861V211.074H158.227V207.587Z" fill="#231F20"/>
<path d="M161.301 210.712L161.522 210.208C161.884 210.593 163.396 210.842 163.413 210.135C163.413 209.382 161.374 209.874 161.374 208.583C161.25 207.553 163.113 207.264 163.894 207.853L163.69 208.357C163.22 208.017 161.997 207.915 162.003 208.555C162.003 209.291 164.03 208.81 164.03 210.089C164.166 211.216 161.975 211.392 161.301 210.712Z" fill="#231F20"/>
<path d="M169.013 210.531V211.069H166.448V207.581H168.95V208.119H167.088V209.031H168.741V209.563H167.088V210.525H169.018L169.013 210.531Z" fill="#231F20"/>
<path d="M185.035 208.136H183.903V207.587H186.802V208.136H185.669V211.074H185.035V208.136Z" fill="#231F20"/>
<path d="M188.778 209.331C188.698 206.993 192.537 206.987 192.458 209.331C192.537 211.675 188.698 211.669 188.778 209.331ZM191.818 209.331C191.869 207.723 189.355 207.723 189.412 209.331C189.361 210.939 191.875 210.939 191.818 209.331Z" fill="#231F20"/>
<path d="M198.929 210.712L199.15 210.208C199.512 210.593 201.024 210.842 201.041 210.135C201.041 209.382 199.002 209.874 199.002 208.583C198.878 207.553 200.74 207.264 201.522 207.853L201.318 208.357C200.848 208.017 199.625 207.915 199.631 208.555C199.631 209.291 201.658 208.81 201.658 210.089C201.794 211.216 199.602 211.392 198.929 210.712Z" fill="#231F20"/>
<path d="M204.059 207.587H204.693V211.074H204.059V207.587Z" fill="#231F20"/>
<path d="M210.643 211.08V208.765L209.511 210.672H209.228L208.101 208.793V211.074H207.501V207.587H208.022L209.381 209.903L210.717 207.587H211.238V211.074H210.643V211.08Z" fill="#231F20"/>
<path d="M216.775 208.833C216.849 209.971 215.507 210.163 214.544 210.067V211.069H213.91V207.581C214.924 207.559 216.86 207.395 216.775 208.827V208.833ZM216.13 208.833C216.203 208.051 215.116 208.131 214.544 208.142V209.529C215.122 209.546 216.203 209.614 216.13 208.833Z" fill="#231F20"/>
<path d="M219.255 207.587H219.889V210.525H221.678V211.074H219.249V207.587H219.255Z" fill="#231F20"/>
<path d="M223.994 207.587H224.628V211.074H223.994V207.587Z" fill="#231F20"/>
<path d="M227.991 208.13V209.195H229.644V209.744H227.991V211.08H227.356V207.593H229.859V208.13H227.996H227.991Z" fill="#231F20"/>
<path d="M233.754 209.846V211.074H233.12V209.852L231.778 207.587H232.452L233.454 209.285L234.462 207.587H235.09L233.754 209.846Z" fill="#231F20"/>
<path d="M176.22 210.537C177.414 210.554 177.414 208.646 176.22 208.663C175.025 208.646 175.025 210.554 176.22 210.537Z" fill="#F06724"/>
<path d="M153.816 201.382L154.003 201.688C154.62 202.701 153.816 203.726 152.644 203.726H152.135C151.614 203.726 151.132 203.448 150.855 203.001L149.581 201.161L147.883 198.568L147.809 198.438C147.254 197.674 147.481 197.832 146.337 197.832H143.478V203.714H140.534V189.006H149.774C151.076 189.006 152.259 189.447 153.108 190.166C153.963 190.88 154.49 191.87 154.49 192.963C154.49 194.56 154.195 196.609 152.559 197.243C152.135 197.413 151.682 197.515 151.2 197.56L153.805 201.382H153.816ZM149.87 195.369C150.108 195.369 150.34 195.324 150.555 195.233C151.161 195.013 151.551 194.373 151.551 193.563C151.551 192.839 151.234 192.504 151.053 192.352C150.844 192.17 150.447 191.955 149.87 191.955H143.483V195.386L149.87 195.369Z" fill="#E02228"/>
<path d="M129.833 201.631C130.744 201.631 131.475 200.884 131.475 199.955C131.475 199.027 130.739 198.279 129.833 198.279C128.927 198.279 128.191 199.027 128.191 199.955C128.191 200.884 128.927 201.631 129.833 201.631Z" fill="#F06724"/>
<path d="M158.708 193.269V194.888H164.591C165.253 194.888 165.791 195.437 165.791 196.117C165.791 196.796 165.253 197.345 164.591 197.345H158.708V199.989C158.708 200.691 159.438 201.269 160.322 201.269H168.531V203.72H160.435C157.853 203.72 155.77 201.931 155.77 199.746V192.986C155.77 190.8 157.853 189.011 160.435 189.011H168.531V191.955H160.271C158.6 191.938 158.714 193.28 158.714 193.28L158.708 193.269Z" fill="#E02228"/>
<path d="M176.899 203.68H176.95L176.899 203.726V203.68ZM193.97 189.011L187.391 196.366L187.023 196.768V202.237C187.023 203.029 186.405 203.686 185.647 203.686H185.369C184.611 203.686 183.994 203.041 183.994 202.237V196.807L183.58 196.371L177.001 189.017H180.84L185.5 194.231L190.159 189.017H193.97V189.011ZM194.598 203.68H194.621V203.726L194.598 203.68Z" fill="#E02228"/>
<path d="M138.473 203.714L132.24 190.478H132.234C131.911 189.747 131.017 189.215 129.805 189.215C128.497 189.215 127.705 189.742 127.376 190.478H127.37L121.143 203.714H124.698L129.777 192.929H129.85L134.929 203.714H138.484H138.473Z" fill="#E02228"/>
<path d="M124.907 189.006L118.487 203.714H116.217L113.454 196.937L110.691 203.714H108.42L102 189.006H105.827L109.728 197.566L111.517 192.935L111.636 192.629C111.636 192.629 111.648 192.606 111.653 192.595C112.072 191.706 112.786 191.531 113.459 191.531C114.133 191.531 114.79 191.633 115.248 192.595C115.271 192.64 115.288 192.686 115.311 192.731C115.311 192.737 115.316 192.742 115.316 192.748L115.356 192.839L117.258 197.611L121.08 189.011H124.907V189.006Z" fill="#E02228"/>
<path d="M181.763 200.804V203.726H175.852C175.003 203.726 174.204 203.556 173.474 203.239C172.404 202.775 171.538 202.016 171.028 201.093C170.666 200.465 170.473 199.774 170.473 199.032V190.579C170.473 189.719 171.141 189.011 171.957 189.011H171.917C172.744 189.011 173.417 189.708 173.417 190.568V199.01C173.434 200.119 174.317 200.77 175.495 200.782L181.763 200.804Z" fill="#E02228"/>
<path d="M201.171 193.269V194.888L201.182 196.117L201.171 197.345V199.989C201.171 200.691 201.901 201.269 202.784 201.269H210.994V203.72H202.898C200.316 203.72 198.232 201.931 198.232 199.746V192.986C198.232 190.8 200.316 189.011 202.898 189.011H210.994V191.955H202.734C201.092 191.978 201.177 193.28 201.177 193.28L201.171 193.269Z" fill="#E02228"/>
<path d="M226.281 201.376L226.468 201.682C227.085 202.695 226.281 203.72 225.109 203.72H224.599C224.079 203.72 223.597 203.443 223.32 202.995L222.046 201.155L220.347 198.562L220.274 198.432C219.719 197.668 219.945 197.826 218.802 197.826H215.943V203.709H212.999V189H222.239C223.541 189 224.724 189.442 225.573 190.161C226.428 190.874 226.955 191.865 226.955 192.957C226.955 194.554 226.66 196.604 225.024 197.238C224.599 197.407 224.147 197.509 223.665 197.555L226.27 201.376H226.281ZM222.335 195.364C222.573 195.364 222.805 195.318 223.02 195.228C223.626 195.007 224.022 194.367 224.022 193.558C224.022 192.833 223.705 192.499 223.524 192.346C223.314 192.165 222.918 191.95 222.34 191.95H215.954V195.381L222.34 195.364H222.335Z" fill="#E02228"/>
<path d="M228.964 203.72V189.742V189.011H232.163L232.226 189.119L235.94 197.011H236.019L239.722 189.141L239.79 189.017H242.989V200.329H239.778L239.79 196.535L238.408 199.468C238.199 199.927 237.814 200.306 237.225 200.527C236.88 200.657 236.461 200.731 235.974 200.731C235.034 200.731 234.286 200.414 233.851 199.932C233.828 199.893 233.805 199.859 233.788 199.819C233.681 199.604 233.55 199.344 233.539 199.327L233.16 198.557L232.163 196.383V203.737H228.953L228.964 203.72Z" fill="#E02228"/>
<path d="M241.392 203.72C242.281 203.72 243 202.99 243 202.084C243 201.178 242.281 200.448 241.392 200.448C240.503 200.448 239.784 201.178 239.784 202.084C239.784 202.99 240.503 203.72 241.392 203.72Z" fill="#F06724"/>
<path d="M315.97 109.16H262.52H209.07L250.74 162.02V180.27H274.31V162.02L315.97 109.16Z" fill="#FF9B3A"/>
<path d="M317.05 104H208V113.43H317.05V104Z" fill="#FFE176"/>
<path d="M276.02 175.56H249.02V184.99H276.02V175.56Z" fill="#FFA24C"/>
<path d="M242.24 113.43L289.91 120.32L263.45 162.02L270.52 163.53V173.52L250.74 175.56H274.31V162.02L312.61 113.43H242.24Z" fill="#FF8321"/>
<path d="M269.26 197.05C270.41 197 270.38 195.39 270.94 195.97C271.58 196.64 272.78 198.22 273.02 198.63C273.91 200.14 273.48 202.61 271.58 205.45C268.34 210.27 262.04 214.33 257.52 214.52C255.95 214.58 254.8 214.17 254.1 213.4C253.89 213.16 252.16 211.09 252.04 210.78C251.39 209.25 253.44 208.74 255.21 206.11C258.45 201.29 264.75 197.23 269.27 197.04L269.26 197.05Z" fill="#FF7D56"/>
<path d="M262.96 199.12L269.83 207.66C270.47 206.95 271.06 206.21 271.57 205.45C272.24 204.45 272.73 203.49 273.04 202.61L268.61 197.11C266.86 197.31 264.89 198.04 262.95 199.12H262.96Z" fill="#FFD071"/>
<path d="M257.4 203.43C256.58 204.28 255.83 205.19 255.21 206.12C254.71 206.86 254.2 207.43 253.72 207.9L258.91 214.35C260.64 214.02 262.54 213.22 264.39 212.12L257.4 203.43Z" fill="#FFD071"/>
<path d="M257.4 203.43L264.39 212.12C266.36 210.94 268.27 209.39 269.83 207.66L262.96 199.12C260.97 200.24 259.03 201.73 257.4 203.43Z" fill="#FFE59A"/>
<path d="M267.55 194.93C272.07 194.74 273.1 198.51 269.86 203.33C266.62 208.15 260.32 212.21 255.8 212.4C251.28 212.58 250.25 208.82 253.49 204C256.73 199.18 263.03 195.12 267.55 194.93Z" fill="#FFAD5D"/>
<path d="M267.28 197.31C269.39 198.29 268.3 201.74 264.85 205.02C261.4 208.3 256.89 210.15 254.79 209.17C252.68 208.19 253.77 204.74 257.22 201.46C260.67 198.18 265.18 196.33 267.28 197.31Z" fill="#FF7D56"/>
<path d="M267.36 197.58C269.37 198.51 268.33 201.8 265.04 204.92C261.75 208.04 257.46 209.81 255.45 208.88C253.44 207.95 254.48 204.66 257.77 201.54C261.06 198.42 265.35 196.65 267.36 197.58Z" fill="#FFAD5D"/>
<g style="mix-blend-mode:screen">
<path d="M261.55 197.24C261.47 197.13 261.37 197.04 261.28 196.94C258.28 198.62 255.36 201.16 253.47 203.97C251.53 206.85 251.12 209.36 252.07 210.86C253.8 210.37 255.65 209.41 257.38 208.02C261.69 204.55 263.56 199.72 261.55 197.23V197.24Z" fill="#AF4336"/>
</g>
<path d="M255.69 209.23L267.87 201.21L268.12 200.38L271.9 197.98L271.31 196.38L268.21 198.41L268.38 199.18L254.75 208.3L255.69 209.23Z" fill="#FFAF5E"/>
<path d="M262.08 207.21C262.08 207.21 267.51 203.28 268.38 199.17C268.38 199.17 268.43 204.02 262.08 207.21Z" fill="#FFE08B"/>
<path d="M252.48 211.43C252.48 211.43 255.6 215.9 265.87 207.71C265.87 207.71 256.63 214.5 252.48 211.43Z" fill="#FFE08B"/>
<path d="M273.37 284.46C274.29 285.15 275.29 283.89 275.35 284.69C275.42 285.62 275.35 287.6 275.28 288.06C275.01 289.8 273.12 291.44 269.84 292.42C264.27 294.1 256.83 293.25 253.22 290.54C251.96 289.59 251.33 288.55 251.28 287.51C251.26 287.19 251.25 284.49 251.34 284.18C251.81 282.59 253.72 283.49 256.75 282.58C262.32 280.9 269.76 281.75 273.37 284.46Z" fill="#FF7D56"/>
<path d="M267.18 282.07L267.09 293.03C268.04 292.89 268.96 292.69 269.83 292.42C270.99 292.07 271.97 291.64 272.77 291.15L272.83 284.09C271.35 283.14 269.36 282.45 267.18 282.07Z" fill="#FFD071"/>
<path d="M260.15 281.88C258.97 282.02 257.82 282.25 256.75 282.58C255.9 282.84 255.14 282.95 254.47 283.02L254.4 291.3C255.95 292.14 257.93 292.73 260.06 293.04L260.15 281.89V281.88Z" fill="#FFD071"/>
<path d="M260.15 281.88L260.06 293.03C262.33 293.36 264.79 293.37 267.1 293.03L267.19 282.07C264.95 281.68 262.5 281.6 260.16 281.88H260.15Z" fill="#FFE59A"/>
<path d="M273.39 281.74C277.01 284.46 275.42 288.02 269.86 289.7C264.29 291.38 256.85 290.53 253.24 287.82C249.62 285.1 251.21 281.54 256.77 279.86C262.34 278.18 269.78 279.03 273.39 281.74Z" fill="#FFAD5D"/>
<path d="M271.67 283.4C272.68 285.49 269.65 287.47 264.91 287.82C260.17 288.17 255.5 286.75 254.49 284.66C253.48 282.57 256.51 280.59 261.25 280.24C265.99 279.89 270.66 281.31 271.67 283.4Z" fill="#FF7D56"/>
<path d="M271.56 283.66C272.52 285.65 269.64 287.54 265.12 287.87C260.6 288.2 256.16 286.86 255.19 284.86C254.23 282.87 257.11 280.98 261.63 280.65C266.15 280.32 270.59 281.66 271.56 283.66Z" fill="#FFAD5D"/>
<g style="mix-blend-mode:screen">
<path d="M267.29 279.72C267.29 279.58 267.29 279.45 267.27 279.32C263.88 278.72 260.01 278.84 256.77 279.81C253.44 280.81 251.54 282.49 251.32 284.26C252.97 284.98 255.01 285.41 257.22 285.43C262.75 285.48 267.26 282.92 267.29 279.72Z" fill="#AF4336"/>
</g>
<path d="M255.15 285.29L269.66 286.8L270.38 286.31L274.83 286.85L275.38 285.24L271.69 284.85L271.34 285.55L255.02 283.97L255.15 285.29Z" fill="#FFAF5E"/>
<path d="M261.38 287.78C261.38 287.78 268.07 288.17 271.34 285.55C271.34 285.55 268.31 289.34 261.38 287.78Z" fill="#FFE08B"/>
<path d="M251.28 284.96C251.28 284.96 250.87 290.39 264 290.56C264 290.56 252.55 289.96 251.28 284.96Z" fill="#FFE08B"/>
<path d="M273.37 278.65C274.29 279.34 275.29 278.08 275.35 278.88C275.42 279.81 275.35 281.79 275.28 282.25C275.01 283.99 273.12 285.63 269.84 286.61C264.27 288.29 256.83 287.44 253.22 284.73C251.96 283.78 251.33 282.74 251.28 281.7C251.26 281.38 251.25 278.68 251.34 278.37C251.81 276.78 253.72 277.68 256.75 276.77C262.32 275.09 269.76 275.94 273.37 278.65Z" fill="#FF7D56"/>
<path d="M267.18 276.26L267.09 287.22C268.04 287.08 268.96 286.88 269.83 286.61C270.99 286.26 271.97 285.83 272.77 285.34L272.83 278.28C271.35 277.33 269.36 276.64 267.18 276.26Z" fill="#FFD071"/>
<path d="M260.15 276.07C258.97 276.21 257.82 276.44 256.75 276.77C255.9 277.03 255.14 277.14 254.47 277.21L254.4 285.49C255.95 286.33 257.93 286.92 260.06 287.23L260.15 276.08V276.07Z" fill="#FFD071"/>
<path d="M260.15 276.07L260.06 287.22C262.33 287.55 264.79 287.56 267.1 287.22L267.19 276.26C264.95 275.87 262.5 275.79 260.16 276.07H260.15Z" fill="#FFE59A"/>
<path d="M273.39 275.93C277.01 278.65 275.42 282.21 269.86 283.89C264.29 285.57 256.85 284.72 253.24 282.01C249.62 279.29 251.21 275.73 256.77 274.05C262.34 272.37 269.78 273.22 273.39 275.93Z" fill="#FFAD5D"/>
<path d="M271.67 277.6C272.68 279.69 269.65 281.67 264.91 282.02C260.17 282.37 255.5 280.95 254.49 278.86C253.48 276.77 256.51 274.79 261.25 274.44C265.99 274.09 270.66 275.51 271.67 277.6Z" fill="#FF7D56"/>
<path d="M271.56 277.85C272.52 279.84 269.64 281.73 265.12 282.06C260.6 282.39 256.16 281.05 255.19 279.05C254.23 277.06 257.11 275.17 261.63 274.84C266.15 274.51 270.59 275.85 271.56 277.85Z" fill="#FFAD5D"/>
<g style="mix-blend-mode:screen">
<path d="M267.29 273.91C267.29 273.77 267.29 273.64 267.27 273.51C263.88 272.91 260.01 273.03 256.77 274C253.44 275 251.54 276.68 251.32 278.45C252.97 279.17 255.01 279.6 257.22 279.62C262.75 279.67 267.26 277.11 267.29 273.91Z" fill="#AF4336"/>
</g>
<path d="M255.15 279.48L269.66 281L270.38 280.51L274.83 281.04L275.38 279.43L271.69 279.04L271.34 279.74L255.02 278.16L255.15 279.48Z" fill="#FFAF5E"/>
<path d="M261.38 281.97C261.38 281.97 268.07 282.36 271.34 279.74C271.34 279.74 268.31 283.53 261.38 281.97Z" fill="#FFE08B"/>
<path d="M251.28 279.15C251.28 279.15 250.87 284.58 264 284.75C264 284.75 252.55 284.15 251.28 279.15Z" fill="#FFE08B"/>
<path d="M273.37 272.84C274.29 273.53 275.29 272.27 275.35 273.07C275.42 274 275.35 275.98 275.28 276.44C275.01 278.18 273.12 279.82 269.84 280.8C264.27 282.48 256.83 281.63 253.22 278.92C251.96 277.97 251.33 276.93 251.28 275.89C251.26 275.57 251.25 272.87 251.34 272.56C251.81 270.97 253.72 271.87 256.75 270.96C262.32 269.28 269.76 270.13 273.37 272.84Z" fill="#FF7D56"/>
<path d="M267.18 270.45L267.09 281.41C268.04 281.27 268.96 281.07 269.83 280.8C270.99 280.45 271.97 280.02 272.77 279.53L272.83 272.47C271.35 271.52 269.36 270.83 267.18 270.45Z" fill="#FFD071"/>
<path d="M260.15 270.26C258.97 270.4 257.82 270.63 256.75 270.96C255.9 271.22 255.14 271.33 254.47 271.4L254.4 279.68C255.95 280.52 257.93 281.11 260.06 281.42L260.15 270.27V270.26Z" fill="#FFD071"/>
<path d="M260.15 270.26L260.06 281.41C262.33 281.74 264.79 281.75 267.1 281.41L267.19 270.45C264.95 270.06 262.5 269.98 260.16 270.26H260.15Z" fill="#FFE59A"/>
<path d="M273.39 270.12C277.01 272.84 275.42 276.4 269.86 278.08C264.29 279.76 256.85 278.91 253.24 276.2C249.62 273.48 251.21 269.92 256.77 268.24C262.34 266.56 269.78 267.41 273.39 270.12Z" fill="#FFAD5D"/>
<path d="M271.67 271.79C272.68 273.88 269.65 275.86 264.91 276.21C260.17 276.56 255.5 275.14 254.49 273.05C253.48 270.96 256.51 268.98 261.25 268.63C265.99 268.28 270.66 269.7 271.67 271.79Z" fill="#FF7D56"/>
<path d="M271.56 272.05C272.52 274.04 269.64 275.93 265.12 276.26C260.6 276.59 256.16 275.25 255.19 273.25C254.23 271.26 257.11 269.37 261.63 269.04C266.15 268.71 270.59 270.05 271.56 272.05Z" fill="#FFAD5D"/>
<g style="mix-blend-mode:screen">
<path d="M267.29 268.11C267.29 267.97 267.29 267.84 267.27 267.71C263.88 267.11 260.01 267.23 256.77 268.2C253.44 269.2 251.54 270.88 251.32 272.65C252.97 273.37 255.01 273.8 257.22 273.82C262.75 273.87 267.26 271.31 267.29 268.11Z" fill="#AF4336"/>
</g>
<path d="M255.15 273.67L269.66 275.19L270.38 274.7L274.83 275.23L275.38 273.62L271.69 273.23L271.34 273.93L255.02 272.35L255.15 273.67Z" fill="#FFAF5E"/>
<path d="M261.38 276.16C261.38 276.16 268.07 276.55 271.34 273.93C271.34 273.93 268.31 277.72 261.38 276.16Z" fill="#FFE08B"/>
<path d="M251.28 273.34C251.28 273.34 250.87 278.77 264 278.94C264 278.94 252.55 278.34 251.28 273.34Z" fill="#FFE08B"/>
<path d="M273.37 267.03C274.29 267.72 275.29 266.46 275.35 267.26C275.42 268.19 275.35 270.17 275.28 270.63C275.01 272.37 273.12 274.01 269.84 274.99C264.27 276.67 256.83 275.82 253.22 273.11C251.96 272.16 251.33 271.12 251.28 270.08C251.26 269.76 251.25 267.06 251.34 266.75C251.81 265.16 253.72 266.06 256.75 265.15C262.32 263.47 269.76 264.32 273.37 267.03Z" fill="#FF7D56"/>
<path d="M267.18 264.65L267.09 275.61C268.04 275.47 268.96 275.27 269.83 275C270.99 274.65 271.97 274.22 272.77 273.73L272.83 266.67C271.35 265.72 269.36 265.03 267.18 264.65Z" fill="#FFD071"/>
<path d="M260.15 264.45C258.97 264.59 257.82 264.82 256.75 265.15C255.9 265.41 255.14 265.52 254.47 265.59L254.4 273.87C255.95 274.71 257.93 275.3 260.06 275.61L260.15 264.46V264.45Z" fill="#FFD071"/>
<path d="M260.15 264.45L260.06 275.6C262.33 275.93 264.79 275.94 267.1 275.6L267.19 264.64C264.95 264.25 262.5 264.17 260.16 264.45H260.15Z" fill="#FFE59A"/>
<path d="M273.39 264.31C277.01 267.03 275.42 270.59 269.86 272.27C264.29 273.95 256.85 273.1 253.24 270.39C249.62 267.67 251.21 264.11 256.77 262.43C262.34 260.75 269.78 261.6 273.39 264.31Z" fill="#FFAD5D"/>
<path d="M271.67 265.98C272.68 268.07 269.65 270.05 264.91 270.4C260.17 270.75 255.5 269.33 254.49 267.24C253.48 265.15 256.51 263.17 261.25 262.82C265.99 262.47 270.66 263.89 271.67 265.98Z" fill="#FF7D56"/>
<path d="M271.56 266.24C272.52 268.23 269.64 270.12 265.12 270.45C260.6 270.78 256.16 269.44 255.19 267.44C254.23 265.45 257.11 263.56 261.63 263.23C266.15 262.9 270.59 264.24 271.56 266.24Z" fill="#FFAD5D"/>
<g style="mix-blend-mode:screen">
<path d="M267.29 262.3C267.29 262.16 267.29 262.03 267.27 261.9C263.88 261.3 260.01 261.42 256.77 262.39C253.44 263.39 251.54 265.07 251.32 266.84C252.97 267.56 255.01 267.99 257.22 268.01C262.75 268.06 267.26 265.5 267.29 262.3Z" fill="#AF4336"/>
</g>
<path d="M255.15 267.86L269.66 269.38L270.38 268.89L274.83 269.42L275.38 267.82L271.69 267.42L271.34 268.12L255.02 266.55L255.15 267.86Z" fill="#FFAF5E"/>
<path d="M261.38 270.35C261.38 270.35 268.07 270.74 271.34 268.12C271.34 268.12 268.31 271.91 261.38 270.35Z" fill="#FFE08B"/>
<path d="M251.28 267.54C251.28 267.54 250.87 272.97 264 273.14C264 273.14 252.55 272.54 251.28 267.54Z" fill="#FFE08B"/>
<path d="M273.37 261.23C274.29 261.92 275.29 260.66 275.35 261.46C275.42 262.39 275.35 264.37 275.28 264.83C275.01 266.57 273.12 268.21 269.84 269.19C264.27 270.87 256.83 270.02 253.22 267.31C251.96 266.36 251.33 265.32 251.28 264.28C251.26 263.96 251.25 261.26 251.34 260.95C251.81 259.36 253.72 260.26 256.75 259.35C262.32 257.67 269.76 258.52 273.37 261.23Z" fill="#FF7D56"/>
<path d="M267.18 258.84L267.09 269.8C268.04 269.66 268.96 269.46 269.83 269.19C270.99 268.84 271.97 268.41 272.77 267.92L272.83 260.86C271.35 259.91 269.36 259.22 267.18 258.84Z" fill="#FFD071"/>
<path d="M260.15 258.65C258.97 258.79 257.82 259.02 256.75 259.35C255.9 259.61 255.14 259.72 254.47 259.79L254.4 268.07C255.95 268.91 257.93 269.5 260.06 269.81L260.15 258.66V258.65Z" fill="#FFD071"/>
<path d="M260.15 258.65L260.06 269.8C262.33 270.13 264.79 270.14 267.1 269.8L267.19 258.84C264.95 258.45 262.5 258.37 260.16 258.65H260.15Z" fill="#FFE59A"/>
<path d="M273.39 258.5C277.01 261.22 275.42 264.78 269.86 266.46C264.29 268.14 256.85 267.29 253.24 264.58C249.62 261.86 251.21 258.3 256.77 256.62C262.34 254.94 269.78 255.79 273.39 258.5Z" fill="#FFAD5D"/>
<path d="M271.67 260.17C272.68 262.26 269.65 264.24 264.91 264.59C260.17 264.94 255.5 263.52 254.49 261.43C253.48 259.34 256.51 257.36 261.25 257.01C265.99 256.66 270.66 258.08 271.67 260.17Z" fill="#FF7D56"/>
<path d="M271.56 260.43C272.52 262.42 269.64 264.31 265.12 264.64C260.6 264.97 256.16 263.63 255.19 261.63C254.23 259.64 257.11 257.75 261.63 257.42C266.15 257.09 270.59 258.43 271.56 260.43Z" fill="#FFAD5D"/>
<g style="mix-blend-mode:screen">
<path d="M267.29 256.49C267.29 256.35 267.29 256.22 267.27 256.09C263.88 255.49 260.01 255.61 256.77 256.58C253.44 257.58 251.54 259.26 251.32 261.03C252.97 261.75 255.01 262.18 257.22 262.2C262.75 262.25 267.26 259.69 267.29 256.49Z" fill="#AF4336"/>
</g>
<path d="M255.15 262.06L269.66 263.57L270.38 263.08L274.83 263.61L275.38 262.01L271.69 261.61L271.34 262.31L255.02 260.74L255.15 262.06Z" fill="#FFAF5E"/>
<path d="M261.38 264.55C261.38 264.55 268.07 264.94 271.34 262.32C271.34 262.32 268.31 266.11 261.38 264.55Z" fill="#FFE08B"/>
<path d="M251.28 261.73C251.28 261.73 250.87 267.16 264 267.33C264 267.33 252.55 266.73 251.28 261.73Z" fill="#FFE08B"/>
<path d="M273.37 255.42C274.29 256.11 275.29 254.85 275.35 255.65C275.42 256.58 275.35 258.56 275.28 259.02C275.01 260.76 273.12 262.4 269.84 263.38C264.27 265.06 256.83 264.21 253.22 261.5C251.96 260.55 251.33 259.51 251.28 258.47C251.26 258.15 251.25 255.45 251.34 255.14C251.81 253.55 253.72 254.45 256.75 253.54C262.32 251.86 269.76 252.71 273.37 255.42Z" fill="#FF7D56"/>
<path d="M267.18 253.03L267.09 263.99C268.04 263.85 268.96 263.65 269.83 263.38C270.99 263.03 271.97 262.6 272.77 262.11L272.83 255.05C271.35 254.1 269.36 253.41 267.18 253.03Z" fill="#FFD071"/>
<path d="M260.15 252.84C258.97 252.98 257.82 253.21 256.75 253.54C255.9 253.8 255.14 253.91 254.47 253.98L254.4 262.26C255.95 263.1 257.93 263.69 260.06 264L260.15 252.85V252.84Z" fill="#FFD071"/>
<path d="M260.15 252.84L260.06 263.99C262.33 264.32 264.79 264.33 267.1 263.99L267.19 253.03C264.95 252.64 262.5 252.56 260.16 252.84H260.15Z" fill="#FFE59A"/>
<path d="M273.39 252.7C277.01 255.42 275.42 258.98 269.86 260.66C264.29 262.34 256.85 261.49 253.24 258.78C249.62 256.06 251.21 252.5 256.77 250.82C262.34 249.14 269.78 249.99 273.39 252.7Z" fill="#FFAD5D"/>
<path d="M271.67 254.36C272.68 256.45 269.65 258.43 264.91 258.78C260.17 259.13 255.5 257.71 254.49 255.62C253.48 253.53 256.51 251.55 261.25 251.2C265.99 250.85 270.66 252.27 271.67 254.36Z" fill="#FF7D56"/>
<path d="M271.56 254.62C272.52 256.61 269.64 258.5 265.12 258.83C260.6 259.16 256.16 257.82 255.19 255.82C254.23 253.83 257.11 251.94 261.63 251.61C266.15 251.28 270.59 252.62 271.56 254.62Z" fill="#FFAD5D"/>
<g style="mix-blend-mode:screen">
<path d="M267.29 250.68C267.29 250.54 267.29 250.41 267.27 250.28C263.88 249.68 260.01 249.8 256.77 250.77C253.44 251.77 251.54 253.45 251.32 255.22C252.97 255.94 255.01 256.37 257.22 256.39C262.75 256.44 267.26 253.88 267.29 250.68Z" fill="#AF4336"/>
</g>
<path d="M255.15 256.25L269.66 257.76L270.38 257.27L274.83 257.81L275.38 256.2L271.69 255.81L271.34 256.51L255.02 254.93L255.15 256.25Z" fill="#FFAF5E"/>
<path d="M261.38 258.74C261.38 258.74 268.07 259.13 271.34 256.51C271.34 256.51 268.31 260.3 261.38 258.74Z" fill="#FFE08B"/>
<path d="M251.28 255.92C251.28 255.92 250.87 261.35 264 261.52C264 261.52 252.55 260.92 251.28 255.92Z" fill="#FFE08B"/>
<path d="M259.73 227.41C258.79 227.38 258.81 226.23 258.36 226.64C257.83 227.12 256.86 228.24 256.66 228.53C255.93 229.61 256.28 231.37 257.84 233.39C260.49 236.83 265.63 239.72 269.32 239.85C270.6 239.9 271.54 239.6 272.11 239.05C272.28 238.88 273.69 237.4 273.79 237.19C274.32 236.1 272.65 235.74 271.2 233.87C268.55 230.43 263.41 227.54 259.72 227.41H259.73Z" fill="#FF7D56"/>
<path d="M264.87 228.88L259.26 234.96C258.74 234.45 258.26 233.93 257.84 233.39C257.29 232.68 256.89 231.99 256.64 231.36L260.25 227.44C261.68 227.58 263.29 228.1 264.87 228.88Z" fill="#FFD071"/>
<path d="M269.41 231.95C270.08 232.56 270.69 233.2 271.2 233.87C271.6 234.39 272.03 234.8 272.41 235.14L268.17 239.74C266.75 239.5 265.2 238.94 263.7 238.15L269.41 231.96V231.95Z" fill="#FFD071"/>
<path d="M269.41 231.95L263.7 238.14C262.09 237.3 260.54 236.2 259.26 234.96L264.87 228.88C266.49 229.67 268.08 230.74 269.41 231.95Z" fill="#FFE59A"/>
<path d="M261.12 225.9C257.43 225.77 256.59 228.45 259.23 231.88C261.88 235.32 267.02 238.21 270.71 238.34C274.4 238.47 275.24 235.79 272.6 232.36C269.95 228.92 264.81 226.03 261.12 225.9Z" fill="#FFAD5D"/>
<path d="M261.34 227.59C259.62 228.29 260.51 230.75 263.33 233.08C266.15 235.41 269.83 236.74 271.55 236.04C273.27 235.34 272.38 232.88 269.56 230.55C266.74 228.22 263.06 226.89 261.34 227.59Z" fill="#FF7D56"/>
<path d="M261.28 227.78C259.64 228.45 260.49 230.79 263.17 233.01C265.85 235.23 269.36 236.49 271 235.83C272.64 235.16 271.79 232.82 269.11 230.6C266.43 228.38 262.92 227.12 261.28 227.78Z" fill="#FFAD5D"/>
<g style="mix-blend-mode:screen">
<path d="M266.02 227.54C266.09 227.46 266.16 227.4 266.24 227.33C268.69 228.52 271.08 230.34 272.62 232.34C274.2 234.39 274.54 236.18 273.76 237.25C272.35 236.9 270.83 236.22 269.43 235.23C265.91 232.76 264.39 229.32 266.02 227.54Z" fill="#AF4336"/>
</g>
<path d="M270.81 236.08L260.86 230.37L260.66 229.78L257.57 228.07L258.05 226.93L260.59 228.38L260.45 228.92L271.58 235.42L270.81 236.08Z" fill="#FFAF5E"/>
<path d="M265.59 234.65C265.59 234.65 261.16 231.85 260.45 228.93C260.45 228.93 260.41 232.39 265.59 234.65Z" fill="#FFE08B"/>
<path d="M273.42 237.65C273.42 237.65 270.87 240.83 262.49 235C262.49 235 270.03 239.83 273.42 237.65Z" fill="#FFE08B"/>
<path d="M12.1064 114.641L47.3464 124.391C54.8764 126.471 61.7064 121.311 62.5964 112.861L66.7864 73.2906C67.6764 64.8406 62.3064 56.3006 54.7764 54.2106L19.5364 44.4606C12.0064 42.3806 5.17643 47.5406 4.28643 55.9906L0.096427 95.5606C-0.793573 104.011 4.57642 112.551 12.1064 114.641Z" fill="url(#paint57_linear_320_421)"/>
<path d="M64.1465 61.8904C64.1765 62.1104 71.5465 64.7604 71.5465 64.7604L80.0965 58.8704L72.6965 55.1604L64.1465 61.9004V61.8904Z" fill="#F3B43F"/>
<path d="M55.6366 82.0105C56.6266 97.1005 47.5965 110.5 35.4666 111.93C23.3366 113.36 12.7066 102.28 11.7266 87.1905C10.7366 72.1005 19.7665 58.7005 31.8965 57.2705C44.0265 55.8405 54.6566 66.9205 55.6366 82.0105Z" fill="#FEF8FA"/>
<path d="M50.6065 82.6106C51.3665 94.2406 44.4065 104.571 35.0565 105.671C25.7065 106.771 17.5165 98.2406 16.7565 86.6006C15.9965 74.9606 22.9565 64.6406 32.3065 63.5406C41.6565 62.4406 49.8465 70.9706 50.6065 82.6106Z" fill="#FD645E"/>
<path d="M45.6463 83.1906C46.1863 91.4206 41.2663 98.7206 34.6563 99.4906C28.0463 100.271 22.2563 94.2306 21.7163 86.0106C21.1763 77.7906 26.0963 70.4806 32.7063 69.7106C39.3163 68.9306 45.1063 74.9706 45.6463 83.1906Z" fill="#FEF8FA"/>
<path d="M39.7367 83.8905C40.0067 88.0605 37.5167 91.7505 34.1667 92.1505C30.8167 92.5405 27.8867 89.4905 27.6167 85.3205C27.3467 81.1505 29.8367 77.4605 33.1867 77.0605C36.5367 76.6605 39.4667 79.7205 39.7367 83.8905Z" fill="#FD645E"/>
<path d="M33.0068 85.3305C32.5468 84.3805 32.7968 83.1305 33.5668 82.5405L74.5768 50.9205C75.3468 50.3305 76.3468 50.6205 76.8068 51.5705C77.2668 52.5205 77.0168 53.7705 76.2468 54.3605L35.2368 85.9805C34.4668 86.5705 33.4668 86.2805 33.0068 85.3305Z" fill="#FDC86C"/>
<path d="M63.6967 60.7205C63.5567 60.5905 64.6267 51.8805 64.6267 51.8805L72.5667 44.7705L72.2467 53.9705L63.6967 60.7105V60.7205Z" fill="#FDC86C"/>
<path d="M120.51 237.05L122.16 242.87L127.97 244.51L122.16 246.16L120.51 251.98L118.87 246.16L113.05 244.51L118.87 242.87L120.51 237.05Z" fill="#EEFBFA"/>
<path d="M259.55 202.38L261.2 208.2L267.01 209.84L261.2 211.49L259.55 217.3L257.9 211.49L252.09 209.84L257.9 208.2L259.55 202.38Z" fill="#EEFBFA"/>
<path d="M125.41 15.73L127.06 21.54L132.87 23.19L127.06 24.83L125.41 30.65L123.77 24.83L117.95 23.19L123.77 21.54L125.41 15.73Z" fill="#EEFBFA"/>
<path d="M293.84 74.5701L295.49 80.3801L301.3 82.0301L295.49 83.6801L293.84 89.4901L292.19 83.6801L286.38 82.0301L292.19 80.3801L293.84 74.5701Z" fill="#EEFBFA"/>
<path d="M235.23 23.1899L236.87 28.9999L242.69 30.6499L236.87 32.2899L235.23 38.1099L233.58 32.2899L227.77 30.6499L233.58 28.9999L235.23 23.1899Z" fill="#EEFBFA"/>
<path d="M35.47 74.5701L37.11 80.3801L42.93 82.0301L37.11 83.6801L35.47 89.4901L33.82 83.6801L28 82.0301L33.82 80.3801L35.47 74.5701Z" fill="#EEFBFA"/>
<path d="M164.4 162.21L164.98 164.25L167.02 164.82L164.98 165.4L164.4 167.44L163.82 165.4L161.79 164.82L163.82 164.25L164.4 162.21Z" fill="#EEFBFA"/>
<path d="M42.9301 139.38L43.5001 141.42L45.5401 142L43.5001 142.58L42.9301 144.61L42.3501 142.58L40.3101 142L42.3501 141.42L42.9301 139.38Z" fill="#EEFBFA"/>
<path d="M149.77 83.72L150.35 85.76L152.38 86.33L150.35 86.91L149.77 88.95L149.19 86.91L147.15 86.33L149.19 85.76L149.77 83.72Z" fill="#EEFBFA"/>
<path d="M171.81 49.1899L172.38 51.2299L174.42 51.7999L172.38 52.3799L171.81 54.4199L171.23 52.3799L169.19 51.7999L171.23 51.2299L171.81 49.1899Z" fill="#EEFBFA"/>
<path d="M313.98 11L314.56 13.04L316.6 13.62L314.56 14.19L313.98 16.23L313.41 14.19L311.37 13.62L313.41 13.04L313.98 11Z" fill="#EEFBFA"/>
<defs>
<linearGradient id="paint0_linear_320_421" x1="273.359" y1="19.2759" x2="236.225" y2="117.632" gradientUnits="userSpaceOnUse">
<stop stop-color="white"/>
<stop offset="1" stop-color="#D4F5F3"/>
</linearGradient>
<linearGradient id="paint1_linear_320_421" x1="332.547" y1="107.406" x2="383.327" y2="107.406" gradientUnits="userSpaceOnUse">
<stop stop-color="white"/>
<stop offset="1" stop-color="#D4F5F3"/>
</linearGradient>
<linearGradient id="paint2_linear_320_421" x1="234.19" y1="134.29" x2="234.69" y2="134.29" gradientUnits="userSpaceOnUse">
<stop stop-color="white"/>
<stop offset="1" stop-color="#D4F5F3"/>
</linearGradient>
<linearGradient id="paint3_linear_320_421" x1="234.19" y1="163.83" x2="234.69" y2="163.83" gradientUnits="userSpaceOnUse">
<stop stop-color="white"/>
<stop offset="1" stop-color="#D4F5F3"/>
</linearGradient>
<linearGradient id="paint4_linear_320_421" x1="133.445" y1="130.098" x2="84.9597" y2="86.7018" gradientUnits="userSpaceOnUse">
<stop stop-color="#0E2D4A"/>
<stop offset="1" stop-color="#0E4675"/>
</linearGradient>
<linearGradient id="paint5_linear_320_421" x1="158.577" y1="143.779" x2="104.386" y2="105.678" gradientUnits="userSpaceOnUse">
<stop stop-color="#0E2D4A"/>
<stop offset="1" stop-color="#0E4675"/>
</linearGradient>
<linearGradient id="paint6_linear_320_421" x1="154.263" y1="143.065" x2="147.973" y2="152.012" gradientUnits="userSpaceOnUse">
<stop stop-color="#08639A"/>
<stop offset="1" stop-color="#025D90"/>
</linearGradient>
<linearGradient id="paint7_linear_320_421" x1="138.825" y1="131.944" x2="132.627" y2="140.759" gradientUnits="userSpaceOnUse">
<stop stop-color="#08639A"/>
<stop offset="1" stop-color="#025D90"/>
</linearGradient>
<linearGradient id="paint8_linear_320_421" x1="118.864" y1="116.814" x2="112.415" y2="125.986" gradientUnits="userSpaceOnUse">
<stop stop-color="#08639A"/>
<stop offset="1" stop-color="#025D90"/>
</linearGradient>
<linearGradient id="paint9_linear_320_421" x1="105.608" y1="107.24" x2="99.2382" y2="116.3" gradientUnits="userSpaceOnUse">
<stop stop-color="#08639A"/>
<stop offset="1" stop-color="#025D90"/>
</linearGradient>
<linearGradient id="paint10_linear_320_421" x1="128.606" y1="133.644" x2="120.47" y2="127.924" gradientUnits="userSpaceOnUse">
<stop stop-color="#0E2D4A"/>
<stop offset="1" stop-color="#0E4675"/>
</linearGradient>
<linearGradient id="paint11_linear_320_421" x1="87.7622" y1="96.1811" x2="145.549" y2="117.941" gradientUnits="userSpaceOnUse">
<stop stop-color="#75C4D3"/>
<stop offset="1" stop-color="#209DBD"/>
</linearGradient>
<linearGradient id="paint12_linear_320_421" x1="154.263" y1="143.065" x2="147.973" y2="152.012" gradientUnits="userSpaceOnUse">
<stop stop-color="#08639A"/>
<stop offset="1" stop-color="#025D90"/>
</linearGradient>
<linearGradient id="paint13_linear_320_421" x1="138.825" y1="131.944" x2="132.627" y2="140.759" gradientUnits="userSpaceOnUse">
<stop stop-color="#08639A"/>
<stop offset="1" stop-color="#025D90"/>
</linearGradient>
<linearGradient id="paint14_linear_320_421" x1="118.864" y1="116.814" x2="112.415" y2="125.986" gradientUnits="userSpaceOnUse">
<stop stop-color="#08639A"/>
<stop offset="1" stop-color="#025D90"/>
</linearGradient>
<linearGradient id="paint15_linear_320_421" x1="105.608" y1="107.24" x2="99.2382" y2="116.3" gradientUnits="userSpaceOnUse">
<stop stop-color="#08639A"/>
<stop offset="1" stop-color="#025D90"/>
</linearGradient>
<linearGradient id="paint16_linear_320_421" x1="128.606" y1="133.644" x2="120.47" y2="127.924" gradientUnits="userSpaceOnUse">
<stop stop-color="#0E2D4A"/>
<stop offset="1" stop-color="#0E4675"/>
</linearGradient>
<linearGradient id="paint17_linear_320_421" x1="137.015" y1="125.555" x2="88.5291" y2="82.1587" gradientUnits="userSpaceOnUse">
<stop stop-color="#0E2D4A"/>
<stop offset="1" stop-color="#0E4675"/>
</linearGradient>
<linearGradient id="paint18_linear_320_421" x1="161.587" y1="138.88" x2="107.395" y2="100.78" gradientUnits="userSpaceOnUse">
<stop stop-color="#0E2D4A"/>
<stop offset="1" stop-color="#0E4675"/>
</linearGradient>
<linearGradient id="paint19_linear_320_421" x1="157.256" y1="138.169" x2="150.966" y2="147.116" gradientUnits="userSpaceOnUse">
<stop stop-color="#08639A"/>
<stop offset="1" stop-color="#025D90"/>
</linearGradient>
<linearGradient id="paint20_linear_320_421" x1="141.818" y1="127.048" x2="135.621" y2="135.863" gradientUnits="userSpaceOnUse">
<stop stop-color="#08639A"/>
<stop offset="1" stop-color="#025D90"/>
</linearGradient>
<linearGradient id="paint21_linear_320_421" x1="121.867" y1="111.924" x2="115.419" y2="121.097" gradientUnits="userSpaceOnUse">
<stop stop-color="#08639A"/>
<stop offset="1" stop-color="#025D90"/>
</linearGradient>
<linearGradient id="paint22_linear_320_421" x1="108.608" y1="102.335" x2="102.232" y2="111.404" gradientUnits="userSpaceOnUse">
<stop stop-color="#08639A"/>
<stop offset="1" stop-color="#025D90"/>
</linearGradient>
<linearGradient id="paint23_linear_320_421" x1="131.609" y1="128.755" x2="123.464" y2="123.028" gradientUnits="userSpaceOnUse">
<stop stop-color="#0E2D4A"/>
<stop offset="1" stop-color="#0E4675"/>
</linearGradient>
<linearGradient id="paint24_linear_320_421" x1="91.3314" y1="91.638" x2="149.103" y2="113.396" gradientUnits="userSpaceOnUse">
<stop stop-color="#75C4D3"/>
<stop offset="1" stop-color="#209DBD"/>
</linearGradient>
<linearGradient id="paint25_linear_320_421" x1="157.256" y1="138.169" x2="150.966" y2="147.116" gradientUnits="userSpaceOnUse">
<stop stop-color="#08639A"/>
<stop offset="1" stop-color="#025D90"/>
</linearGradient>
<linearGradient id="paint26_linear_320_421" x1="141.818" y1="127.048" x2="135.621" y2="135.863" gradientUnits="userSpaceOnUse">
<stop stop-color="#08639A"/>
<stop offset="1" stop-color="#025D90"/>
</linearGradient>
<linearGradient id="paint27_linear_320_421" x1="121.867" y1="111.924" x2="115.419" y2="121.097" gradientUnits="userSpaceOnUse">
<stop stop-color="#08639A"/>
<stop offset="1" stop-color="#025D90"/>
</linearGradient>
<linearGradient id="paint28_linear_320_421" x1="108.608" y1="102.335" x2="102.232" y2="111.404" gradientUnits="userSpaceOnUse">
<stop stop-color="#08639A"/>
<stop offset="1" stop-color="#025D90"/>
</linearGradient>
<linearGradient id="paint29_linear_320_421" x1="131.609" y1="128.755" x2="123.464" y2="123.028" gradientUnits="userSpaceOnUse">
<stop stop-color="#0E2D4A"/>
<stop offset="1" stop-color="#0E4675"/>
</linearGradient>
<linearGradient id="paint30_linear_320_421" x1="230.25" y1="17.4316" x2="196.001" y2="38.6335" gradientUnits="userSpaceOnUse">
<stop stop-color="#0E2D4A"/>
<stop offset="1" stop-color="#0E4675"/>
</linearGradient>
<linearGradient id="paint31_linear_320_421" x1="229.394" y1="17.3194" x2="197.308" y2="42.8321" gradientUnits="userSpaceOnUse">
<stop stop-color="#0E2D4A"/>
<stop offset="1" stop-color="#0E4675"/>
</linearGradient>
<linearGradient id="paint32_linear_320_421" x1="228.221" y1="19.7503" x2="232.437" y2="25.052" gradientUnits="userSpaceOnUse">
<stop stop-color="#08639A"/>
<stop offset="1" stop-color="#025D90"/>
</linearGradient>
<linearGradient id="paint33_linear_320_421" x1="218.916" y1="26.9882" x2="223.067" y2="32.2089" gradientUnits="userSpaceOnUse">
<stop stop-color="#08639A"/>
<stop offset="1" stop-color="#025D90"/>
</linearGradient>
<linearGradient id="paint34_linear_320_421" x1="206.445" y1="36.1843" x2="210.768" y2="41.621" gradientUnits="userSpaceOnUse">
<stop stop-color="#08639A"/>
<stop offset="1" stop-color="#025D90"/>
</linearGradient>
<linearGradient id="paint35_linear_320_421" x1="198.443" y1="42.3856" x2="202.709" y2="47.7503" gradientUnits="userSpaceOnUse">
<stop stop-color="#08639A"/>
<stop offset="1" stop-color="#025D90"/>
</linearGradient>
<linearGradient id="paint36_linear_320_421" x1="218.143" y1="33.3468" x2="213.321" y2="37.181" gradientUnits="userSpaceOnUse">
<stop stop-color="#0E2D4A"/>
<stop offset="1" stop-color="#0E4675"/>
</linearGradient>
<linearGradient id="paint37_linear_320_421" x1="202.123" y1="38.6231" x2="225.14" y2="8.12968" gradientUnits="userSpaceOnUse">
<stop stop-color="#75C4D3"/>
<stop offset="1" stop-color="#209DBD"/>
</linearGradient>
<linearGradient id="paint38_linear_320_421" x1="228.221" y1="19.7503" x2="232.437" y2="25.052" gradientUnits="userSpaceOnUse">
<stop stop-color="#08639A"/>
<stop offset="1" stop-color="#025D90"/>
</linearGradient>
<linearGradient id="paint39_linear_320_421" x1="218.916" y1="26.9882" x2="223.067" y2="32.2089" gradientUnits="userSpaceOnUse">
<stop stop-color="#08639A"/>
<stop offset="1" stop-color="#025D90"/>
</linearGradient>
<linearGradient id="paint40_linear_320_421" x1="206.445" y1="36.1843" x2="210.768" y2="41.621" gradientUnits="userSpaceOnUse">
<stop stop-color="#08639A"/>
<stop offset="1" stop-color="#025D90"/>
</linearGradient>
<linearGradient id="paint41_linear_320_421" x1="198.443" y1="42.3856" x2="202.709" y2="47.7503" gradientUnits="userSpaceOnUse">
<stop stop-color="#08639A"/>
<stop offset="1" stop-color="#025D90"/>
</linearGradient>
<linearGradient id="paint42_linear_320_421" x1="218.143" y1="33.3468" x2="213.321" y2="37.181" gradientUnits="userSpaceOnUse">
<stop stop-color="#0E2D4A"/>
<stop offset="1" stop-color="#0E4675"/>
</linearGradient>
<linearGradient id="paint43_linear_320_421" x1="228.167" y1="14.5236" x2="193.927" y2="35.7202" gradientUnits="userSpaceOnUse">
<stop stop-color="#0E2D4A"/>
<stop offset="1" stop-color="#0E4675"/>
</linearGradient>
<linearGradient id="paint44_linear_320_421" x1="227.015" y1="14.6851" x2="194.93" y2="40.1978" gradientUnits="userSpaceOnUse">
<stop stop-color="#0E2D4A"/>
<stop offset="1" stop-color="#0E4675"/>
</linearGradient>
<linearGradient id="paint45_linear_320_421" x1="225.834" y1="17.123" x2="230.05" y2="22.4247" gradientUnits="userSpaceOnUse">
<stop stop-color="#08639A"/>
<stop offset="1" stop-color="#025D90"/>
</linearGradient>
<linearGradient id="paint46_linear_320_421" x1="216.53" y1="24.3449" x2="220.682" y2="29.5657" gradientUnits="userSpaceOnUse">
<stop stop-color="#08639A"/>
<stop offset="1" stop-color="#025D90"/>
</linearGradient>
<linearGradient id="paint47_linear_320_421" x1="204.067" y1="33.5501" x2="208.383" y2="38.9778" gradientUnits="userSpaceOnUse">
<stop stop-color="#08639A"/>
<stop offset="1" stop-color="#025D90"/>
</linearGradient>
<linearGradient id="paint48_linear_320_421" x1="196.064" y1="39.7516" x2="200.33" y2="45.1163" gradientUnits="userSpaceOnUse">
<stop stop-color="#08639A"/>
<stop offset="1" stop-color="#025D90"/>
</linearGradient>
<linearGradient id="paint49_linear_320_421" x1="215.758" y1="30.7038" x2="210.936" y2="34.538" gradientUnits="userSpaceOnUse">
<stop stop-color="#0E2D4A"/>
<stop offset="1" stop-color="#0E4675"/>
</linearGradient>
<linearGradient id="paint50_linear_320_421" x1="200.049" y1="35.7098" x2="223.066" y2="5.21641" gradientUnits="userSpaceOnUse">
<stop stop-color="#75C4D3"/>
<stop offset="1" stop-color="#209DBD"/>
</linearGradient>
<linearGradient id="paint51_linear_320_421" x1="225.834" y1="17.123" x2="230.05" y2="22.4247" gradientUnits="userSpaceOnUse">
<stop stop-color="#08639A"/>
<stop offset="1" stop-color="#025D90"/>
</linearGradient>
<linearGradient id="paint52_linear_320_421" x1="216.53" y1="24.3449" x2="220.682" y2="29.5657" gradientUnits="userSpaceOnUse">
<stop stop-color="#08639A"/>
<stop offset="1" stop-color="#025D90"/>
</linearGradient>
<linearGradient id="paint53_linear_320_421" x1="204.067" y1="33.5501" x2="208.383" y2="38.9778" gradientUnits="userSpaceOnUse">
<stop stop-color="#08639A"/>
<stop offset="1" stop-color="#025D90"/>
</linearGradient>
<linearGradient id="paint54_linear_320_421" x1="196.064" y1="39.7516" x2="200.33" y2="45.1163" gradientUnits="userSpaceOnUse">
<stop stop-color="#08639A"/>
<stop offset="1" stop-color="#025D90"/>
</linearGradient>
<linearGradient id="paint55_linear_320_421" x1="215.758" y1="30.7038" x2="210.936" y2="34.538" gradientUnits="userSpaceOnUse">
<stop stop-color="#0E2D4A"/>
<stop offset="1" stop-color="#0E4675"/>
</linearGradient>
<linearGradient id="paint56_linear_320_421" x1="3" y1="290.83" x2="342.75" y2="290.83" gradientUnits="userSpaceOnUse">
<stop stop-color="#65DDD1"/>
<stop offset="1" stop-color="#55CAD1"/>
</linearGradient>
<linearGradient id="paint57_linear_320_421" x1="55.0264" y1="207.211" x2="24.1664" y2="31.7106" gradientUnits="userSpaceOnUse">
<stop stop-color="white"/>
<stop offset="1" stop-color="#D4F5F3"/>
</linearGradient>
</defs>
</svg>
