<svg width="345" height="305" viewBox="0 0 345 305" fill="none" xmlns="http://www.w3.org/2000/svg">
<g style="mix-blend-mode:multiply">
<path d="M253.873 290.336C253.873 298.435 215.974 305 169.218 305C122.461 305 84.562 298.435 84.562 290.336C84.562 282.236 122.461 275.671 169.218 275.671C215.974 275.671 253.873 282.236 253.873 290.336Z" fill="#C6C6C6"/>
</g>
<path d="M62.9579 72.3324H274.946C280.107 72.3324 284.3 76.5259 284.3 81.6872V233.326C284.3 238.487 280.107 242.681 274.946 242.681H62.9666C57.8054 242.681 53.6118 238.487 53.6118 233.326V81.6872C53.6118 76.5259 57.8054 72.3324 62.9666 72.3324H62.9579Z" fill="white"/>
<path d="M66.3143 77.0316H271.589C276.584 77.0316 280.647 81.0857 280.647 86.09V228.923C280.647 233.919 276.593 237.982 271.589 237.982H66.3143C61.3186 237.982 57.2559 233.919 57.2559 228.923V86.0987C57.2559 81.1031 61.3099 77.0403 66.3143 77.0403V77.0316Z" fill="#373E48"/>
<path d="M78.904 90.1876H259.017C262.958 90.1876 266.166 93.3873 266.166 97.3367V217.668C266.166 221.617 262.967 224.817 259.017 224.817H78.904C74.9632 224.817 71.7549 221.617 71.7549 217.668V97.3367C71.7549 93.396 74.9545 90.1876 78.904 90.1876Z" fill="white"/>
<g style="mix-blend-mode:multiply">
<path d="M168.956 72.3324H62.9579C57.7878 72.3324 53.603 76.5172 53.603 81.6872V233.326C53.603 238.496 57.7878 242.681 62.9579 242.681H168.956V72.3324Z" fill="#F8F7F7"/>
</g>
<path d="M200.334 242.672H137.579V270.911H200.334V242.672Z" fill="#9F9F9F"/>
<g style="mix-blend-mode:multiply">
<path d="M168.956 242.672H137.579V270.911H168.956V242.672Z" fill="#C6C6C6"/>
</g>
<path d="M137.579 270.911L117.884 280.432H223.437L200.334 270.911H137.579Z" fill="#C6C6C6"/>
<path d="M223.446 280.432H117.884V287.049H223.446V280.432Z" fill="#7E7E7D"/>
<g style="mix-blend-mode:multiply">
<path d="M334.98 132.123H334.666C313.097 122.603 291.519 113.082 269.95 103.562H73.7162C52.5392 113.082 31.3797 122.603 10.2114 132.123C10.2114 132.123 10.2114 132.193 10.2114 132.228V134.808C10.2114 137.999 15.146 140.589 21.2315 140.589H26.1486C32.2341 140.589 37.1687 137.999 37.1687 134.808V132.228C37.1687 132.228 37.16 132.158 37.1512 132.123H37.2559C37.2559 132.123 37.2559 132.193 37.2559 132.228V134.808C37.2559 137.999 42.1905 140.589 48.2759 140.589H53.1931C59.2785 140.589 64.2131 137.999 64.2131 134.808V132.228C64.2131 132.228 64.2131 132.158 64.2131 132.123H64.3962C64.3962 132.123 64.3875 132.193 64.3875 132.228V134.808C64.3875 137.999 69.3221 140.589 75.4075 140.589H80.3334C86.4188 140.589 91.3535 137.999 91.3535 134.808V132.228C91.3535 132.228 91.3535 132.158 91.3535 132.123H91.4494C91.4494 132.123 91.4406 132.193 91.4406 132.228V134.808C91.4406 137.999 96.3753 140.589 102.461 140.589H107.378C113.463 140.589 118.398 137.999 118.398 134.808V132.228C118.398 132.228 118.389 132.158 118.389 132.123H118.572C118.572 132.123 118.564 132.193 118.564 132.228V134.808C118.564 137.999 123.498 140.589 129.584 140.589H134.501C140.586 140.589 145.521 137.999 145.521 134.808V132.228C145.521 132.228 145.521 132.158 145.521 132.123H145.625C145.625 132.123 145.608 132.193 145.608 132.228V134.808C145.608 137.999 150.543 140.589 156.628 140.589H161.545C167.631 140.589 172.565 137.999 172.565 134.808V132.228C172.565 132.228 172.557 132.158 172.557 132.123H172.74C172.74 132.123 172.74 132.193 172.74 132.228V134.808C172.74 137.999 177.674 140.589 183.76 140.589H188.677C194.762 140.589 199.697 137.999 199.697 134.808V132.228C199.697 132.228 199.697 132.158 199.688 132.123H199.784C199.784 132.123 199.784 132.193 199.784 132.228V134.808C199.784 137.999 204.719 140.589 210.804 140.589H215.721C221.807 140.589 226.741 137.999 226.741 134.808V132.228C226.741 132.228 226.741 132.158 226.741 132.123H226.924C226.924 132.123 226.916 132.193 226.916 132.228V134.808C226.916 137.999 231.85 140.589 237.936 140.589H242.853C248.938 140.589 253.873 137.999 253.873 134.808V132.228C253.873 132.228 253.864 132.158 253.864 132.123H253.969C253.969 132.123 253.969 132.193 253.969 132.228V134.808C253.969 137.999 258.903 140.589 264.989 140.589H269.906C275.991 140.589 280.926 137.999 280.926 134.808V132.228C280.926 132.228 280.917 132.158 280.917 132.123H281.1C281.1 132.123 281.1 132.193 281.1 132.228V134.808C281.1 137.999 286.035 140.589 292.121 140.589H297.038C303.123 140.589 308.058 137.999 308.058 134.808V132.228C308.058 132.228 308.058 132.158 308.058 132.123H308.162C308.162 132.123 308.145 132.193 308.145 132.228V134.808C308.145 137.999 313.079 140.589 319.165 140.589H324.082C330.168 140.589 335.102 137.999 335.102 134.808V132.228C335.102 132.228 335.102 132.158 335.093 132.123H334.98Z" fill="#B2B2B2"/>
</g>
<path d="M10.2202 127.502C10.2202 127.502 10.2202 127.572 10.2202 127.607V130.188C10.2202 133.379 15.1548 135.968 21.2403 135.968H26.1574C32.2429 135.968 37.1775 133.379 37.1775 130.188V127.607C37.1775 127.607 37.1688 127.537 37.16 127.502H10.2289H10.2202Z" fill="#831D11"/>
<path d="M37.2471 127.502C37.2471 127.502 37.2471 127.572 37.2471 127.607V130.188C37.2471 133.379 42.1817 135.968 48.2671 135.968H53.1843C59.2697 135.968 64.2043 133.379 64.2043 130.188V127.607C64.2043 127.607 64.2043 127.537 64.2043 127.502H37.2645H37.2471Z" fill="#C2685B"/>
<path d="M64.37 127.502C64.37 127.502 64.3613 127.572 64.3613 127.607V130.188C64.3613 133.379 69.2959 135.968 75.3814 135.968H80.3073C86.3927 135.968 91.3273 133.379 91.3273 130.188V127.607C91.3273 127.607 91.3273 127.537 91.3273 127.502H64.3875H64.37Z" fill="#831D11"/>
<path d="M308.049 127.502C308.049 127.502 308.032 127.572 308.032 127.607V130.188C308.032 133.379 312.966 135.968 319.052 135.968H323.969C330.054 135.968 334.989 133.379 334.989 130.188V127.607C334.989 127.607 334.989 127.537 334.98 127.502H308.049Z" fill="#C2685B"/>
<path d="M37.2471 127.502H10.2114C31.3797 117.982 52.5479 108.461 73.7162 98.9409H90.0719C72.4607 108.461 54.8583 117.982 37.2471 127.502Z" fill="#D42A26"/>
<path d="M64.2828 127.502H37.2471C54.8582 117.982 72.4606 108.461 90.0718 98.9409H106.427C92.3734 108.461 78.3368 117.982 64.2915 127.502H64.2828Z" fill="#EF7E6F"/>
<path d="M91.3184 127.502H64.2827C78.328 117.982 92.3734 108.461 106.419 98.9409H122.766C112.286 108.461 101.798 117.982 91.3097 127.502H91.3184Z" fill="#D42A26"/>
<path d="M118.354 127.502H91.3101C101.798 117.982 112.278 108.461 122.766 98.9409H139.122C132.191 108.461 125.277 117.982 118.354 127.502Z" fill="#EF7E6F"/>
<path d="M145.399 127.502H118.363C125.285 117.982 132.208 108.461 139.13 98.9409H155.486C152.129 108.461 148.764 117.982 145.407 127.502H145.399Z" fill="#D42A26"/>
<path d="M172.435 127.502H145.39C148.747 117.982 152.112 108.461 155.469 98.9409H171.816C172.025 108.461 172.225 117.982 172.426 127.502H172.435Z" fill="#EF7E6F"/>
<path d="M199.479 127.502H172.443C172.243 117.982 172.042 108.461 171.833 98.9409H188.189C191.946 108.461 195.721 117.982 199.479 127.502Z" fill="#D42A26"/>
<path d="M226.515 127.502H199.479C195.721 117.982 191.946 108.461 188.188 98.9409H204.544C211.876 108.461 219.2 117.982 226.523 127.502H226.515Z" fill="#EF7E6F"/>
<path d="M253.55 127.502H226.506C219.182 117.982 211.859 108.461 204.527 98.9409H220.874C231.763 108.461 242.661 117.982 253.542 127.502H253.55Z" fill="#D42A26"/>
<path d="M280.595 127.502H253.559C242.678 117.982 231.789 108.461 220.891 98.9409H237.247C251.693 108.461 266.148 117.982 280.595 127.502Z" fill="#EF7E6F"/>
<path d="M307.631 127.502H280.595C266.149 117.982 251.693 108.461 237.247 98.9409H253.603C271.615 108.461 289.627 117.982 307.639 127.502H307.631Z" fill="#D42A26"/>
<path d="M334.666 127.502H307.63C289.618 117.982 271.606 108.461 253.594 98.9409H269.941C291.519 108.461 313.088 117.982 334.657 127.502H334.666Z" fill="#EF7E6F"/>
<path d="M91.4145 127.502C91.4145 127.502 91.4058 127.572 91.4058 127.607V130.188C91.4058 133.379 96.3404 135.968 102.426 135.968H107.343C113.428 135.968 118.363 133.379 118.363 130.188V127.607C118.363 127.607 118.354 127.537 118.354 127.502H91.4232H91.4145Z" fill="#C2685B"/>
<path d="M118.529 127.502C118.529 127.502 118.52 127.572 118.52 127.607V130.188C118.52 133.379 123.455 135.968 129.54 135.968H134.457C140.543 135.968 145.477 133.379 145.477 130.188V127.607C145.477 127.607 145.477 127.537 145.477 127.502H118.537H118.529Z" fill="#831D11"/>
<path d="M145.573 127.502C145.573 127.502 145.556 127.572 145.556 127.607V130.188C145.556 133.379 150.49 135.968 156.576 135.968H161.493C167.578 135.968 172.513 133.379 172.513 130.188V127.607C172.513 127.607 172.504 127.537 172.504 127.502H145.573Z" fill="#C2685B"/>
<path d="M172.688 127.502C172.688 127.502 172.688 127.572 172.688 127.607V130.188C172.688 133.379 177.622 135.968 183.708 135.968H188.625C194.71 135.968 199.645 133.379 199.645 130.188V127.607C199.645 127.607 199.645 127.537 199.636 127.502H172.696H172.688Z" fill="#831D11"/>
<path d="M199.723 127.502C199.723 127.502 199.723 127.572 199.723 127.607V130.188C199.723 133.379 204.658 135.968 210.743 135.968H215.66C221.746 135.968 226.68 133.379 226.68 130.188V127.607C226.68 127.607 226.68 127.537 226.68 127.502H199.741H199.723Z" fill="#C2685B"/>
<path d="M226.846 127.502C226.846 127.502 226.837 127.572 226.837 127.607V130.188C226.837 133.379 231.772 135.968 237.857 135.968H242.774C248.86 135.968 253.794 133.379 253.794 130.188V127.607C253.794 127.607 253.785 127.537 253.785 127.502H226.854H226.846Z" fill="#831D11"/>
<path d="M253.882 127.502C253.882 127.502 253.882 127.572 253.882 127.607V130.188C253.882 133.379 258.816 135.968 264.902 135.968H269.819C275.904 135.968 280.839 133.379 280.839 130.188V127.607C280.839 127.607 280.83 127.537 280.83 127.502H253.891H253.882Z" fill="#C2685B"/>
<path d="M281.004 127.502C281.004 127.502 281.004 127.572 281.004 127.607V130.188C281.004 133.379 285.939 135.968 292.024 135.968H296.942C303.027 135.968 307.962 133.379 307.962 130.188V127.607C307.962 127.607 307.962 127.537 307.962 127.502H281.022H281.004Z" fill="#831D11"/>
<path d="M270.037 86.866H70.4292V98.9409H270.037V86.866Z" fill="#831D11"/>
<g style="mix-blend-mode:multiply">
<path d="M270.037 92.9078H70.4292V98.941H270.037V92.9078Z" fill="#B2B2B2"/>
</g>
<path d="M342.451 150.868H319.932C318.711 150.868 317.717 151.853 317.717 153.073V195.898C317.717 197.119 318.702 198.112 319.932 198.112H342.451C343.672 198.112 344.666 197.119 344.666 195.898V153.073C344.666 151.853 343.681 150.868 342.451 150.868ZM334.125 152.664C334.352 152.664 334.544 152.847 334.544 153.073C334.544 153.3 334.361 153.492 334.125 153.492C333.89 153.492 333.716 153.309 333.716 153.073C333.716 152.838 333.899 152.664 334.125 152.664ZM328.118 152.803H332.818C332.966 152.803 333.097 152.925 333.097 153.082C333.097 153.239 332.974 153.361 332.818 153.361H328.118C327.961 153.361 327.839 153.239 327.839 153.082C327.839 152.925 327.961 152.803 328.118 152.803ZM334.064 195.392V195.767C334.064 195.968 333.899 196.125 333.707 196.125H328.676C328.476 196.125 328.319 195.959 328.319 195.767V194.922C328.319 194.721 328.484 194.564 328.676 194.564H333.707C333.907 194.564 334.064 194.721 334.064 194.922V195.392ZM343.166 191.452C343.166 192.533 342.286 193.413 341.205 193.413H321.196C320.106 193.413 319.234 192.533 319.234 191.452V156.84C319.234 155.75 320.115 154.878 321.196 154.878H341.205C342.294 154.878 343.166 155.759 343.166 156.84V191.452Z" fill="white"/>
<path d="M19.3044 168.575C8.93822 168.575 0.533691 175.549 0.533691 184.163C0.533691 189.115 3.31486 193.518 7.65661 196.378C7.92688 197.947 7.86586 200.1 6.64528 202.611C6.64528 202.611 12.3122 202.829 15.4247 199.412C16.6801 199.629 17.9792 199.752 19.3131 199.752C29.6793 199.752 38.0925 192.777 38.0925 184.163C38.0925 175.549 29.688 168.575 19.3131 168.575H19.3044ZM31.1875 189.987C31.1875 189.987 31.1875 189.987 31.1701 189.996C31.0916 190.065 31.0045 190.126 30.9086 190.161C30.9086 190.161 30.8911 190.161 30.8824 190.161C30.7778 190.196 30.6732 190.222 30.5598 190.222H9.60081C9.48748 190.222 9.38286 190.196 9.27823 190.161H9.2608C9.1649 190.126 9.06899 190.065 8.99053 189.996C8.99053 189.996 8.99053 189.996 8.98181 189.987C8.90334 189.917 8.8336 189.83 8.78129 189.734C8.71154 189.603 8.67667 189.464 8.67667 189.307C8.67667 188.793 9.09515 188.383 9.60081 188.383H30.5598C31.0742 188.383 31.484 188.801 31.484 189.307C31.484 189.464 31.4404 189.603 31.3793 189.734C31.327 189.83 31.266 189.917 31.1875 189.987ZM31.3881 185.096C31.3358 185.192 31.2747 185.279 31.1963 185.357C31.1963 185.357 31.1963 185.357 31.1788 185.366C31.1004 185.436 31.0132 185.488 30.9173 185.532C30.9173 185.532 30.8998 185.532 30.8911 185.532C30.7865 185.567 30.6819 185.593 30.5685 185.593H9.60953C9.49619 185.593 9.39157 185.567 9.28695 185.532H9.26952C9.17361 185.497 9.07771 185.436 8.99925 185.366C8.99925 185.366 8.99925 185.366 8.99053 185.366C8.91206 185.296 8.84231 185.209 8.79 185.113C8.72026 184.983 8.68538 184.843 8.68538 184.686C8.68538 184.172 9.10387 183.762 9.60953 183.762H30.5685C31.0829 183.762 31.4927 184.18 31.4927 184.686C31.4927 184.843 31.4491 184.983 31.3881 185.113V185.096ZM31.3881 180.449C31.3358 180.545 31.2747 180.632 31.1963 180.711C31.1963 180.711 31.1963 180.711 31.1788 180.711C31.1004 180.78 31.0132 180.841 30.9173 180.876H30.8998C30.7952 180.911 30.6906 180.937 30.5773 180.937H9.61825C9.50491 180.937 9.40029 180.911 9.29567 180.876H9.27823C9.18233 180.841 9.08643 180.78 9.00796 180.711C9.00796 180.711 9.00797 180.711 8.99925 180.711C8.92078 180.641 8.85103 180.545 8.79872 180.449C8.72898 180.318 8.6941 180.179 8.6941 180.022C8.6941 179.507 9.11259 179.098 9.61825 179.098H30.5773C31.0916 179.098 31.5014 179.516 31.5014 180.022C31.5014 180.179 31.4578 180.318 31.3968 180.449H31.3881Z" fill="white"/>
<path d="M56.8373 62.0622L28.7989 58.7753C28.3456 58.723 27.9358 59.0456 27.8835 59.499C27.8312 59.9523 28.1538 60.3621 28.6071 60.4144L56.6454 63.7012C56.7501 63.7099 59.261 64.05 59.1912 66.4562C59.1912 66.4911 59.1912 66.5173 59.1912 66.5521C59.1912 66.587 59.261 67.5373 58.5286 68.2522C57.805 68.9671 56.4711 69.2548 54.6751 69.0892C54.6489 69.0892 54.6228 69.0892 54.6053 69.0892L29.5487 69.1415C29.0953 69.1415 28.7205 69.5077 28.7205 69.9697C28.7205 70.4231 29.0866 70.798 29.5487 70.798L54.5705 70.7457C54.9366 70.7806 55.2941 70.798 55.6341 70.798C57.4388 70.798 58.8076 70.3359 59.7318 69.4118C60.8739 68.2609 60.8739 66.805 60.8564 66.4737C60.9262 63.3786 58.2758 62.2365 56.8547 62.0622H56.8373Z" fill="white"/>
<path d="M31.7367 70.9635C30.5335 70.9635 29.5483 71.94 29.5483 73.1518C29.5483 74.3637 30.5335 75.3401 31.7367 75.3401C32.9398 75.3401 33.925 74.3637 33.925 73.1518C33.925 71.94 32.9485 70.9635 31.7367 70.9635ZM31.7367 74.2765C31.1176 74.2765 30.612 73.7708 30.612 73.1518C30.612 72.5328 31.1176 72.0271 31.7367 72.0271C32.3557 72.0271 32.8613 72.5328 32.8613 73.1518C32.8613 73.7708 32.3557 74.2765 31.7367 74.2765Z" fill="white"/>
<path d="M55.1981 70.9635C53.9949 70.9635 53.0098 71.94 53.0098 73.1518C53.0098 74.3637 53.9862 75.3401 55.1981 75.3401C56.4099 75.3401 57.3864 74.3637 57.3864 73.1518C57.3864 71.94 56.4012 70.9635 55.1981 70.9635ZM55.1981 74.2765C54.5791 74.2765 54.0734 73.7708 54.0734 73.1518C54.0734 72.5328 54.5791 72.0271 55.1981 72.0271C55.8171 72.0271 56.3228 72.5328 56.3228 73.1518C56.3228 73.7708 55.8171 74.2765 55.1981 74.2765Z" fill="white"/>
<path d="M70.4377 28.5835H63.7071C63.2363 28.5835 62.8527 28.9584 62.8352 29.4292H62.7219C61.8152 29.4902 61.3008 29.9 61.0131 30.24C60.4202 30.9462 60.4377 31.8616 60.4551 32.1493L60.2023 36.0116L26.436 44.3027V53.1345C26.3837 53.6489 26.1744 57.3019 30.7952 58.3568L60.2197 61.3908L60.9957 49.1502H61.0044V49.0717L61.8501 35.6105L61.7367 35.6367L61.9634 32.1929V32.1319V32.0621C61.946 31.9139 61.9634 31.4606 62.1814 31.199C62.225 31.138 62.3732 30.9723 62.8004 30.9375H62.8352C62.8527 31.4083 63.2363 31.7831 63.7071 31.7831H70.4377C70.9259 31.7831 71.3182 31.3908 71.3182 30.9026V29.4641C71.3182 28.9758 70.9259 28.5835 70.4377 28.5835ZM31.6321 54.8258L36.2267 54.9828V57.7203L31.6321 57.2496V54.8258ZM27.6217 49.1153L30.4552 48.5922V50.2487L27.6217 50.4579V49.1153ZM42.1029 49.3681L37.5083 49.7169V47.2757L42.1029 46.4213V49.3681ZM43.4543 46.1685L47.9791 45.3315V48.9322L43.4543 49.2722V46.1772V46.1685ZM42.1029 50.5538V54.0063L37.5083 53.8494V50.9026L42.1029 50.5538ZM43.4543 50.4579L47.9791 50.1179V54.2156L43.4543 54.0586V50.4579ZM49.4002 50.0133L54.4394 49.6297V54.4335L49.4002 54.2592V50.0046V50.0133ZM55.9477 49.5163L59.3392 49.2635L58.9904 54.5992L55.9477 54.4945V49.5251V49.5163ZM55.9477 48.3306V43.8494L59.7402 43.1519L59.4176 48.0778L55.9477 48.3394V48.3306ZM54.4394 48.444L49.4002 48.8189V45.0613L54.4394 44.1284V48.444ZM49.4002 43.8668V39.8825L54.4394 38.6445V42.934L49.4002 43.8668ZM47.9791 44.1284L43.4543 44.9653V41.3298L47.9791 40.2138V44.1197V44.1284ZM42.1029 45.2182L37.5083 46.0726V42.7945L42.1029 41.6611V45.2095V45.2182ZM36.2267 46.308L31.6321 47.1624V44.2417L36.2267 43.117V46.3167V46.308ZM36.2267 47.5111V49.8041L31.6321 50.1528V48.3655L36.2267 47.5111ZM27.613 53.2478V53.2042V51.6436L30.4464 51.4344V53.6053L27.5868 53.5094C27.5868 53.3699 27.6042 53.274 27.6042 53.2565L27.613 53.2478ZM31.6321 51.3472L36.2267 50.9985V53.8058L31.6321 53.6489V51.3472ZM37.4996 55.0351L42.0942 55.192V58.3306L37.4996 57.8598V55.0351ZM43.4543 55.2356L47.9791 55.3925V58.9322L43.4543 58.4701V55.2356ZM49.4002 55.4449L54.4394 55.6192V59.5948L49.4002 59.0717V55.4361V55.4449ZM55.9477 55.6715L58.912 55.7761L58.6417 60.0307L55.9477 59.7517V55.6715ZM59.8187 41.9314L55.9477 42.6463V38.2696L60.1151 37.2409L59.81 41.9314H59.8187ZM30.4552 44.5294V47.3803L27.6217 47.9034V45.2182L30.4552 44.5207V44.5294ZM27.7873 54.6951L30.4464 54.791V57.0229C28.7812 56.4823 28.075 55.5146 27.7873 54.6951Z" fill="white"/>
<path d="M282.269 33.7361L279.147 35.1397H289.191C289.174 35.0787 289.165 35.0264 289.165 34.9567C289.165 34.5382 289.505 34.1982 289.923 34.1982C290.342 34.1982 290.673 34.5382 290.673 34.9567C290.673 35.0177 290.664 35.0787 290.647 35.1397H298.371C298.354 35.0787 298.345 35.0264 298.345 34.9567C298.345 34.5382 298.685 34.1982 299.095 34.1982C299.505 34.1982 299.854 34.5382 299.854 34.9567C299.854 35.0177 299.845 35.0787 299.827 35.1397H307.343L309.06 33.7361H282.269Z" fill="white"/>
<path d="M299.313 34.9914L298.886 34.913C299.235 32.9775 298.964 31.4779 298.084 30.4579C296.776 28.9496 294.535 29.0106 294.509 29.0106C293.001 29.0542 291.85 29.5512 291.1 30.4666C289.688 32.1928 290.115 34.8868 290.124 34.913L289.697 34.9827C289.671 34.8694 289.226 32.0708 290.769 30.1963C291.606 29.1763 292.853 28.6357 294.501 28.5834C294.596 28.5834 296.968 28.5137 298.406 30.1702C299.383 31.2948 299.679 32.9077 299.313 34.9914Z" fill="white"/>
<path d="M306.741 70.3882L310.002 67.7901L309.06 34.3376L307.831 35.3403L306.741 70.3882Z" fill="white"/>
<path d="M279.147 35.7412V70.3968H305.948L307.351 35.7412H279.156H279.147ZM288.65 38.4788C288.232 38.4788 287.892 38.1388 287.892 37.729C287.892 37.3192 288.232 36.9792 288.65 36.9792C289.069 36.9792 289.4 37.3192 289.4 37.729C289.4 38.1388 289.06 38.4788 288.65 38.4788ZM297.84 38.4788C297.421 38.4788 297.09 38.1388 297.09 37.729C297.09 37.3192 297.43 36.9792 297.84 36.9792C298.249 36.9792 298.589 37.3192 298.589 37.729C298.589 38.1388 298.249 38.4788 297.84 38.4788Z" fill="white"/>
<path d="M298.049 37.764L297.631 37.6856C297.979 35.7414 297.709 34.2418 296.829 33.2305C295.521 31.7222 293.28 31.7832 293.254 31.7832C291.746 31.8355 290.595 32.3238 289.845 33.2392C288.433 34.9654 288.86 37.6594 288.869 37.6856L288.441 37.7553C288.424 37.6333 287.971 34.8434 289.514 32.9689C290.351 31.9489 291.598 31.4083 293.245 31.356C293.341 31.356 295.713 31.2863 297.151 32.9428C298.128 34.0587 298.424 35.6803 298.049 37.764Z" fill="white"/>
<path d="M166.174 6.25571C165.799 6.06391 165.486 5.81107 165.268 5.51465C165.547 6.27315 166.148 6.87472 166.907 7.15371C166.61 6.93575 166.357 6.6306 166.166 6.24699L166.174 6.25571Z" fill="white"/>
<path d="M166.174 2.88169C166.366 2.49808 166.619 2.19294 166.915 1.97498C166.157 2.25396 165.555 2.85553 165.276 3.61403C165.486 3.3176 165.799 3.06477 166.183 2.87297L166.174 2.88169Z" fill="white"/>
<path d="M168.615 3.81456C169.017 3.84072 169.4 3.89303 169.731 3.96278C169.679 3.61404 169.575 3.28274 169.435 2.99503C169.147 2.85554 168.816 2.75092 168.467 2.69861C168.537 3.02991 168.589 3.41352 168.615 3.81456Z" fill="white"/>
<path d="M168.153 1.84412C168.267 2.00105 168.354 2.24516 168.432 2.54159C168.755 2.58518 169.051 2.67236 169.322 2.77698C169.025 2.28875 168.624 1.94874 168.153 1.84412Z" fill="white"/>
<path d="M169.653 3.11707C169.767 3.38734 169.845 3.68376 169.897 4.00634C170.194 4.08481 170.438 4.17199 170.595 4.28533C170.49 3.82326 170.15 3.41349 169.662 3.11707H169.653Z" fill="white"/>
<path d="M170.595 4.86072C170.438 4.97406 170.194 5.06124 169.897 5.13971C169.854 5.45357 169.767 5.75871 169.653 6.02898C170.142 5.74128 170.49 5.32279 170.586 4.86072H170.595Z" fill="white"/>
<path d="M174.221 12.1057H173.594C173.594 12.1057 173.585 12.1057 173.576 12.1057C173.855 12.4893 174.082 12.8032 174.37 13.1955V12.2539C174.37 12.1755 174.3 12.1057 174.23 12.1057H174.221Z" fill="white"/>
<path d="M173.445 13.1867C173.445 13.2652 173.506 13.3349 173.585 13.3349H174.195C173.942 12.9949 173.689 12.6462 173.445 12.3062V13.1867Z" fill="white"/>
<path d="M172.661 9.80408H173.132C173.132 9.80408 173.202 9.83895 173.202 9.87382V10.3533C173.202 10.3533 173.167 10.4231 173.132 10.4231H172.661C172.661 10.4231 172.591 10.3882 172.591 10.3533V9.88254C172.591 9.88254 172.626 9.81279 172.661 9.81279V9.80408Z" fill="white"/>
<path d="M169.548 6.25571C169.356 6.6306 169.104 6.94446 168.807 7.16242C169.566 6.88343 170.176 6.28187 170.455 5.51465C170.237 5.81107 169.932 6.06391 169.548 6.25571Z" fill="white"/>
<path d="M172.67 12.1057H172.042H172.024C172.303 12.4893 172.53 12.8032 172.818 13.1955V12.2539C172.818 12.1755 172.748 12.1057 172.678 12.1057H172.67Z" fill="white"/>
<path d="M168.615 5.32289C168.589 5.72394 168.537 6.10755 168.467 6.43885C168.825 6.38654 169.147 6.28192 169.435 6.14242C169.575 5.85472 169.679 5.52342 169.731 5.17468C169.4 5.24443 169.017 5.29674 168.615 5.32289Z" fill="white"/>
<path d="M171.894 13.1867C171.894 13.2652 171.955 13.3349 172.033 13.3349H172.643C172.399 12.9949 172.138 12.6462 171.894 12.3062V13.1867Z" fill="white"/>
<path d="M168.807 1.97498C169.104 2.19294 169.356 2.49808 169.548 2.88169C169.932 3.07349 170.237 3.32633 170.455 3.62275C170.176 2.86425 169.574 2.25396 168.807 1.97498Z" fill="white"/>
<path d="M169.915 4.172C169.932 4.30277 169.941 4.43355 169.941 4.57305C169.941 4.71254 169.941 4.84331 169.915 4.97409C170.377 4.85203 170.629 4.70382 170.629 4.57305C170.629 4.44227 170.377 4.29405 169.915 4.172Z" fill="white"/>
<path d="M167.264 5.33154C167.299 5.77618 167.351 6.15107 167.421 6.45622C167.569 6.47365 167.709 6.48237 167.866 6.48237C168.023 6.48237 168.162 6.47365 168.31 6.45622C168.38 6.15107 168.432 5.76746 168.467 5.33154C168.267 5.34026 168.066 5.34898 167.866 5.34898C167.665 5.34898 167.465 5.34898 167.264 5.33154Z" fill="white"/>
<path d="M167.081 4.57301C167.081 4.37248 167.081 4.17196 167.099 3.97144C166.654 4.00631 166.27 4.05862 165.974 4.12837C165.956 4.26786 165.948 4.41608 165.948 4.57301C165.948 4.72994 165.956 4.86943 165.974 5.00893C166.279 5.07867 166.663 5.13098 167.099 5.16586C167.09 4.96533 167.081 4.76481 167.081 4.57301Z" fill="white"/>
<path d="M167.866 2.65503C167.718 2.65503 167.569 2.66375 167.421 2.68118C167.351 2.98633 167.299 3.36994 167.264 3.80586C167.465 3.79714 167.665 3.78842 167.866 3.78842C168.066 3.78842 168.267 3.78842 168.467 3.80586C168.432 3.36122 168.38 2.97761 168.31 2.68118C168.162 2.66375 168.023 2.65503 167.866 2.65503Z" fill="white"/>
<path d="M169.322 6.36902C169.051 6.48236 168.755 6.56083 168.432 6.61314C168.363 6.90956 168.267 7.15368 168.153 7.31061C168.615 7.20599 169.025 6.86597 169.322 6.37774V6.36902Z" fill="white"/>
<path d="M167.256 3.96275C167.247 4.15455 167.238 4.35508 167.238 4.57304C167.238 4.791 167.238 4.9828 167.256 5.18332C167.448 5.19204 167.648 5.20076 167.866 5.20076C168.084 5.20076 168.284 5.20076 168.476 5.18332C168.485 4.99152 168.494 4.791 168.494 4.57304C168.494 4.35508 168.494 4.15455 168.476 3.96275C168.284 3.95403 168.084 3.94531 167.866 3.94531C167.648 3.94531 167.448 3.94531 167.256 3.96275Z" fill="white"/>
<path d="M167.456 2.52423C167.587 2.5068 167.718 2.49808 167.857 2.49808C167.997 2.49808 168.127 2.49808 168.258 2.52423C168.136 2.06216 167.988 1.80933 167.857 1.80933C167.726 1.80933 167.578 2.06216 167.456 2.52423Z" fill="white"/>
<path d="M166.401 2.77704C166.671 2.6637 166.976 2.58523 167.29 2.53292C167.369 2.2365 167.456 1.99238 167.569 1.83545C167.098 1.94007 166.697 2.28009 166.401 2.76832V2.77704Z" fill="white"/>
<path d="M168.641 4.57301C168.641 4.77353 168.641 4.97405 168.624 5.16586C169.069 5.13098 169.452 5.07867 169.757 5.00893C169.775 4.86943 169.784 4.72122 169.784 4.57301C169.784 4.42479 169.775 4.27658 169.757 4.12837C169.452 4.05862 169.069 4.00631 168.624 3.97144C168.633 4.17196 168.641 4.36377 168.641 4.57301Z" fill="white"/>
<path d="M167.578 7.30194C167.465 7.145 167.369 6.90089 167.299 6.60447C166.985 6.56087 166.68 6.47369 166.41 6.36035C166.706 6.84858 167.116 7.19732 167.578 7.29322V7.30194Z" fill="white"/>
<path d="M167.107 3.82323C167.133 3.42219 167.186 3.03857 167.255 2.70728C166.898 2.75959 166.575 2.86421 166.288 3.0037C166.148 3.29141 166.044 3.62271 165.991 3.97144C166.323 3.9017 166.706 3.84939 167.107 3.82323Z" fill="white"/>
<path d="M168.267 6.62195C168.136 6.63939 168.005 6.6481 167.866 6.6481C167.726 6.6481 167.596 6.6481 167.465 6.62195C167.587 7.08402 167.735 7.33686 167.866 7.33686C167.997 7.33686 168.145 7.08402 168.267 6.62195Z" fill="white"/>
<path d="M167.107 5.32289C166.706 5.29674 166.323 5.24443 165.991 5.17468C166.044 5.53214 166.148 5.85472 166.288 6.14242C166.575 6.28192 166.907 6.38654 167.255 6.43885C167.186 6.10755 167.133 5.72394 167.107 5.32289Z" fill="white"/>
<path d="M165.137 4.28533C165.294 4.17199 165.538 4.08481 165.834 4.00634C165.878 3.68376 165.965 3.38734 166.07 3.11707C165.581 3.41349 165.241 3.81454 165.137 4.28533Z" fill="white"/>
<path d="M165.808 4.97409C165.791 4.84331 165.782 4.71254 165.782 4.57305C165.782 4.43355 165.782 4.30277 165.808 4.172C165.346 4.29405 165.093 4.44227 165.093 4.57305C165.093 4.70382 165.346 4.85203 165.808 4.97409Z" fill="white"/>
<path d="M166.07 6.02898C165.956 5.75871 165.878 5.46229 165.834 5.13971C165.538 5.06124 165.294 4.97406 165.137 4.86072C165.241 5.32279 165.581 5.73256 166.07 6.02898Z" fill="white"/>
<path d="M177.883 9.80408H177.474C177.474 9.80408 177.404 9.83895 177.404 9.87382V10.2138H177.883C177.883 10.2138 177.953 10.179 177.953 10.1441V9.87382C177.953 9.87382 177.918 9.80408 177.883 9.80408Z" fill="white"/>
<path d="M184.317 13.1867C184.317 13.2652 184.378 13.3349 184.457 13.3349H185.067C184.814 12.9949 184.561 12.6462 184.317 12.3062V13.1867Z" fill="white"/>
<path d="M178.877 12.1057H178.249C178.249 12.1057 178.241 12.1057 178.232 12.1057C178.511 12.4893 178.738 12.8032 179.025 13.1955V12.2539C179.025 12.1755 178.956 12.1057 178.886 12.1057H178.877Z" fill="white"/>
<path d="M181.213 13.1867C181.213 13.2652 181.274 13.3349 181.353 13.3349H181.963C181.71 12.9949 181.466 12.6462 181.213 12.3062V13.1867Z" fill="white"/>
<path d="M181.989 12.1057H181.362C181.362 12.1057 181.353 12.1057 181.344 12.1057C181.623 12.4893 181.85 12.8032 182.138 13.1955V12.2539C182.138 12.1755 182.077 12.1057 181.998 12.1057H181.989Z" fill="white"/>
<path d="M180.438 12.1057H179.81C179.81 12.1057 179.801 12.1057 179.792 12.1057C180.071 12.4893 180.298 12.8032 180.586 13.1955V12.2539C180.586 12.1755 180.516 12.1057 180.446 12.1057H180.438Z" fill="white"/>
<path d="M179.662 13.1867C179.662 13.2652 179.723 13.3349 179.801 13.3349H180.411C180.159 12.9949 179.906 12.6462 179.662 12.3062V13.1867Z" fill="white"/>
<path d="M183.542 12.1057H182.914C182.914 12.1057 182.896 12.1057 182.888 12.1057C183.167 12.4893 183.393 12.8032 183.681 13.1955V12.2539C183.681 12.1755 183.62 12.1057 183.542 12.1057Z" fill="white"/>
<path d="M185.093 12.1057H184.466C184.466 12.1057 184.457 12.1057 184.448 12.1057C184.727 12.4893 184.954 12.8032 185.242 13.1955V12.2539C185.242 12.1755 185.172 12.1057 185.102 12.1057H185.093Z" fill="white"/>
<path d="M190.917 3.76221H189.775V5.20946H190.917C191.004 5.20946 191.083 5.13099 191.083 5.04381V3.92786C191.083 3.83195 191.004 3.76221 190.917 3.76221Z" fill="white"/>
<path d="M192.434 0.257446H161.484C161.536 0.588745 161.589 0.911324 161.658 1.2339C161.981 2.77706 162.486 4.27662 163.097 5.72388C163.637 6.98804 164.248 8.23477 164.971 9.40303C165.808 10.7718 166.854 12.0098 168.005 13.1258C170.821 15.8546 174.361 17.9035 178.214 18.723C181.458 19.4117 184.718 19.1676 187.901 18.2435C189.819 17.6855 191.702 16.9096 193.472 15.9593V1.30365C193.472 0.72824 193.01 0.266163 192.434 0.266163V0.257446ZM183.35 3.91917C183.35 3.68377 183.541 3.50069 183.768 3.50069H184.884C184.963 3.50069 185.015 3.553 185.015 3.63146C185.015 3.70121 184.963 3.76224 184.884 3.76224H183.768C183.672 3.76224 183.602 3.8407 183.602 3.92789V5.04384C183.602 5.13102 183.681 5.20949 183.768 5.20949H184.884C184.963 5.20949 185.015 5.27052 185.015 5.33155C185.015 5.4013 184.963 5.46233 184.884 5.46233H183.768C183.533 5.46233 183.35 5.27052 183.35 5.04384V3.92789V3.91917ZM180.525 3.50069H182.129C182.199 3.50069 182.26 3.553 182.26 3.63146C182.26 3.70121 182.207 3.76224 182.129 3.76224H181.458V5.34026C181.458 5.41001 181.397 5.47104 181.336 5.47104C181.275 5.47104 181.205 5.41873 181.205 5.34026V3.76224H180.525C180.455 3.76224 180.403 3.70121 180.403 3.63146C180.403 3.56171 180.455 3.50069 180.525 3.50069ZM180.534 9.69946C180.577 9.69946 180.629 9.72562 180.656 9.75177C180.69 9.7169 180.734 9.69946 180.778 9.69946H181.144C181.24 9.69946 181.327 9.77792 181.327 9.87383V10.4754C181.327 10.4754 181.301 10.5277 181.275 10.5277C181.248 10.5277 181.222 10.5016 181.222 10.4754V9.87383C181.222 9.87383 181.187 9.80408 181.153 9.80408H180.786C180.786 9.80408 180.717 9.83895 180.717 9.87383V10.4754C180.717 10.4754 180.69 10.5277 180.664 10.5277C180.638 10.5277 180.612 10.5016 180.612 10.4754V9.87383C180.612 9.87383 180.577 9.80408 180.542 9.80408H180.176C180.176 9.80408 180.106 9.83895 180.106 9.87383V10.4754C180.106 10.4754 180.08 10.5277 180.054 10.5277C180.019 10.5277 180.002 10.5016 180.002 10.4754V9.87383C180.002 9.77792 180.08 9.69946 180.185 9.69946H180.551H180.534ZM179.871 3.63146C179.871 3.56171 179.923 3.50069 179.993 3.50069C180.063 3.50069 180.124 3.553 180.124 3.63146V5.34026C180.124 5.41001 180.063 5.47104 179.993 5.47104C179.923 5.47104 179.871 5.41873 179.871 5.34026V3.63146ZM179.731 10.3533V9.75177C179.731 9.75177 179.758 9.69946 179.784 9.69946C179.819 9.69946 179.836 9.72562 179.836 9.75177V10.3533C179.836 10.4492 179.758 10.5277 179.653 10.5277H179.217C179.121 10.5277 179.034 10.4492 179.034 10.3533V9.75177C179.034 9.75177 179.06 9.69946 179.086 9.69946C179.121 9.69946 179.139 9.72562 179.139 9.75177V10.3533C179.139 10.3533 179.173 10.4231 179.208 10.4231H179.644C179.644 10.4231 179.714 10.3882 179.714 10.3533H179.731ZM177.752 3.63146C177.752 3.56171 177.813 3.50069 177.883 3.50069H179.147C179.383 3.50069 179.566 3.69249 179.566 3.91917V5.03512C179.566 5.27052 179.374 5.4536 179.147 5.4536H177.883C177.813 5.4536 177.752 5.40129 177.752 5.32283V3.61402V3.63146ZM178.345 10.0569H178.72C178.816 10.0569 178.895 10.1354 178.895 10.24V10.3533C178.895 10.4492 178.816 10.5277 178.72 10.5277H178.223C178.223 10.5277 178.171 10.5016 178.171 10.4754C178.171 10.4405 178.197 10.4231 178.223 10.4231H178.72C178.72 10.4231 178.79 10.3882 178.79 10.3533V10.24C178.79 10.24 178.755 10.1703 178.72 10.1703H178.345C178.249 10.1703 178.162 10.0918 178.162 9.99588V9.88255C178.162 9.78664 178.241 9.70818 178.345 9.70818H178.842C178.842 9.70818 178.895 9.73433 178.895 9.76049C178.895 9.78664 178.868 9.8128 178.842 9.8128H178.345C178.345 9.8128 178.275 9.84767 178.275 9.88255V9.99588C178.275 9.99588 178.31 10.0656 178.345 10.0656V10.0569ZM175.773 3.92789C175.773 3.69249 175.956 3.5094 176.192 3.5094H177.308C177.378 3.5094 177.43 3.56172 177.43 3.64018C177.43 3.70993 177.369 3.77096 177.308 3.77096H176.192C176.105 3.77096 176.026 3.84942 176.026 3.93661V4.34637H177.273C177.343 4.34637 177.395 4.4074 177.395 4.46843C177.395 4.52945 177.343 4.5992 177.273 4.5992H176.026V5.05256C176.026 5.14846 176.105 5.21821 176.192 5.21821H177.308C177.378 5.21821 177.439 5.27924 177.439 5.34026C177.439 5.41001 177.378 5.47104 177.308 5.47104H176.192C175.956 5.47104 175.773 5.27924 175.773 5.05256V3.93661V3.92789ZM177.16 9.75177V10.4754C177.16 10.4754 177.133 10.5277 177.107 10.5277C177.072 10.5277 177.055 10.5016 177.055 10.4754V9.75177C177.055 9.75177 177.081 9.69946 177.107 9.69946C177.133 9.69946 177.16 9.72562 177.16 9.75177ZM175.869 9.75177C175.869 9.75177 175.948 9.69946 175.991 9.69946H176.357C176.453 9.69946 176.541 9.77792 176.541 9.87383V10.4754C176.541 10.4754 176.514 10.5277 176.488 10.5277C176.453 10.5277 176.436 10.5016 176.436 10.4754V9.87383C176.436 9.87383 176.401 9.80408 176.366 9.80408H176C176 9.80408 175.93 9.83895 175.93 9.87383V10.4754C175.93 10.4754 175.904 10.5277 175.878 10.5277C175.852 10.5277 175.826 10.5016 175.826 10.4754V9.87383C175.826 9.87383 175.791 9.80408 175.756 9.80408H175.39C175.39 9.80408 175.32 9.83895 175.32 9.87383V10.4754C175.32 10.4754 175.294 10.5277 175.268 10.5277C175.241 10.5277 175.215 10.5016 175.215 10.4754V9.87383C175.215 9.77792 175.294 9.69946 175.398 9.69946H175.765C175.808 9.69946 175.86 9.72562 175.887 9.75177H175.869ZM173.637 3.91917C173.637 3.68377 173.829 3.50069 174.065 3.50069H175.032C175.268 3.50069 175.451 3.69249 175.451 3.91917V4.32022C175.451 4.55561 175.268 4.7387 175.032 4.7387C175.085 4.87819 175.18 5.12231 175.25 5.27924C175.25 5.29667 175.259 5.30539 175.259 5.32283C175.259 5.37514 175.224 5.42745 175.18 5.44489C175.163 5.44489 175.154 5.4536 175.137 5.4536C175.085 5.4536 175.041 5.42745 175.024 5.37514L174.771 4.7387H173.899V5.33155C173.899 5.4013 173.838 5.46233 173.768 5.46233C173.698 5.46233 173.637 5.41001 173.637 5.33155V3.91917ZM174.989 10.0482C174.989 10.0482 175.041 10.0744 175.041 10.1005C175.041 10.1267 175.015 10.1528 174.989 10.1528H174.457V10.3446C174.457 10.3446 174.492 10.4144 174.527 10.4144H174.997C174.997 10.4144 175.05 10.4405 175.05 10.4667C175.05 10.4928 175.024 10.519 174.997 10.519H174.527C174.431 10.519 174.344 10.4405 174.344 10.3446V9.86511C174.344 9.76921 174.422 9.69074 174.527 9.69074H174.997C174.997 9.69074 175.05 9.7169 175.05 9.74305C175.05 9.76921 175.024 9.79536 174.997 9.79536H174.527C174.527 9.79536 174.457 9.83024 174.457 9.86511V10.0395H174.989V10.0482ZM173.446 9.87383C173.446 9.77792 173.524 9.69946 173.629 9.69946H174.038C174.134 9.69946 174.213 9.77792 174.213 9.87383V10.0482C174.213 10.1441 174.134 10.2226 174.038 10.2313C174.065 10.2923 174.099 10.3882 174.134 10.458V10.4754C174.134 10.5016 174.117 10.519 174.099 10.5277C174.099 10.5277 174.091 10.5277 174.082 10.5277C174.056 10.5277 174.038 10.5103 174.03 10.4928L173.925 10.2226H173.559V10.4754C173.559 10.4754 173.533 10.5277 173.507 10.5277C173.48 10.5277 173.454 10.5016 173.454 10.4754V9.87383H173.446ZM171.684 3.91917C171.684 3.68377 171.867 3.50069 172.103 3.50069H173.219C173.289 3.50069 173.35 3.553 173.35 3.63146C173.35 3.70121 173.297 3.76224 173.219 3.76224H172.103C172.007 3.76224 171.937 3.8407 171.937 3.92789V5.04384C171.937 5.13102 172.016 5.20949 172.103 5.20949H173.219C173.289 5.20949 173.35 5.27052 173.35 5.33155C173.35 5.4013 173.297 5.46233 173.219 5.46233H172.103C171.867 5.46233 171.684 5.27052 171.684 5.04384V3.92789V3.91917ZM171.684 9.75177C171.684 9.75177 171.711 9.69946 171.737 9.69946C171.763 9.69946 171.789 9.72562 171.789 9.75177V10.3533C171.789 10.3533 171.824 10.4231 171.859 10.4231H172.347C172.347 10.4231 172.399 10.4492 172.399 10.4754C172.399 10.5016 172.373 10.5277 172.347 10.5277H171.859C171.754 10.5277 171.676 10.4492 171.676 10.3533V9.75177H171.684ZM167.866 7.48499C166.253 7.48499 164.945 6.17723 164.945 4.56433C164.945 2.95143 166.253 1.64367 167.866 1.64367C169.479 1.64367 170.786 2.95143 170.786 4.56433C170.786 6.17723 169.479 7.48499 167.866 7.48499ZM173.018 13.1868C173.018 13.3873 172.861 13.5443 172.661 13.5443H172.033C171.833 13.5443 171.676 13.3873 171.676 13.1868V12.2539C171.676 12.0534 171.833 11.8965 172.033 11.8965H172.661C172.853 11.8965 173.018 12.0534 173.018 12.2539V13.1868ZM172.661 10.5277C172.565 10.5277 172.486 10.4492 172.486 10.3533V9.87383C172.486 9.77792 172.565 9.69946 172.661 9.69946H173.132C173.228 9.69946 173.315 9.77792 173.315 9.87383V10.3533C173.315 10.4492 173.236 10.5277 173.132 10.5277H172.661ZM174.579 13.1868C174.579 13.3873 174.422 13.5443 174.221 13.5443H173.594C173.393 13.5443 173.236 13.3873 173.236 13.1868V12.2539C173.236 12.0534 173.393 11.8965 173.594 11.8965H174.221C174.413 11.8965 174.579 12.0534 174.579 12.2539V13.1868ZM176.131 13.1868C176.131 13.3873 175.974 13.5443 175.773 13.5443H175.146C174.954 13.5443 174.788 13.3873 174.788 13.1868V12.2539C174.788 12.0534 174.945 11.8965 175.146 11.8965H175.773C175.965 11.8965 176.131 12.0534 176.131 12.2539V13.1868ZM177.683 13.1868C177.683 13.3873 177.526 13.5443 177.325 13.5443H176.697C176.497 13.5443 176.34 13.3873 176.34 13.1868V12.2539C176.34 12.0534 176.497 11.8965 176.697 11.8965H177.325C177.517 11.8965 177.683 12.0534 177.683 12.2539V13.1868ZM177.404 10.3185V10.4754C177.404 10.4754 177.378 10.5277 177.351 10.5277C177.316 10.5277 177.299 10.5016 177.299 10.4754V9.87383C177.299 9.77792 177.377 9.69946 177.482 9.69946H177.892C177.988 9.69946 178.066 9.77792 178.066 9.87383V10.1441C178.066 10.24 177.988 10.3185 177.892 10.3185H177.412H177.404ZM179.235 13.1868C179.235 13.3873 179.078 13.5443 178.877 13.5443H178.249C178.049 13.5443 177.892 13.3873 177.892 13.1868V12.2539C177.892 12.0534 178.049 11.8965 178.249 11.8965H178.877C179.069 11.8965 179.235 12.0534 179.235 12.2539V13.1868ZM180.786 13.1868C180.786 13.3873 180.629 13.5443 180.429 13.5443H179.801C179.601 13.5443 179.444 13.3873 179.444 13.1868V12.2539C179.444 12.0534 179.601 11.8965 179.801 11.8965H180.429C180.621 11.8965 180.786 12.0534 180.786 12.2539V13.1868ZM182.347 13.1868C182.347 13.3873 182.19 13.5443 181.99 13.5443H181.362C181.161 13.5443 181.004 13.3873 181.004 13.1868V12.2539C181.004 12.0534 181.161 11.8965 181.362 11.8965H181.99C182.181 11.8965 182.347 12.0534 182.347 12.2539V13.1868ZM183.899 13.1868C183.899 13.3873 183.742 13.5443 183.541 13.5443H182.914C182.713 13.5443 182.556 13.3873 182.556 13.1868V12.2539C182.556 12.0534 182.713 11.8965 182.914 11.8965H183.541C183.733 11.8965 183.899 12.0534 183.899 12.2539V13.1868ZM185.451 13.1868C185.451 13.3873 185.294 13.5443 185.093 13.5443H184.466C184.265 13.5443 184.108 13.3873 184.108 13.1868V12.2539C184.108 12.0534 184.265 11.8965 184.466 11.8965H185.093C185.285 11.8965 185.451 12.0534 185.451 12.2539V13.1868ZM187.064 5.33155C187.064 5.4013 187.003 5.46233 186.933 5.46233C186.863 5.46233 186.802 5.41001 186.802 5.33155V4.59049H185.555V5.33155C185.555 5.4013 185.494 5.46233 185.425 5.46233C185.355 5.46233 185.303 5.41001 185.303 5.33155V3.91917C185.303 3.68377 185.494 3.50069 185.721 3.50069H186.636C186.872 3.50069 187.055 3.69249 187.055 3.91917V5.33155H187.064ZM189.208 4.32022C189.208 4.55561 189.025 4.7387 188.79 4.7387C188.842 4.87819 188.938 5.12231 189.008 5.27924C189.008 5.29667 189.017 5.30539 189.017 5.32283C189.017 5.37514 188.982 5.42745 188.938 5.44489C188.921 5.44489 188.912 5.4536 188.894 5.4536C188.842 5.4536 188.799 5.42745 188.781 5.37514L188.528 4.7387H187.656V5.33155C187.656 5.4013 187.595 5.46233 187.526 5.46233C187.456 5.46233 187.404 5.41001 187.404 5.33155V3.91917C187.404 3.68377 187.595 3.50069 187.822 3.50069H188.79C189.025 3.50069 189.208 3.69249 189.208 3.91917V4.32022ZM191.336 5.04384C191.336 5.27924 191.153 5.46233 190.917 5.46233H189.653C189.583 5.46233 189.522 5.41001 189.522 5.33155V3.62274C189.522 3.553 189.583 3.49197 189.653 3.49197H190.917C191.153 3.49197 191.336 3.68377 191.336 3.91045V5.02641V5.04384Z" fill="white"/>
<path d="M186.645 3.75354H185.73C185.634 3.75354 185.564 3.82329 185.564 3.91919V4.33767H186.811V3.91919C186.811 3.82329 186.732 3.75354 186.645 3.75354Z" fill="white"/>
<path d="M188.781 3.75347H187.814C187.718 3.75347 187.648 3.83194 187.648 3.91912V4.48581H188.781C188.877 4.48581 188.956 4.40735 188.956 4.31144V3.9104C188.956 3.82322 188.877 3.74475 188.781 3.74475V3.75347Z" fill="white"/>
<path d="M182.766 13.1867C182.766 13.2652 182.827 13.3349 182.905 13.3349H183.515C183.263 12.9949 183.01 12.6462 182.766 12.3062V13.1867Z" fill="white"/>
<path d="M175.198 4.32024V3.91919C175.198 3.83201 175.119 3.75354 175.024 3.75354H174.056C173.96 3.75354 173.89 3.83201 173.89 3.91919V4.48588H175.024C175.119 4.48588 175.198 4.40742 175.198 4.31152V4.32024Z" fill="white"/>
<path d="M176.558 13.1867C176.558 13.2652 176.619 13.3349 176.698 13.3349H177.308C177.055 12.9949 176.802 12.6462 176.558 12.3062V13.1867Z" fill="white"/>
<path d="M177.325 12.1057H176.698C176.698 12.1057 176.689 12.1057 176.68 12.1057C176.959 12.4893 177.186 12.8032 177.474 13.1955V12.2539C177.474 12.1755 177.413 12.1057 177.334 12.1057H177.325Z" fill="white"/>
<path d="M175.773 12.1057H175.145C175.145 12.1057 175.137 12.1057 175.128 12.1057C175.407 12.4893 175.634 12.8032 175.921 13.1955V12.2539C175.921 12.1755 175.852 12.1057 175.782 12.1057H175.773Z" fill="white"/>
<path d="M179.322 5.04381V3.92786C179.322 3.83195 179.243 3.76221 179.148 3.76221H178.014V5.20946H179.148C179.235 5.20946 179.322 5.13099 179.322 5.04381Z" fill="white"/>
<path d="M175.006 13.1867C175.006 13.2652 175.067 13.3349 175.146 13.3349H175.756C175.503 12.9949 175.259 12.6462 175.006 12.3062V13.1867Z" fill="white"/>
<path d="M178.11 13.1867C178.11 13.2652 178.171 13.3349 178.249 13.3349H178.86C178.607 12.9949 178.354 12.6462 178.11 12.3062V13.1867Z" fill="white"/>
<path d="M174.108 10.0482V9.87382C174.108 9.87382 174.073 9.80408 174.039 9.80408H173.629C173.629 9.80408 173.559 9.83895 173.559 9.87382V10.1179H174.039C174.039 10.1179 174.108 10.0831 174.108 10.0482Z" fill="white"/>
<path d="M160.394 11.7134C161.911 12.8206 163.228 14.4248 164.213 16.369C166.166 17.3542 167.761 18.6619 168.868 20.1877C167.439 16.2644 164.317 13.1519 160.394 11.7134Z" fill="white"/>
<path d="M169.557 23.5617C169.034 21.1816 167.273 19.0717 164.753 17.5721C165.329 18.9671 165.739 20.5015 165.974 22.1319C167.508 22.5155 168.764 22.995 169.566 23.5617H169.557Z" fill="white"/>
<path d="M157.011 11.0159C157.587 11.8092 158.057 13.0647 158.441 14.5991C160.071 14.8258 161.606 15.2443 163.001 15.8197C161.501 13.2914 159.391 11.539 157.011 11.0159Z" fill="white"/>
<path d="M155.991 11.0508V14.4074C156.532 14.4161 157.064 14.451 157.595 14.5033C157.107 12.6811 156.532 11.4954 155.991 11.0508Z" fill="white"/>
<path d="M165.137 21.9314C164.858 20.118 164.326 18.4353 163.62 16.9532C162.138 16.2383 160.455 15.7152 158.642 15.4275C158.999 17.1276 159.261 19.1066 159.4 21.1729C161.466 21.3124 163.437 21.5652 165.146 21.9314H165.137Z" fill="white"/>
<path d="M192.059 18.4527C188.912 19.8215 185.477 20.7892 182.016 20.7979C178.136 20.8154 174.274 19.6297 170.969 17.6245C167.848 15.7238 165.023 13.1083 163.14 9.95227C161.536 7.25829 160.237 4.24173 159.627 1.15542C159.566 0.858995 159.513 0.553852 159.47 0.23999H157.029C156.453 0.23999 155.991 0.702064 155.991 1.27748V10.0482C163.925 10.2923 170.324 16.7265 170.507 24.6689C170.507 24.791 170.507 24.9043 170.507 25.0264H192.425C193.001 25.0264 193.463 24.5556 193.463 23.9889V17.7814C192.992 18.0168 192.521 18.2347 192.05 18.444L192.059 18.4527Z" fill="white"/>
<path d="M166.079 22.9862C166.14 23.6575 166.183 24.3463 166.183 25.0525H169.723C169.723 24.3986 168.433 23.6139 166.079 22.9862Z" fill="white"/>
<path d="M157.796 15.3229C157.203 15.2531 156.601 15.2182 155.991 15.2008V21.0508C156.863 21.0508 157.735 21.0857 158.598 21.1293C158.441 18.8451 158.153 16.8922 157.796 15.3229Z" fill="white"/>
<path d="M159.444 21.975C159.496 22.995 159.522 24.0238 159.522 25.0439H165.372C165.372 24.2766 165.329 23.5181 165.25 22.7771C163.681 22.4196 161.728 22.1319 159.444 21.975Z" fill="white"/>
<path d="M155.991 21.8442V24.0064C155.991 24.5818 156.453 25.0439 157.029 25.0439H158.729C158.729 23.9541 158.703 22.9079 158.65 21.9227C157.805 21.8791 156.915 21.853 155.991 21.8442Z" fill="white"/>
<path d="M98.4852 187.563H97.2036V186.936H100.49V187.563H99.2088V190.902H98.4852V187.563Z" fill="#231F20"/>
<path d="M102.713 188.923C102.713 187.755 103.603 186.883 104.806 186.883C106.009 186.883 106.898 187.738 106.898 188.923C106.898 190.109 106.009 190.963 104.806 190.963C103.603 190.963 102.713 190.092 102.713 188.923ZM106.175 188.923C106.175 188.112 105.599 187.528 104.806 187.528C104.012 187.528 103.437 188.112 103.437 188.923C103.437 189.734 104.012 190.318 104.806 190.318C105.599 190.318 106.175 189.734 106.175 188.923Z" fill="#231F20"/>
<path d="M114.562 186.944H116.262C117.517 186.944 118.38 187.738 118.38 188.923C118.38 190.109 117.517 190.902 116.262 190.902H114.562V186.944ZM116.227 190.275C117.099 190.275 117.648 189.743 117.648 188.915C117.648 188.086 117.081 187.554 116.227 187.554H115.285V190.266H116.227V190.275Z" fill="#231F20"/>
<path d="M121.231 186.944H121.955V190.902H121.231V186.944Z" fill="#231F20"/>
<path d="M127.683 188.88H128.363V190.458C127.962 190.789 127.395 190.963 126.837 190.963C125.634 190.963 124.745 190.109 124.745 188.923C124.745 187.738 125.634 186.883 126.837 186.883C127.482 186.883 128.023 187.101 128.398 187.528L127.944 187.982C127.639 187.677 127.29 187.528 126.872 187.528C126.052 187.528 125.468 188.104 125.468 188.923C125.468 189.743 126.044 190.318 126.872 190.318C127.151 190.318 127.421 190.257 127.665 190.109V188.888L127.683 188.88Z" fill="#231F20"/>
<path d="M131.397 186.944H132.121V190.902H131.397V186.944Z" fill="#231F20"/>
<path d="M136.044 187.563H134.762V186.936H138.049V187.563H136.767V190.902H136.044V187.563Z" fill="#231F20"/>
<path d="M142.958 189.978H141.013L140.639 190.894H139.897L141.65 186.936H142.365L144.117 190.894H143.359L142.958 189.978ZM142.722 189.412L141.99 187.677L141.258 189.412H142.722Z" fill="#231F20"/>
<path d="M146.663 186.944H147.387V190.283H149.418V190.911H146.663V186.953V186.944Z" fill="#231F20"/>
<path d="M152.033 186.944H152.757V190.902H152.033V186.944Z" fill="#231F20"/>
<path d="M155.529 190.484L155.782 189.909C156.096 190.161 156.584 190.336 157.064 190.336C157.665 190.336 157.927 190.118 157.927 189.813C157.927 188.958 155.616 189.516 155.616 188.051C155.616 187.406 156.113 186.875 157.177 186.875C157.639 186.875 158.127 186.997 158.467 187.223L158.232 187.799C157.874 187.589 157.5 187.494 157.159 187.494C156.558 187.494 156.314 187.729 156.314 188.025C156.314 188.862 158.615 188.322 158.615 189.769C158.615 190.397 158.11 190.946 157.037 190.946C156.436 190.946 155.834 190.763 155.512 190.475L155.529 190.484Z" fill="#231F20"/>
<path d="M164.283 190.283V190.894H161.371V186.936H164.213V187.546H162.094V188.583H163.969V189.185H162.094V190.275H164.283V190.283Z" fill="#231F20"/>
<path d="M182.469 187.563H181.188V186.936H184.474V187.563H183.193V190.902H182.469V187.563Z" fill="#231F20"/>
<path d="M186.715 188.923C186.715 187.755 187.604 186.883 188.807 186.883C190.01 186.883 190.9 187.738 190.9 188.923C190.9 190.109 190.01 190.963 188.807 190.963C187.604 190.963 186.715 190.092 186.715 188.923ZM190.176 188.923C190.176 188.112 189.601 187.528 188.807 187.528C188.014 187.528 187.438 188.112 187.438 188.923C187.438 189.734 188.023 190.318 188.807 190.318C189.592 190.318 190.176 189.734 190.176 188.923Z" fill="#231F20"/>
<path d="M198.241 190.484L198.493 189.909C198.807 190.161 199.296 190.336 199.775 190.336C200.377 190.336 200.638 190.118 200.638 189.813C200.638 188.958 198.328 189.516 198.328 188.051C198.328 187.406 198.833 186.875 199.888 186.875C200.35 186.875 200.839 186.997 201.179 187.223L200.943 187.799C200.586 187.589 200.211 187.494 199.871 187.494C199.269 187.494 199.025 187.729 199.025 188.025C199.025 188.862 201.327 188.322 201.327 189.769C201.327 190.397 200.821 190.946 199.749 190.946C199.147 190.946 198.546 190.763 198.223 190.475L198.241 190.484Z" fill="#231F20"/>
<path d="M204.064 186.944H204.788V190.902H204.064V186.944Z" fill="#231F20"/>
<path d="M211.545 190.902V188.278L210.263 190.44H209.941L208.659 188.304V190.894H207.979V186.936H208.572L210.115 189.56L211.632 186.936H212.225V190.894H211.554L211.545 190.902Z" fill="#231F20"/>
<path d="M218.502 188.348C218.502 189.22 217.875 189.752 216.846 189.752H215.974V190.885H215.25V186.927H216.855C217.875 186.927 218.511 187.459 218.511 188.339L218.502 188.348ZM217.77 188.348C217.77 187.851 217.448 187.563 216.802 187.563H215.957V189.141H216.802C217.439 189.141 217.77 188.845 217.77 188.348Z" fill="#231F20"/>
<path d="M221.318 186.944H222.042V190.283H224.073V190.911H221.318V186.953V186.944Z" fill="#231F20"/>
<path d="M226.697 186.944H227.421V190.902H226.697V186.944Z" fill="#231F20"/>
<path d="M231.231 187.555V188.766H233.105V189.394H231.231V190.911H230.507V186.953H233.35V187.563H231.231V187.555Z" fill="#231F20"/>
<path d="M237.77 189.507V190.902H237.046V189.516L235.521 186.944H236.288L237.421 188.871L238.563 186.944H239.278L237.761 189.507H237.77Z" fill="#231F20"/>
<path d="M172.46 190.292C173.036 190.292 173.506 189.813 173.506 189.228C173.506 188.644 173.036 188.165 172.46 188.165C171.885 188.165 171.414 188.644 171.414 189.228C171.414 189.813 171.885 190.292 172.46 190.292Z" fill="#EC6827"/>
<path d="M140.028 179.9L140.237 180.248C140.935 181.399 140.028 182.559 138.694 182.559H138.119C137.526 182.559 136.985 182.245 136.663 181.739L135.216 179.647L133.289 176.7L133.202 176.552C132.574 175.68 132.827 175.863 131.528 175.863H128.284V182.541H124.945V165.846H135.434C136.916 165.846 138.258 166.343 139.217 167.162C140.185 167.973 140.787 169.098 140.787 170.336C140.787 172.149 140.455 174.477 138.598 175.192C138.119 175.384 137.604 175.497 137.055 175.549L140.011 179.891H140.019L140.028 179.9ZM135.556 173.073C135.826 173.073 136.087 173.021 136.332 172.916C137.02 172.663 137.465 171.94 137.465 171.024C137.465 170.205 137.107 169.821 136.898 169.647C136.663 169.438 136.209 169.194 135.556 169.194H128.302V173.091L135.556 173.073Z" fill="#E02529"/>
<path d="M112.818 180.179C113.855 180.179 114.684 179.333 114.684 178.278C114.684 177.223 113.847 176.378 112.818 176.378C111.789 176.378 110.952 177.223 110.952 178.278C110.952 179.333 111.789 180.179 112.818 180.179Z" fill="#EC6827"/>
<path d="M145.591 170.684V172.524H152.269C153.019 172.524 153.629 173.152 153.629 173.919C153.629 174.686 153.019 175.314 152.269 175.314H145.591V178.313C145.591 179.106 146.419 179.769 147.422 179.769H156.741V182.55H147.552C144.623 182.55 142.26 180.519 142.26 178.043V170.371C142.26 167.886 144.623 165.863 147.552 165.863H156.741V169.202H147.361C146.375 169.202 145.591 170.702 145.591 170.702V170.684Z" fill="#E02529"/>
<path d="M166.236 182.498H166.297L166.236 182.55V182.498ZM185.617 165.854L178.145 174.207L177.727 174.66V180.868C177.727 181.766 177.029 182.515 176.166 182.515H175.852C174.989 182.515 174.292 181.783 174.292 180.868V174.704L173.821 174.207L166.349 165.854H170.708L176 171.774L181.292 165.854H185.617ZM186.323 182.498H186.349V182.55L186.323 182.498Z" fill="#E02529"/>
<path d="M122.617 182.55L115.538 167.528C115.172 166.7 114.161 166.099 112.783 166.099C111.301 166.099 110.403 166.7 110.028 167.528L102.958 182.55H106.994L112.757 170.31H112.844L118.607 182.55H122.644H122.635H122.617Z" fill="#E02529"/>
<path d="M107.212 165.846L99.9235 182.541H97.3429L94.2043 174.852L91.0656 182.541H88.485L81.2139 165.846H85.5556L89.9846 175.567L92.0159 170.31L92.1467 169.961C92.1467 169.961 92.1554 169.935 92.1642 169.926C92.6437 168.915 93.4458 168.714 94.213 168.714C94.9802 168.714 95.7213 168.827 96.2444 169.926C96.2705 169.978 96.288 170.031 96.3141 170.083C96.3141 170.083 96.3141 170.092 96.3141 170.1L96.3577 170.205L98.5199 175.619L102.862 165.854H107.203H107.195L107.212 165.846Z" fill="#E02529"/>
<path d="M171.763 179.237V182.55H165.05C164.082 182.55 163.175 182.358 162.347 182.001C161.135 181.478 160.15 180.615 159.575 179.569C159.165 178.854 158.947 178.069 158.947 177.232V167.633C158.947 166.657 159.705 165.854 160.629 165.854H160.586C161.527 165.854 162.286 166.648 162.286 167.624V177.206C162.303 178.461 163.306 179.202 164.649 179.22L171.763 179.246V179.237Z" fill="#E02529"/>
<path d="M193.794 170.693V172.533H200.473C201.222 172.533 201.833 173.161 201.833 173.928C201.833 174.695 201.222 175.323 200.473 175.323H193.794V178.322C193.794 179.115 194.623 179.778 195.625 179.778H204.945V182.559H195.756C192.827 182.559 190.464 180.528 190.464 178.052V170.379C190.464 167.895 192.827 165.872 195.756 165.872H204.945V169.211H195.564C194.579 169.211 193.794 170.711 193.794 170.711V170.693Z" fill="#E02529"/>
<path d="M209.313 170.693V173.928V175.323V178.322C209.313 179.115 210.142 179.778 211.144 179.778H220.464V182.559H211.275C208.346 182.559 205.983 180.528 205.983 178.052V170.379C205.983 167.895 208.346 165.872 211.275 165.872H220.464V169.211H211.092C209.226 169.237 209.322 170.711 209.322 170.711L209.313 170.693Z" fill="#E02529"/>
<path d="M239.339 182.55V165.854H242.966L243.036 165.977L247.256 174.939H247.343L251.545 166.003L251.624 165.863H255.259V178.705H251.615V174.399L250.063 177.729C249.828 178.252 249.392 178.679 248.72 178.932C248.328 179.08 247.849 179.167 247.299 179.167C246.236 179.167 245.381 178.81 244.893 178.261C244.867 178.217 244.841 178.174 244.823 178.13C244.701 177.886 244.553 177.589 244.544 177.572L244.117 176.7L242.984 174.233V182.585H239.339V182.568V182.55Z" fill="#E02529"/>
<path d="M253.437 182.541C254.448 182.541 255.259 181.713 255.259 180.684C255.259 179.656 254.44 178.827 253.437 178.827C252.434 178.827 251.615 179.656 251.615 180.684C251.615 181.713 252.434 182.541 253.437 182.541Z" fill="#EC6827"/>
<path d="M221.502 174.015C221.633 169.063 225.721 165.619 230.168 165.82C235.32 166.064 238.468 170.074 238.293 174.39C238.075 179.734 233.978 182.69 229.435 182.559C224.998 182.428 221.249 178.296 221.51 174.015H221.502ZM229.871 179.011C232.574 179.011 234.754 176.848 234.762 174.154C234.762 171.46 232.522 169.228 229.819 169.246C227.204 169.263 225.015 171.487 225.015 174.128C224.998 176.805 227.195 179.002 229.88 179.002L229.871 179.011Z" fill="#E02529"/>
</svg>
