<svg width="812" height="483" viewBox="0 0 812 483" fill="none" xmlns="http://www.w3.org/2000/svg">
<path d="M122.322 62.9041C122.122 63.2041 121.922 63.4042 121.822 63.5042C120.022 64.6042 117.522 66.2042 116.722 66.6042C115.622 67.2042 109.922 68.7042 109.722 68.8042C107.322 69.9042 103.322 71.2042 101.722 72.5042C100.322 73.6042 100.122 79.8042 99.4222 83.8042C98.7222 87.8042 98.1222 98.5042 98.3222 101.604C98.5222 104.704 99.4222 107.204 99.6222 109.804C99.9222 112.404 99.5222 115.404 100.522 117.904C101.622 120.504 103.322 125.704 105.322 129.704C105.322 129.704 105.622 131.504 105.222 132.104C104.922 132.704 104.122 133.204 104.422 133.404C104.722 133.704 105.722 134.104 105.822 134.504C105.922 135.004 105.522 137.104 105.022 139.704C104.522 142.404 101.222 152.904 101.222 153.804C101.322 154.704 102.822 155.004 104.022 155.704C105.222 156.404 105.722 156.704 105.722 157.104C105.722 157.504 105.022 161.104 105.222 161.904C105.322 162.804 105.822 165.004 105.822 166.404C105.822 167.804 107.122 194.304 107.822 197.404C108.522 200.504 109.822 204.104 110.022 204.604C110.222 205.004 110.822 206.404 112.022 206.604C112.022 208.004 111.922 210.004 111.322 211.604C110.222 214.604 108.722 227.104 109.622 231.804C110.522 236.504 112.922 246.104 114.922 252.504C116.922 258.904 118.722 260.604 117.422 266.704C116.122 272.704 114.822 271.404 116.522 275.604C118.222 279.804 120.122 285.104 120.222 285.804C120.222 286.504 120.622 287.104 120.622 287.104L133.522 287.004C133.622 286.504 133.622 286.004 133.722 285.504C133.622 286.404 133.522 287.004 133.522 287.004H146.522C146.522 287.004 149.622 286.004 148.622 284.504C146.122 280.804 145.122 276.404 145.122 276.404C145.522 272.504 144.422 271.904 145.222 270.204C146.022 268.504 145.622 268.504 146.022 265.204C146.022 265.204 150.922 246.604 152.722 235.904C154.522 225.304 154.822 218.704 154.022 212.404C154.222 208.004 154.722 205.504 154.922 204.804C155.622 204.704 156.022 204.604 156.222 204.504C157.122 203.604 158.322 187.504 159.122 184.704C159.922 181.804 162.222 172.504 162.422 169.704C162.622 166.904 162.722 164.404 162.722 163.104C162.722 163.004 162.722 162.804 162.722 162.704C162.822 162.204 162.822 161.804 162.822 161.404C162.822 161.404 162.822 161.404 162.722 161.504C162.722 160.604 162.922 159.704 163.322 159.004C164.022 157.904 166.922 157.104 166.922 156.604C166.922 156.204 165.122 150.304 165.122 149.104C165.122 147.904 164.322 145.004 164.222 143.904C164.122 142.804 163.522 141.004 163.722 140.504C163.922 140.004 167.422 128.604 168.522 126.004C169.622 123.404 170.422 123.404 170.522 121.204C170.622 119.004 170.622 117.904 170.422 116.704C170.222 115.504 169.522 108.404 169.122 106.304C168.722 104.104 167.922 93.1041 168.022 91.7041C168.122 90.3041 167.922 88.5042 167.922 87.0042C167.922 85.5042 167.822 83.0042 167.422 80.5042C167.022 78.1042 165.722 75.0042 164.022 73.8042C162.322 72.6042 147.022 66.8041 145.822 65.9041C144.822 65.2041 144.522 64.9041 144.122 64.7041C144.222 63.4041 142.622 62.4042 141.622 62.0042C141.822 61.2042 142.022 60.5042 142.222 60.1042C142.722 59.1042 143.122 58.2042 143.322 57.8042C143.822 56.8042 145.322 54.9041 145.522 54.7041C145.722 54.5041 146.222 55.6042 146.522 55.8042C146.822 56.0042 147.322 56.3041 147.722 55.9041C148.122 55.6041 148.122 54.1042 148.422 53.6042C148.722 53.0042 149.322 51.0042 148.922 50.1042C148.522 49.3042 148.122 48.9041 148.122 48.4041C148.022 47.9041 147.322 40.5042 146.922 39.5042C146.622 38.5042 145.622 30.9042 135.422 29.5042C132.722 29.1042 127.922 29.4042 123.322 36.8042C123.322 36.8042 120.822 39.0042 120.922 45.5042C120.922 45.5042 119.822 47.1041 120.222 48.2041C120.722 49.3041 120.622 51.4042 122.722 52.1042C122.722 52.1042 123.722 53.1042 123.922 54.1042C124.222 55.0042 125.022 57.5042 124.822 58.6042C124.422 60.4042 123.322 61.6041 122.322 62.9041ZM156.022 113.004C156.322 113.604 156.722 113.804 157.122 114.604C157.322 114.904 157.322 115.204 157.422 115.504C157.422 115.904 157.422 116.204 157.422 116.504C157.422 117.204 156.822 119.504 156.822 119.504C156.822 119.504 156.522 119.104 156.322 118.504C156.122 117.804 156.022 118.004 155.922 116.904C155.822 116.204 155.922 114.104 156.022 113.004ZM141.122 64.0042C141.722 64.2042 142.422 64.5042 142.922 64.8042C142.322 64.5042 141.622 64.3042 141.122 64.0042ZM127.222 218.004C127.622 215.504 129.622 207.804 130.022 206.204C130.022 206.204 130.022 206.204 130.022 206.104C131.822 206.004 134.222 205.904 136.822 205.704C137.322 206.404 137.822 207.604 138.022 209.504C138.322 212.804 139.622 215.904 138.422 220.904C137.222 225.904 136.622 230.204 136.422 233.804C136.322 237.304 136.922 247.504 136.822 251.904C136.722 256.404 136.422 262.104 136.422 263.704C136.422 265.304 135.622 265.804 134.822 266.904C134.022 268.004 131.522 271.504 131.922 273.604C132.122 274.804 132.922 277.704 133.422 280.804C132.522 278.404 130.322 273.504 129.722 271.904C128.922 270.104 128.922 267.304 128.622 266.504C128.322 265.704 128.122 264.704 127.722 263.604C127.322 262.604 127.222 250.604 127.222 248.404C127.222 246.204 127.722 240.304 127.622 235.404C127.522 230.604 126.922 220.504 127.222 218.004Z" fill="#212121"/>
<path d="M350.422 106.904C351.222 116.104 352.122 124.004 352.122 124.004C352.122 124.004 352.722 131.104 353.222 133.104C353.822 135.104 354.922 139.704 354.922 140.204C354.922 140.604 355.022 141.304 355.022 141.304C355.022 141.304 355.222 141.304 355.622 141.304C355.722 141.604 355.822 142.104 356.022 143.004C356.022 143.104 356.922 143.404 358.022 143.504C358.022 143.804 358.122 144.404 358.222 145.004C358.322 146.004 358.722 147.204 359.122 148.504C359.522 149.904 360.222 153.204 360.522 153.404C360.622 153.404 360.922 153.604 361.122 153.704C360.322 161.504 360.222 179.304 360.322 181.904C360.522 184.804 360.122 199.904 360.022 203.204C359.822 206.504 358.622 225.704 357.922 229.604C357.122 233.504 356.122 258.004 356.222 261.004C356.422 264.004 357.422 265.104 357.622 267.504C357.822 269.904 358.722 272.904 358.822 275.104C359.022 277.204 358.622 279.204 358.222 279.904C357.722 280.704 359.122 283.104 359.122 283.104C359.122 283.104 372.222 283.104 372.822 283.304C373.422 283.504 376.022 283.304 376.722 281.804C377.522 280.304 376.222 278.504 375.622 277.604C375.022 276.704 375.822 276.404 376.222 274.704C376.722 273.004 378.222 268.404 378.222 266.204C378.222 264.104 380.622 258.304 380.222 256.104C379.722 253.804 376.922 251.604 376.922 249.604C376.922 247.604 375.422 244.604 376.422 241.104C377.522 237.604 379.722 226.904 380.222 225.404C380.722 223.904 381.022 221.304 380.822 219.204C380.622 217.104 382.022 216.004 382.222 215.104C382.422 214.204 381.922 213.304 381.922 212.204C381.922 211.104 382.522 209.804 383.122 208.404C383.722 207.004 384.822 205.704 384.622 204.204C384.422 202.704 386.022 195.304 386.622 193.204C387.222 191.104 389.922 177.604 390.522 176.004C391.122 174.304 392.222 170.704 392.622 170.604C392.722 170.604 392.922 171.204 393.222 172.204C393.822 174.504 394.522 178.504 395.022 180.704C395.422 182.404 395.422 183.904 395.522 185.504C395.522 185.604 395.522 185.704 395.522 185.804C395.622 187.104 395.822 188.404 396.322 189.904C396.422 190.104 396.422 190.304 396.522 190.604C397.622 194.604 398.522 203.604 399.222 208.104C399.422 209.504 399.722 211.404 400.022 213.404C400.422 216.704 400.722 219.804 401.022 222.104C401.122 223.804 401.122 225.304 401.122 226.504C400.822 231.004 399.922 245.104 399.922 248.704C399.922 252.304 401.322 252.204 401.122 255.004C400.922 257.904 398.222 268.604 398.222 270.304C398.222 272.004 400.322 275.304 399.922 276.504C399.422 277.704 399.522 282.804 399.522 282.804C400.922 283.404 424.622 283.304 425.822 283.304C427.022 283.304 428.022 281.704 428.622 280.804C429.222 279.904 428.422 279.604 428.122 278.504C427.822 277.404 426.422 275.904 425.122 275.604C423.722 275.304 421.822 274.404 421.022 273.804C420.222 273.204 419.622 272.104 419.822 271.204C420.022 270.304 421.222 268.804 421.822 268.204C422.322 267.704 423.722 266.804 424.022 266.004C424.122 266.004 424.122 265.904 424.122 265.704C424.122 265.404 424.022 265.004 423.822 264.604C423.622 263.704 423.222 262.404 422.822 261.004C422.622 260.004 422.322 259.004 422.022 258.204C421.522 256.804 422.522 253.504 422.522 252.604C422.522 251.704 424.522 243.504 424.522 241.704C424.522 239.904 424.022 228.604 424.022 226.904C424.022 225.504 423.822 220.004 423.522 217.304C423.822 217.304 424.522 216.704 424.522 216.704C424.522 216.704 429.922 216.904 430.222 216.904C430.422 216.804 430.722 217.704 431.022 217.804C431.322 217.904 432.322 216.904 432.322 216.904L441.022 211.804L441.922 210.704C441.922 210.704 443.522 164.004 443.622 163.004C443.722 161.904 442.522 161.304 441.822 161.304C441.022 161.204 434.822 160.904 434.822 160.904C434.822 160.904 434.822 160.704 434.822 160.404C436.022 159.504 435.722 158.804 436.122 158.304C436.622 157.804 437.122 156.904 437.622 156.304C438.122 155.604 437.822 154.204 437.922 153.704C438.022 153.204 437.322 149.004 437.122 148.304L437.622 148.204L437.722 146.304C437.722 146.304 437.522 146.404 437.022 146.504C438.022 145.904 438.422 145.404 438.422 145.404C438.422 145.404 437.622 138.804 437.622 135.704C437.622 132.704 437.022 128.104 436.522 126.604C436.022 125.104 435.922 118.004 435.722 116.304C435.522 114.604 434.522 113.004 434.322 110.704C434.122 108.404 433.722 100.704 433.122 99.2041C432.522 97.7041 432.322 96.0041 431.922 90.9041C431.422 85.8041 431.122 79.1041 430.522 78.1041C429.922 77.0041 429.722 67.8041 428.722 66.3041C427.622 64.8041 428.122 60.6041 427.822 58.3041C427.522 56.0041 427.322 51.8041 427.322 51.8041C426.822 44.7041 424.122 45.3041 423.422 44.8041C422.722 44.3041 422.222 44.1041 420.522 43.2041C418.922 42.4041 413.822 39.8041 412.522 39.2041C411.322 38.6041 407.122 36.7041 406.622 36.6041C406.022 36.5041 404.122 34.7041 403.722 34.4041C403.222 34.2041 402.522 33.8041 401.122 31.9041C401.122 31.8041 401.022 31.8041 401.022 31.7041C401.022 31.6041 400.922 31.5041 400.922 31.4041C401.122 30.7041 401.622 28.5041 401.922 27.8041C402.222 26.9041 401.722 26.3041 402.022 26.2041C402.322 26.1041 403.222 26.5041 403.722 25.3041C404.222 24.1041 406.022 19.0041 405.422 17.7041C405.422 17.7041 404.922 16.9041 403.622 17.6041C403.622 17.6041 404.522 16.5041 404.722 13.0041C404.922 9.50412 403.322 0.304117 393.422 0.00411661C389.122 -0.0958834 382.922 1.60412 380.422 7.50412C380.422 7.50412 379.022 13.8041 380.922 17.0041C380.922 17.0041 380.422 17.1041 379.922 16.9041C379.322 16.7041 378.822 17.0041 378.922 19.3041C379.022 21.6041 379.422 23.3041 380.122 24.5041C380.922 25.7041 381.522 25.9041 381.522 25.9041C381.522 25.9041 381.822 27.9041 382.322 28.7041C382.822 29.5041 382.622 30.5041 382.622 30.5041C382.922 30.3041 383.122 30.2041 383.422 30.0041C382.422 31.2041 381.522 33.4041 381.122 34.2041C381.022 34.4041 381.022 34.6041 381.022 34.6041C381.022 34.6041 377.422 36.1041 374.622 37.8041C371.822 39.5041 359.822 43.8041 356.322 46.6041C356.322 46.6041 354.522 50.2041 352.622 55.8041C351.322 59.5041 351.622 60.7041 351.522 64.7041C351.422 66.7041 352.322 68.2041 352.222 70.4041C352.122 73.4041 351.422 76.5041 350.922 79.6041C348.722 91.2041 350.022 102.704 350.422 106.904ZM429.722 155.804C429.722 155.804 430.022 155.704 430.122 156.304C429.922 156.304 429.822 156.404 429.722 156.404C429.722 156.204 429.722 156.004 429.722 155.804ZM424.222 138.704C424.722 140.204 425.322 143.104 425.622 144.104C425.922 145.204 426.422 147.904 426.422 147.904C426.422 148.004 426.222 149.504 426.222 150.304C426.322 151.104 426.022 153.604 426.422 154.904C426.922 156.204 425.922 159.104 425.822 160.404C425.622 161.704 424.722 163.304 425.522 163.704C426.322 164.204 427.222 163.704 427.822 163.204C427.922 163.104 428.022 163.004 428.022 162.904C428.022 163.204 428.022 163.404 428.122 163.604C428.222 164.104 429.222 164.904 429.222 164.904C429.222 164.904 428.922 165.004 428.322 165.404C427.922 165.704 426.022 168.204 424.722 169.904C424.622 168.404 424.122 166.304 424.022 165.104C423.922 164.304 423.322 161.504 423.422 159.304C423.522 158.604 424.022 158.404 424.022 157.904C424.022 157.004 423.822 153.904 423.822 153.904C423.822 153.904 423.622 153.004 423.522 149.304C423.322 145.504 423.022 136.604 423.022 136.604C423.022 136.604 423.722 137.204 424.222 138.704ZM400.422 31.3041C400.322 31.2041 400.222 31.2041 400.222 31.2041C400.122 31.1041 399.922 30.9041 399.822 30.8041C400.022 30.9041 400.222 31.1041 400.422 31.3041Z" fill="#1A1A1A"/>
<path d="M448.922 107.404C449.422 110.304 449.722 115.004 450.922 116.204C452.022 117.504 453.122 117.304 454.622 116.904C455.922 116.504 461.322 116.104 463.122 115.804C463.322 115.904 463.422 116.004 463.622 116.104C465.022 116.904 465.722 116.804 466.422 116.804C466.422 116.804 466.422 117.004 466.422 117.304C466.322 117.304 466.322 117.304 466.222 117.404C465.822 117.704 465.522 120.504 466.022 121.504C465.922 122.304 465.922 123.004 465.922 123.104C465.922 123.704 462.622 130.204 461.922 135.004C461.322 139.804 460.422 150.204 461.122 154.404C461.722 158.604 463.422 163.404 465.922 175.604C468.422 187.904 472.622 216.604 473.422 222.704C474.222 228.704 474.922 238.904 474.622 241.404C474.422 243.904 473.122 251.004 472.922 252.904C472.722 254.804 472.322 256.904 472.522 258.904C472.722 261.004 471.022 264.104 470.422 266.204C469.822 268.304 470.622 267.204 469.822 268.304C469.022 269.304 467.722 272.504 468.122 273.504C468.522 274.504 468.922 276.804 469.122 280.404C469.322 283.904 469.122 285.004 469.122 285.004H474.922C474.922 285.004 473.922 278.304 475.522 278.304C477.222 278.304 479.722 280.404 480.722 281.404C481.722 282.404 481.522 282.604 482.222 283.504C482.822 284.304 487.222 285.204 491.622 285.204C496.022 285.204 501.222 284.604 501.222 283.504C501.222 282.504 497.522 280.804 494.722 280.204C494.722 280.204 494.322 275.604 494.322 274.004C494.322 272.304 495.622 261.104 495.322 258.604C495.122 256.104 493.422 237.404 493.822 233.604C494.222 229.904 497.522 210.504 498.622 205.504C499.622 200.504 508.422 172.404 509.422 168.404C510.422 164.404 512.922 155.904 513.422 153.204C514.222 148.204 514.522 139.904 513.222 135.304C511.522 129.304 509.022 127.804 507.222 123.804C505.922 121.104 505.122 120.004 504.822 119.404C505.022 118.404 504.722 116.604 504.522 116.504C504.922 116.404 505.322 116.304 505.822 116.004C506.822 115.404 507.022 115.304 507.722 114.304C508.122 115.004 508.922 116.004 509.922 116.304C511.022 116.604 515.422 117.704 516.722 116.004C518.022 114.404 519.622 111.904 519.922 111.004C520.222 110.104 520.422 106.304 520.222 105.504C520.022 104.704 518.622 99.804 518.222 98.804C517.822 97.904 516.822 91.004 516.722 89.804C518.522 89.204 520.522 88.404 521.022 87.904C521.622 87.204 521.422 86.404 521.422 86.404C521.422 86.404 513.222 63.404 511.522 62.004C509.822 60.604 497.822 55.504 496.022 54.204C494.222 53.004 493.622 51.804 493.122 50.904C492.822 50.404 492.122 49.504 491.422 48.804C491.322 47.304 490.922 42.504 491.422 42.004C492.022 41.404 495.622 36.404 496.022 32.704C496.422 29.104 496.222 10.304 481.922 10.504C474.222 10.604 470.622 15.704 469.022 20.204C467.422 24.604 468.422 28.704 468.822 29.904C469.222 31.104 469.622 33.104 469.822 34.904C470.022 36.704 469.022 37.504 470.822 39.904C472.622 42.304 474.022 43.104 474.022 43.104C474.022 43.104 473.422 44.504 474.222 45.304C475.022 46.104 475.022 46.104 475.022 46.104L475.622 46.904C474.722 46.904 474.022 47.004 473.722 47.004C473.722 47.004 469.322 51.604 469.022 52.804C468.722 54.004 468.722 54.004 468.722 54.004C468.722 54.004 464.122 57.104 460.922 58.904C457.722 60.704 454.922 61.704 454.522 62.504C454.122 63.304 452.022 66.804 452.122 70.004C452.222 73.204 451.422 76.504 451.422 77.804C451.422 79.004 450.022 82.504 449.722 84.204C449.422 85.904 450.722 85.604 450.522 86.804C450.422 88.004 449.322 89.304 449.822 89.904C449.922 90.004 450.222 90.204 450.622 90.404C450.322 91.304 449.422 94.604 449.322 95.904C449.422 97.404 448.422 104.504 448.922 107.404ZM460.622 99.604C460.622 98.604 460.922 96.904 461.222 95.904C462.022 97.904 462.922 100.404 463.222 101.804C463.422 102.804 463.422 103.804 463.422 104.704C463.122 104.704 462.822 104.704 462.422 104.804C461.522 105.004 460.322 104.904 460.222 104.604C459.922 104.304 460.622 100.704 460.622 99.604Z" fill="#1A1A1A"/>
<path d="M636.623 161.004C635.423 162.904 634.623 164.204 634.923 165.304C635.223 166.304 635.923 171.404 636.523 171.904C636.923 172.204 638.423 174.304 639.823 175.804C639.823 176.504 639.823 177.204 639.823 177.804C639.823 183.704 640.623 189.104 640.423 192.304C640.223 195.504 640.023 198.004 640.023 198.004C640.023 198.004 641.723 198.104 644.423 198.404C644.323 199.204 644.123 201.104 645.023 202.004C646.123 203.204 646.823 203.304 647.023 205.004C647.223 206.604 647.023 207.404 647.923 209.204C648.823 211.004 649.023 212.304 649.123 215.904C649.223 219.504 650.823 224.804 651.823 230.504C652.823 236.204 656.423 246.704 657.523 250.704C658.623 254.604 659.123 255.904 659.123 256.304C659.123 256.804 658.123 257.404 658.323 259.104C658.523 260.804 660.123 262.204 659.323 264.904C658.423 267.704 657.723 268.504 657.323 270.504C656.923 272.504 656.423 276.404 654.923 277.504C653.423 278.604 652.823 277.504 651.723 277.404C650.623 277.304 649.923 278.104 649.823 278.504C649.723 279.004 648.623 279.204 648.623 280.304C648.623 281.404 648.623 286.204 653.523 286.004C658.423 285.804 662.923 285.204 662.923 285.204C662.923 285.204 664.623 279.904 666.123 278.104C667.523 276.404 670.123 272.404 670.923 273.104C671.723 273.904 672.823 275.404 672.923 276.504C672.923 276.904 672.923 277.504 672.823 278.304C672.223 278.604 671.723 278.804 671.423 278.804C670.423 278.704 669.023 277.504 668.923 278.704C668.823 279.904 668.523 280.204 669.523 281.604C670.523 282.904 669.823 282.804 670.723 284.504C671.723 286.104 670.923 286.404 673.723 286.404C676.523 286.404 683.823 286.704 685.123 286.204C686.323 285.704 688.723 279.004 689.623 277.704C690.523 276.404 690.823 274.504 691.323 275.304C691.823 276.104 691.523 277.304 691.523 278.704C691.523 280.104 691.223 282.404 691.323 284.304C691.423 286.204 691.823 286.104 691.823 286.104L693.723 285.904C693.723 285.904 692.023 278.104 693.723 274.104C695.423 270.104 696.623 267.004 696.723 265.904C696.823 264.804 692.723 256.904 693.523 253.104C694.323 249.304 697.223 236.604 698.123 231.404C699.023 226.204 700.123 217.304 699.023 213.104C697.923 208.904 695.823 205.004 695.823 201.604C695.823 200.504 695.723 199.704 695.723 199.204C696.523 199.104 697.023 199.004 697.223 198.904C697.223 198.904 699.123 187.204 699.723 183.204C700.323 179.204 701.223 172.704 702.023 168.504C702.523 165.904 702.623 159.304 702.523 153.704C702.723 152.404 704.523 138.704 705.123 135.004C705.723 131.104 705.723 130.404 706.223 126.704C706.723 123.004 706.123 123.904 706.623 120.704C707.123 117.504 706.923 118.004 707.123 114.504C707.423 110.904 707.423 103.804 707.923 99.704C708.423 95.604 708.823 93.104 708.423 90.504C708.023 88.004 707.823 88.504 707.823 86.304C707.823 84.104 706.523 81.604 706.923 79.304C707.323 77.004 706.423 77.804 706.023 76.904C705.723 76.104 699.723 71.804 697.523 70.004C698.023 69.704 698.223 69.304 698.523 68.604C699.023 67.504 699.923 64.304 700.823 65.204C700.823 65.204 701.123 65.704 701.023 66.304C701.323 65.404 701.423 64.304 700.523 63.804C700.523 63.804 700.223 62.704 701.923 63.504C703.623 64.404 704.823 63.504 704.723 62.604C704.723 62.604 702.723 64.904 701.323 61.604C701.323 61.604 700.423 59.304 702.223 58.004C704.023 56.704 705.923 55.704 706.323 53.204C706.723 50.704 706.623 45.904 704.923 43.904C703.223 41.904 701.623 40.504 701.323 38.304C701.023 36.104 702.323 36.404 700.323 34.904C698.323 33.404 696.623 35.004 695.823 33.104C695.023 31.204 694.823 29.804 693.023 28.804C691.223 27.804 683.423 25.904 681.223 26.304C678.923 26.704 678.923 25.704 676.123 26.404C671.423 27.704 671.623 30.504 669.223 33.904C669.223 33.904 668.423 36.804 667.523 37.704C666.623 38.604 666.723 39.704 667.023 40.204C667.323 40.704 666.923 42.104 666.423 42.604C665.923 43.104 664.623 44.804 664.523 45.504C664.423 46.304 664.023 48.304 664.623 50.504C665.223 52.704 665.023 55.704 665.923 56.504C666.823 57.304 669.523 57.504 670.723 57.504C672.023 57.504 672.023 57.504 672.023 57.504C672.023 57.504 672.323 58.804 672.123 59.804C672.023 60.804 669.323 62.904 668.423 63.604C667.523 64.404 664.123 65.804 660.123 65.804C660.123 65.804 660.423 67.304 661.523 67.204C661.523 67.204 657.823 69.104 655.323 70.904C652.823 72.704 653.923 74.204 653.823 75.004C653.723 75.804 652.723 77.704 652.323 78.804C651.923 79.904 651.523 82.104 651.523 83.404C651.523 84.704 650.623 88.704 650.623 91.304C650.623 93.804 650.123 95.404 649.323 97.804C648.523 100.204 646.123 105.204 645.623 108.404C645.123 111.604 643.623 122.704 643.323 125.104C643.023 127.504 641.523 134.404 641.323 137.504C641.023 140.604 639.323 150.904 639.523 153.804C639.523 153.804 639.723 153.904 640.023 153.904C639.923 154.204 640.023 155.404 639.823 156.504C639.023 157.804 637.823 159.104 636.623 161.004ZM666.323 201.404C666.323 200.904 666.423 200.304 666.423 199.904C667.323 200.004 668.123 200.004 669.023 200.104C671.123 200.304 673.223 200.304 675.323 200.304C675.423 200.904 675.523 201.504 675.623 202.004C675.823 203.204 676.523 204.204 676.923 205.204C677.423 206.304 677.223 208.204 677.723 209.404C678.223 210.604 678.423 213.104 679.023 215.704C679.723 218.304 679.723 223.504 679.823 226.804C679.923 230.004 681.923 244.104 682.523 247.804C683.123 251.504 682.623 256.604 682.123 257.304C681.623 258.004 681.023 258.404 681.323 259.004C681.623 259.704 682.423 261.904 681.623 262.104C680.823 262.304 680.023 262.004 680.523 263.304C681.023 264.604 680.823 265.704 680.323 267.704C679.823 269.704 679.523 271.204 678.523 272.904C677.523 274.504 676.123 275.904 675.323 276.504C675.123 276.704 674.923 276.904 674.523 277.104C674.523 276.704 674.523 276.304 674.523 276.004C674.523 274.204 676.123 268.804 676.523 267.104C676.923 265.404 675.523 263.204 673.323 260.104C671.123 257.004 670.923 259.604 670.323 255.504C669.723 251.404 669.223 240.604 669.223 237.904C669.123 235.204 669.623 227.704 669.623 225.604C669.623 223.504 670.423 221.904 669.223 217.804C668.123 213.704 665.823 209.104 665.623 206.404C665.423 203.804 666.223 202.804 666.323 201.404Z" fill="#212121"/>
<path d="M700.422 66.5039C700.222 67.0039 700.022 67.4039 700.022 67.4039C700.322 67.1039 700.422 66.8039 700.422 66.5039Z" fill="#212121"/>
<path opacity="0.63" d="M85.7225 292.804C88.3225 292.304 88.9225 289.104 88.6225 288.704C88.3225 288.304 87.8225 287.604 83.9225 287.104C80.0225 286.504 68.4225 287.004 68.4225 287.004C68.4225 287.004 67.3224 287.104 65.8224 287.604C64.3224 288.004 63.2225 286.904 63.2225 286.904C61.3225 286.804 46.8225 286.904 45.9225 287.204C44.9225 287.504 45.9225 287.204 45.5225 288.604C45.1225 290.004 45.8225 289.704 45.2225 291.104C44.7225 292.504 45.1224 293.204 44.8224 295.204C44.5224 297.304 45.8224 299.204 45.8224 301.704C45.8224 302.204 45.8225 302.604 45.7225 303.004C44.9225 304.704 44.4225 306.404 44.9225 307.204C44.8225 308.904 44.9225 311.304 45.0225 313.904C45.1225 316.504 44.2225 330.804 43.9225 335.204C43.6225 339.604 43.8224 350.204 44.3224 355.104C44.8224 359.404 45.8225 359.804 45.7225 361.504C45.5225 362.704 44.9225 363.704 45.0225 364.904C45.0225 365.104 45.0225 365.504 45.0225 365.904C44.5225 369.604 44.0225 374.804 43.9225 376.104C43.6225 376.304 43.3225 376.104 43.1225 375.904C43.1225 375.804 43.0225 375.704 43.0225 375.704C42.4225 374.604 42.3225 370.504 42.4225 366.704C42.4225 366.104 42.5225 365.504 42.5225 364.904C42.6225 363.604 42.7224 362.504 42.8224 361.704C43.2224 358.104 40.2224 330.704 39.8224 326.504C39.4224 322.204 37.0225 310.004 36.4225 308.204C35.7225 306.404 38.1225 299.804 38.1225 298.304C38.1225 296.804 36.6225 293.604 37.0225 292.104C37.4225 290.604 38.4225 288.804 37.6225 288.104C36.8225 287.404 29.6225 287.104 29.2225 287.004C22.1225 284.604 14.1225 287.004 13.2225 287.304C12.4225 287.604 13.2224 289.404 12.8224 290.704C12.4224 292.104 12.9225 292.604 12.7225 295.004C12.4225 297.304 13.1224 297.504 12.8224 298.704C12.5224 299.904 11.8225 302.304 11.7225 304.204C11.6225 306.104 9.82245 323.604 9.82245 330.704C9.82245 337.904 10.6225 342.804 11.0225 350.204C11.4225 357.604 11.0225 377.904 11.6225 383.504C11.9225 386.404 12.4225 392.504 12.7225 398.004C12.6225 398.004 12.5225 398.004 12.4225 398.104C11.5225 398.404 8.72246 400.004 8.22246 400.804C7.72246 401.604 7.92245 403.704 7.62245 404.604C7.32245 405.504 7.72245 406.204 7.82245 407.404C7.92245 408.604 8.62245 413.204 8.62245 413.204C8.62245 413.204 8.72245 413.204 8.82245 413.204C8.72245 413.304 8.62246 413.404 8.52246 413.504C8.42246 414.304 7.42246 421.504 6.72246 423.004C6.02246 424.504 3.32246 424.604 3.02246 426.604C2.72246 428.504 5.22245 436.904 5.12245 439.304C5.02245 441.604 1.72245 448.004 1.12245 450.304C0.522452 452.604 0.822461 466.004 0.522461 472.704L88.8224 460.704C89.2224 458.104 87.3225 450.404 87.6225 447.104C87.9225 443.804 88.8224 439.504 88.8224 436.904C88.8224 434.304 87.7224 427.504 87.3224 426.904C86.9224 426.204 87.0225 416.904 86.6225 416.304C86.5225 416.104 86.2224 416.004 85.8224 415.904C85.8224 415.904 85.9225 414.104 86.0225 413.504C86.1225 412.804 88.7225 404.204 88.5225 403.504C88.3225 402.804 87.4225 401.704 87.0225 401.104C86.6225 400.504 85.3225 396.704 84.7225 395.904C84.1225 395.104 80.7225 393.704 79.9225 393.604C79.2225 393.504 77.9225 393.504 77.6225 393.704C77.3225 393.804 77.9225 394.504 78.1225 394.904C78.4225 395.404 80.6225 395.704 80.6225 395.704C80.6225 395.704 80.9225 396.504 80.6225 396.704C80.3225 396.804 79.2225 397.104 78.7225 397.204C78.2225 397.304 78.1225 397.104 77.5225 397.104C77.2225 397.104 77.1225 397.104 76.9225 397.304C76.7225 394.104 75.9225 382.904 75.1225 380.504C74.3225 378.004 72.6225 363.304 73.6225 357.404C74.6225 351.504 77.0224 324.504 76.8224 321.604C76.5224 318.704 74.2225 308.904 73.6225 307.804C73.1225 306.704 74.7225 299.704 74.7225 298.904C74.7225 298.104 74.0225 297.404 75.1225 294.904C76.0225 292.004 83.1225 293.404 85.7225 292.804ZM82.9225 415.004C82.8225 415.004 82.6225 415.004 82.5225 414.904C82.7225 415.004 82.8225 415.004 82.9225 415.004Z" fill="url(#paint0_linear_374_100)"/>
<path opacity="0.63" d="M167.622 448.204C166.522 445.604 163.022 434.104 162.822 433.704C162.622 433.204 163.222 431.404 163.322 430.304C163.422 429.204 164.222 426.304 164.222 425.104C164.222 423.904 166.022 418.004 166.022 417.604C166.022 417.204 163.122 416.404 162.422 415.204C162.022 414.504 161.822 413.604 161.822 412.704C161.922 412.804 161.922 412.804 161.922 412.804C161.922 412.504 161.922 412.104 161.822 411.504C161.822 411.404 161.822 411.204 161.822 411.104C161.922 409.804 161.722 407.304 161.522 404.504C161.322 401.704 159.022 392.404 158.222 389.504C157.422 386.604 156.222 370.604 155.322 369.704C155.222 369.604 154.722 369.504 154.022 369.404C153.822 368.704 153.422 366.204 153.122 361.804C153.922 355.504 153.622 348.904 151.822 338.304C150.022 327.704 145.122 309.004 145.122 309.004C144.722 305.704 145.122 305.704 144.322 304.004C143.522 302.304 144.622 301.804 144.222 297.804C144.222 297.804 145.222 293.304 147.722 289.704C148.722 288.204 145.622 287.204 145.622 287.204H132.622C132.622 287.204 132.722 287.904 132.822 288.704C132.822 288.204 132.722 287.604 132.622 287.204L119.722 287.104C119.722 287.104 119.322 287.704 119.322 288.404C119.322 289.104 117.322 294.404 115.622 298.604C113.922 302.804 115.222 301.504 116.522 307.504C117.822 313.504 116.022 315.204 114.022 321.704C112.022 328.104 109.722 337.704 108.722 342.404C107.822 347.104 109.422 359.604 110.422 362.604C111.022 364.304 111.122 366.204 111.022 367.604C109.722 367.804 109.222 369.204 109.022 369.604C108.822 370.104 107.522 373.704 106.822 376.804C106.122 379.904 104.822 406.404 104.822 407.804C104.822 409.204 104.322 411.404 104.222 412.304C104.122 413.204 104.722 416.704 104.722 417.104C104.722 417.504 104.222 417.804 103.022 418.504C101.822 419.204 100.222 419.504 100.222 420.404C100.122 421.304 103.422 431.804 104.022 434.504C104.522 437.204 104.922 439.304 104.822 439.704C104.722 440.204 103.722 440.604 103.422 440.804C103.122 441.104 103.922 441.504 104.222 442.104C104.522 442.704 104.322 444.504 104.322 444.504C102.222 448.504 100.522 453.704 99.5221 456.304C98.4221 458.904 98.8221 461.804 98.6221 464.404L168.122 467.504C168.522 465.304 169.222 458.304 169.422 457.104C169.622 455.904 169.522 454.704 169.522 452.604C169.522 450.904 168.722 450.904 167.622 448.204ZM137.122 365.204C136.922 367.104 136.422 368.304 135.922 369.004C133.322 368.904 130.922 368.804 129.122 368.604C129.122 368.604 129.122 368.604 129.122 368.504C128.722 366.904 126.722 359.204 126.322 356.704C125.922 354.204 126.622 344.104 126.722 339.204C126.822 334.304 126.322 328.404 126.322 326.204C126.322 324.004 126.422 312.004 126.822 311.004C127.222 309.904 127.522 308.904 127.722 308.104C128.022 307.304 128.022 304.604 128.822 302.704C129.522 301.104 131.622 296.204 132.522 293.804C132.022 296.904 131.222 299.704 131.022 301.004C130.622 303.104 133.122 306.604 133.922 307.704C134.722 308.804 135.522 309.304 135.522 310.904C135.522 312.504 135.822 318.304 135.922 322.704C136.022 327.204 135.422 337.304 135.522 340.804C135.622 344.304 136.322 348.704 137.522 353.704C138.722 358.704 137.422 361.904 137.122 365.204ZM156.422 459.204C156.422 459.504 156.322 459.804 156.122 460.104C155.722 460.904 155.322 461.104 155.022 461.604V461.704C154.922 460.604 154.922 458.504 154.922 457.704C155.022 456.604 155.122 456.804 155.322 456.104C155.522 455.404 155.822 455.104 155.822 455.104C155.822 455.104 156.422 457.504 156.422 458.104C156.522 458.504 156.522 458.904 156.422 459.204Z" fill="url(#paint1_linear_374_100)"/>
<path opacity="0.63" d="M255.523 451.304C255.123 451.104 257.323 443.604 256.823 441.404C256.323 439.304 253.123 437.304 251.023 436.204C249.223 435.304 247.723 435.504 246.923 435.704V435.604C246.823 434.904 246.923 433.904 247.523 431.404C248.123 428.904 254.623 421.504 254.623 419.304C254.623 417.104 253.623 415.304 252.923 414.304C252.223 413.304 252.123 410.504 251.723 405.504C251.423 400.504 251.623 398.404 251.023 392.304C250.423 386.304 245.823 367.304 244.423 363.704C243.023 360.104 241.623 345.504 241.623 340.704C241.623 335.904 240.823 321.904 240.623 319.204C240.523 316.404 237.923 302.504 237.923 299.104C237.923 295.704 239.123 297.604 240.323 295.904C241.623 294.204 241.123 293.604 242.323 292.704C243.523 291.904 243.923 291.104 246.223 289.604C248.523 288.104 253.223 288.104 254.323 287.504C255.423 286.904 255.923 285.204 255.723 284.704C255.523 284.304 254.223 283.404 251.023 283.204C247.823 283.004 238.023 283.804 236.823 283.904C235.623 284.004 234.723 283.304 234.123 283.404C232.323 283.804 218.323 283.504 218.323 283.504C218.323 283.504 218.423 284.704 218.423 288.204C218.423 291.704 219.523 293.104 219.723 296.804C219.923 300.504 218.523 300.804 219.123 304.404C219.623 308.004 220.223 305.104 220.423 308.404C220.623 311.704 220.323 312.504 221.423 318.104C222.523 323.604 222.123 332.804 222.023 336.604C221.923 340.304 222.623 342.004 222.523 344.904C222.423 347.804 222.523 348.904 222.123 351.704C221.723 354.504 222.923 353.804 223.123 356.204C223.223 358.504 222.423 359.204 221.923 361.504C221.523 363.804 222.323 369.804 222.223 372.604C222.123 375.504 222.023 374.704 222.123 376.804C222.223 378.904 222.423 381.804 222.223 383.404C222.023 385.004 222.423 383.904 222.923 385.504C223.423 387.104 222.423 387.404 222.123 388.704C221.823 390.004 221.823 392.304 221.823 393.204C221.823 393.604 221.723 393.604 221.423 393.504C221.023 392.804 220.523 391.804 219.523 390.304C219.223 389.804 218.823 389.204 218.523 388.604C218.023 387.504 217.623 386.304 217.123 385.004C215.423 379.904 214.423 373.804 213.923 372.604C213.523 371.404 212.823 365.404 212.223 361.104C212.023 359.204 211.923 357.504 211.823 356.204C211.723 350.804 210.423 338.704 210.523 334.504C210.623 330.304 207.623 313.604 207.223 311.804C206.823 310.004 209.723 303.104 210.023 302.304C210.223 301.504 209.923 298.604 209.623 297.404C209.323 296.204 210.923 294.904 210.723 294.104C210.523 293.404 209.323 292.404 208.923 292.104C208.523 291.804 209.323 291.304 210.523 290.204C211.723 289.104 214.023 288.804 214.523 288.204C215.023 287.604 215.523 285.704 215.323 285.104C215.223 284.604 214.323 283.704 211.423 283.504C208.423 283.304 206.023 283.704 205.423 283.804C204.823 283.904 203.823 283.204 203.523 283.204C194.323 283.204 189.223 283.704 189.223 283.704C189.223 283.704 189.423 285.204 189.323 286.604C189.223 288.004 189.123 289.904 188.523 291.404C187.923 292.904 188.523 292.704 188.623 294.604C188.723 296.504 189.323 296.504 189.423 299.404C189.523 302.304 189.123 303.504 188.923 304.204C188.723 304.804 189.123 308.804 189.023 311.104C188.923 313.404 189.223 314.404 188.923 317.504C188.623 320.604 188.323 322.504 188.223 325.904C188.123 329.304 186.923 338.404 186.823 341.104C186.723 343.804 187.323 344.904 187.623 347.304C187.923 349.604 187.723 355.704 187.623 357.104C187.523 358.504 187.923 360.404 188.023 362.604C188.123 364.804 188.623 368.304 189.423 370.704C190.123 373.004 190.123 373.104 190.023 375.104C189.923 377.004 189.523 378.704 189.523 380.004C189.523 381.304 189.823 381.904 190.223 383.404C190.623 384.904 190.423 385.004 189.923 386.104C189.423 387.204 189.823 387.604 189.623 389.104C189.423 390.604 189.923 392.004 189.923 392.704C189.923 393.404 190.123 394.904 189.723 395.704C189.323 396.404 189.823 396.404 189.923 398.504C190.023 400.504 190.223 402.104 189.923 404.204C189.623 406.304 190.423 408.204 190.323 410.504C190.223 412.704 191.323 415.404 190.923 416.804C190.623 418.204 190.823 419.004 191.523 420.804C192.223 422.604 193.923 427.604 193.923 430.204C193.923 432.904 193.823 437.904 193.823 437.904H193.923C192.823 438.504 190.423 439.804 190.423 439.804C190.423 439.804 188.823 440.904 190.123 443.104C191.623 445.804 190.423 451.404 191.123 454.104C191.723 456.904 191.123 460.704 191.223 462.104C191.323 463.504 191.223 466.704 191.123 467.504C191.023 468.304 189.923 468.904 189.023 471.204C188.023 473.504 187.023 476.904 186.823 478.204L258.123 473.304C258.723 470.104 258.523 463.204 258.623 458.604C259.023 453.304 255.923 451.504 255.523 451.304Z" fill="url(#paint2_linear_374_100)"/>
<path opacity="0.63" d="M440.423 353.404L431.723 348.304C431.723 348.304 430.723 347.304 430.423 347.404C430.123 347.504 429.923 348.404 429.623 348.304C429.423 348.204 423.923 348.504 423.923 348.504C423.923 348.504 423.223 348.004 422.923 347.904C423.123 345.204 423.423 339.704 423.423 338.304C423.423 336.604 423.923 325.304 423.923 323.504C423.923 321.704 421.923 313.504 421.923 312.604C421.923 311.704 421.023 308.404 421.423 307.004C421.623 306.304 421.923 305.204 422.223 304.204C422.623 302.804 423.023 301.504 423.223 300.604C423.423 300.204 423.523 299.904 423.523 299.504C423.523 299.404 423.523 299.304 423.423 299.204C423.123 298.504 421.723 297.604 421.223 297.004C420.623 296.404 419.423 294.904 419.223 294.004C419.023 293.104 419.723 292.004 420.423 291.404C421.223 290.804 423.123 289.904 424.523 289.604C425.923 289.304 427.223 287.804 427.523 286.704C427.823 285.604 428.623 285.304 428.023 284.404C427.423 283.504 426.323 282.704 425.123 282.704C423.923 282.704 400.623 281.904 399.323 282.504C399.323 282.504 398.823 287.504 399.323 288.704C399.823 289.904 397.623 293.204 397.623 294.904C397.623 296.604 400.323 307.304 400.523 310.204C400.723 313.104 399.323 312.904 399.323 316.504C399.323 320.104 400.223 334.204 400.523 338.704C400.623 339.904 400.523 341.404 400.423 343.104C400.123 345.504 399.823 348.604 399.523 351.804C399.223 353.804 398.923 355.704 398.723 357.104C398.023 361.504 397.123 370.504 396.023 374.604C395.923 374.804 395.923 375.004 395.823 375.304C395.323 376.804 395.123 378.204 395.023 379.404C395.023 379.504 395.023 379.604 395.023 379.704C394.923 381.304 394.923 382.804 394.523 384.504C394.023 386.704 393.223 390.804 392.723 393.004C392.423 394.004 392.223 394.604 392.123 394.604C391.623 394.404 390.623 390.804 390.023 389.204C389.423 387.504 386.723 374.104 386.123 372.004C385.523 369.904 384.023 362.504 384.123 361.004C384.323 359.504 383.223 358.104 382.623 356.804C382.023 355.404 381.423 354.104 381.423 353.004C381.423 351.904 381.923 351.004 381.723 350.104C381.523 349.204 380.223 348.104 380.323 346.004C380.523 343.904 380.123 341.304 379.723 339.804C379.223 338.304 377.023 327.604 375.923 324.104C374.823 320.604 376.423 317.604 376.423 315.604C376.423 313.604 379.323 311.404 379.723 309.104C380.223 306.804 377.723 301.104 377.723 299.004C377.723 296.904 376.223 292.204 375.723 290.504C375.223 288.804 374.523 288.504 375.123 287.604C375.723 286.704 376.923 284.904 376.223 283.404C375.423 281.904 372.923 281.704 372.323 281.904C371.723 282.104 358.623 282.104 358.623 282.104C358.623 282.104 357.223 284.504 357.723 285.304C358.223 286.104 358.523 288.004 358.323 290.104C358.123 292.204 357.223 295.204 357.123 297.704C357.023 300.104 355.923 301.204 355.723 304.204C355.523 307.204 356.623 331.704 357.423 335.604C358.223 339.504 359.423 358.704 359.523 362.004C359.723 365.304 360.023 380.404 359.823 383.304C359.723 385.904 359.823 403.604 360.623 411.504C360.323 411.604 360.123 411.704 360.023 411.804C359.723 411.904 359.023 415.304 358.623 416.704C358.223 418.004 357.823 419.104 357.723 420.204C357.723 420.704 357.623 421.404 357.523 421.704C356.523 421.804 355.623 422.104 355.523 422.204C355.323 423.104 355.223 423.604 355.123 423.904C354.723 423.904 354.523 423.904 354.523 423.904C354.523 423.904 354.423 424.604 354.423 425.004C354.423 425.404 353.323 430.104 352.723 432.104C352.123 434.104 351.623 441.204 351.623 441.204C351.623 441.204 350.823 449.104 349.923 458.304L431.323 474.004C431.823 468.904 431.923 467.204 432.523 465.704C433.123 464.204 433.623 456.504 433.723 454.204C433.823 451.904 434.923 450.304 435.123 448.604C435.323 446.904 435.423 439.804 435.923 438.304C436.423 436.804 437.023 432.304 437.023 429.204C437.023 426.204 437.823 419.504 437.823 419.504C437.823 419.504 437.423 419.004 436.423 418.404C436.923 418.504 437.123 418.604 437.123 418.604L437.023 416.704L436.523 416.604C436.723 416.004 437.523 411.704 437.323 411.204C437.123 410.704 437.523 409.204 437.023 408.604C436.523 407.904 435.923 407.104 435.523 406.604C435.123 406.104 435.423 405.404 434.223 404.504C434.223 404.204 434.223 404.004 434.223 404.004C434.223 404.004 440.523 403.704 441.223 403.604C442.023 403.504 443.123 402.904 443.023 401.904C442.923 400.804 441.323 354.204 441.323 354.204L440.423 353.404ZM427.623 401.704C427.623 401.904 427.623 402.204 427.523 402.404C427.423 402.204 427.323 402.104 427.323 402.104C426.823 401.604 425.823 401.204 425.023 401.604C424.223 402.104 425.223 403.604 425.323 404.904C425.523 406.204 426.423 409.104 425.923 410.404C425.423 411.704 425.723 414.204 425.723 415.004C425.623 415.804 425.923 417.304 425.923 417.404C425.923 417.404 425.423 420.104 425.123 421.204C424.823 422.304 424.223 425.104 423.723 426.604C423.223 428.104 422.523 428.704 422.523 428.704C422.523 428.704 422.823 419.804 423.023 416.004C423.223 412.204 423.323 411.404 423.323 411.404C423.323 411.404 423.523 408.304 423.523 407.404C423.523 406.904 422.923 406.704 422.923 406.004C422.723 403.804 423.423 401.004 423.523 400.204C423.623 399.004 424.123 396.904 424.223 395.404C425.423 397.104 427.423 399.604 427.823 399.904C428.423 400.304 428.723 400.404 428.723 400.404C428.723 400.404 427.723 401.204 427.623 401.704ZM429.723 409.004C429.623 409.604 429.323 409.504 429.323 409.504C429.323 409.304 429.323 409.104 429.323 408.804C429.423 408.904 429.523 408.904 429.723 409.004Z" fill="url(#paint3_linear_374_100)"/>
<path opacity="0.63" d="M516.722 453.904C515.422 452.304 511.022 453.304 509.922 453.604C508.922 453.904 508.122 454.904 507.722 455.604C507.022 454.604 506.822 454.504 505.822 453.804C505.422 453.504 505.022 453.404 504.522 453.304C504.722 453.104 505.022 451.404 504.822 450.404C505.122 449.804 505.922 448.804 507.222 446.004C509.122 442.004 511.622 440.604 513.222 434.504C514.522 429.904 514.222 421.604 513.422 416.604C513.022 413.904 510.522 405.404 509.422 401.404C508.422 397.404 499.622 369.304 498.622 364.304C497.622 359.304 494.222 339.904 493.822 336.204C493.422 332.504 495.022 313.704 495.322 311.204C495.522 308.704 494.322 297.504 494.322 295.804C494.322 294.104 494.722 289.604 494.722 289.604C497.422 289.004 501.222 287.304 501.222 286.304C501.222 285.304 496.022 284.604 491.622 284.604C487.222 284.604 482.922 285.404 482.222 286.304C481.622 287.104 481.822 287.304 480.722 288.404C479.722 289.404 477.222 291.504 475.522 291.504C473.822 291.504 474.922 284.804 474.922 284.804H469.122C469.122 284.804 469.322 285.804 469.122 289.404C468.922 292.904 468.522 295.204 468.122 296.304C467.722 297.304 468.922 300.504 469.822 301.504C470.622 302.504 469.822 301.504 470.422 303.604C471.022 305.704 472.722 308.804 472.522 310.904C472.322 313.004 472.722 315.104 472.922 316.904C473.122 318.804 474.422 325.904 474.622 328.404C474.822 330.904 474.222 341.104 473.422 347.104C472.622 353.104 468.422 381.904 465.922 394.204C463.422 406.504 461.722 411.304 461.122 415.404C460.522 419.604 461.322 430.004 461.922 434.804C462.522 439.604 465.922 446.004 465.922 446.704C465.922 446.904 465.922 447.504 466.022 448.304C465.622 449.404 465.822 452.104 466.222 452.404C466.222 452.404 466.322 452.504 466.422 452.504C466.422 452.804 466.422 453.004 466.422 453.004C465.722 453.004 465.022 452.904 463.622 453.704C463.422 453.804 463.222 453.904 463.122 454.004C461.322 453.704 455.922 453.204 454.622 452.904C453.022 452.504 452.022 452.404 450.922 453.604C449.822 454.804 449.422 459.504 448.922 462.404C448.422 465.304 449.422 472.404 449.522 473.904L461.022 473.404C460.822 472.404 460.622 471.104 460.622 470.204C460.622 469.204 460.022 465.504 460.122 465.204C460.222 464.904 461.322 464.804 462.322 465.004C462.722 465.104 463.022 465.104 463.322 465.104C463.422 466.004 463.422 467.004 463.122 468.004C462.822 469.304 462.122 471.404 461.422 473.304L518.322 470.904C518.722 469.904 520.122 465.004 520.322 464.204C520.522 463.404 520.322 459.604 520.022 458.704C519.622 458.104 518.022 455.604 516.722 453.904Z" fill="url(#paint4_linear_374_100)"/>
<path opacity="0.63" d="M330.422 397.104C330.522 397.104 330.623 397.104 330.623 397.104C330.523 397.104 330.422 397.104 330.222 397.104C329.422 396.804 328.022 396.604 326.322 396.504C325.822 393.604 324.722 382.604 323.522 378.204C322.222 373.104 324.522 370.404 326.222 364.104C327.922 357.804 325.623 341.604 325.123 338.104C324.623 334.504 322.222 324.904 321.822 323.504C321.422 322.104 321.522 320.904 321.522 320.004C321.522 319.104 323.423 311.504 323.623 310.104C323.823 308.704 322.222 304.604 321.422 302.804C320.622 301.004 320.922 297.104 320.322 295.504C319.722 293.904 319.123 291.804 319.123 291.804C319.123 291.804 308.822 291.104 307.522 292.204C306.222 293.304 306.323 297.204 306.623 298.304C307.023 299.404 310.222 305.904 310.222 307.104C310.322 308.304 312.122 312.204 312.222 313.004C312.322 313.804 312.422 316.504 312.922 317.704C313.422 318.904 314.023 321.804 314.623 324.504C315.323 327.204 313.322 338.904 313.022 342.004C312.722 345.104 311.322 356.704 310.822 359.404C310.322 362.104 309.622 365.004 308.422 367.204C307.222 369.404 307.022 371.904 306.922 374.704C306.822 377.504 306.322 381.804 306.322 381.804C305.422 385.504 304.422 391.904 303.922 395.504C301.922 395.504 299.922 395.404 298.022 395.504C297.822 394.404 297.522 393.104 297.222 392.304C296.622 390.604 295.222 386.804 294.722 384.704C294.222 382.604 294.322 378.004 293.722 375.004C293.122 372.004 291.922 365.404 291.222 363.804C290.522 362.204 292.123 359.604 292.123 354.304C292.123 349.004 291.322 345.704 289.222 339.004C287.122 332.404 286.522 321.704 286.722 319.404C286.722 319.404 290.423 316.804 290.623 314.104C290.823 311.404 290.222 307.104 289.522 305.204C288.822 303.304 287.922 296.304 287.722 292.104H285.722C285.722 292.104 285.922 302.004 285.222 302.104C284.522 302.204 283.722 299.604 283.222 297.304C282.722 295.004 283.222 293.504 282.722 293.204C282.222 292.904 281.322 291.704 275.722 291.804C270.122 291.904 270.622 292.704 270.422 293.004C270.222 293.404 268.222 296.704 270.222 298.404C272.222 300.104 273.223 299.604 273.623 300.404C274.023 301.204 275.823 303.604 276.123 305.504C276.423 307.404 276.622 310.004 277.222 311.004C277.822 312.004 277.923 319.704 277.623 322.704C277.323 325.704 276.023 339.004 275.623 343.204C275.223 347.304 274.922 351.704 276.422 361.504C276.622 370.504 275.422 376.504 275.422 380.604C275.422 384.204 274.922 393.904 274.822 396.404C274.622 396.404 274.522 396.404 274.522 396.404C274.522 396.404 274.522 396.504 274.522 396.604H274.422C274.422 396.604 274.422 396.604 274.522 396.604C274.522 397.304 274.522 399.704 274.522 400.404C274.522 401.204 274.823 408.504 274.623 410.304C274.523 412.104 275.022 417.504 274.722 419.004C274.422 420.504 274.222 423.104 274.222 423.904C274.222 424.704 274.722 425.904 275.222 426.804C275.722 427.704 276.023 428.604 276.123 429.604C276.123 430.004 276.322 430.404 276.422 430.904C276.422 431.304 276.222 432.804 276.722 435.204C277.222 437.904 277.323 437.204 277.123 439.204C276.823 441.104 277.623 439.804 278.123 441.404C278.623 442.904 278.722 443.204 278.922 444.504C279.022 445.804 279.322 446.004 279.422 447.104C279.522 448.104 280.222 447.704 280.022 449.104C279.922 450.004 280.022 450.004 280.222 450.204C279.822 450.204 279.322 450.404 278.222 451.004C275.922 452.204 276.422 455.204 275.922 458.304L329.522 468.404C328.522 464.404 327.822 462.804 327.522 460.504C327.222 458.104 327.123 458.504 327.123 456.504C327.023 454.504 326.623 452.704 326.123 451.204C325.623 449.704 325.723 450.404 325.623 449.704C325.623 449.204 325.422 448.604 325.422 448.104C325.922 446.904 326.522 445.604 326.722 444.704C327.222 442.904 328.122 441.804 328.522 439.204C328.822 437.104 328.522 431.004 328.422 429.004C329.922 423.604 330.922 397.904 330.922 397.904C330.722 397.204 330.522 397.104 330.422 397.104Z" fill="url(#paint5_linear_374_100)"/>
<path opacity="0.63" d="M629.723 458.904C629.623 457.404 630.023 456.804 629.023 455.404C628.023 454.004 628.023 452.804 627.223 451.004C626.423 449.204 625.923 447.704 625.323 445.204C624.623 442.704 625.223 442.004 624.923 440.104C624.623 438.204 624.823 438.204 623.923 437.004C623.123 435.904 622.123 434.204 620.823 433.104C619.623 432.004 618.323 431.404 617.523 430.904C616.723 430.304 615.323 428.304 614.623 428.404C614.123 428.504 612.123 428.504 610.923 428.804C610.923 427.204 610.423 426.504 610.823 423.504C611.323 418.904 610.623 409.504 610.923 406.604C611.223 403.704 609.023 399.704 608.523 397.704C608.023 395.704 608.223 388.904 607.923 387.004C607.623 385.004 607.823 385.204 607.923 381.004C608.023 376.704 607.223 365.904 608.323 362.304C609.423 358.804 609.123 360.104 609.223 358.304C609.323 356.504 609.123 353.504 609.123 350.604C609.123 347.704 609.723 344.204 610.923 341.104C612.023 338.004 611.323 334.704 612.023 329.004C612.723 323.304 612.323 313.604 612.523 312.004C612.723 310.404 613.423 305.504 613.223 305.104C613.023 304.704 612.123 300.104 611.423 299.804C610.823 299.504 611.123 298.004 611.123 296.804C611.123 295.504 612.423 295.704 612.923 294.904C613.423 294.204 613.323 294.004 613.623 293.004C613.923 292.104 615.223 291.504 615.323 290.604C615.423 289.704 615.623 287.904 615.323 287.504C615.023 287.104 613.223 286.904 612.623 286.804C612.023 286.704 608.023 286.104 603.323 286.104C598.623 286.104 599.023 286.504 598.623 286.904C598.223 287.304 598.223 292.704 598.023 294.704C597.823 296.704 597.123 297.304 596.523 300.104C596.023 302.904 594.623 303.304 594.523 306.404C594.423 309.404 593.723 318.504 593.623 322.104C593.523 325.704 593.123 328.104 593.223 330.904C593.323 333.604 592.623 343.804 592.423 346.904C592.223 350.004 591.723 351.004 591.023 354.104C590.423 357.204 590.723 356.304 590.523 358.604C590.323 360.904 590.523 362.504 590.223 363.704C589.923 365.004 588.723 368.204 588.523 370.304C588.323 372.404 587.123 377.104 587.323 378.904C587.423 380.804 586.623 381.804 585.623 384.404C584.723 387.004 584.123 391.804 584.223 393.604C584.323 395.404 584.223 394.804 583.923 396.404C583.623 398.004 583.223 397.204 582.423 398.604C582.023 399.404 581.923 400.904 581.823 402.104C581.723 402.204 581.723 402.404 581.523 402.504C580.723 403.504 579.923 404.004 579.423 404.004C579.223 404.004 579.123 404.104 579.023 404.204C578.923 403.804 578.823 403.404 578.623 403.004C577.823 401.104 577.723 400.704 576.623 399.004C575.623 397.304 576.523 396.804 576.423 394.404C576.423 394.304 576.423 394.204 576.423 394.204C576.423 393.704 576.523 393.304 576.523 392.904C576.523 392.404 576.423 391.404 576.323 390.404C576.223 387.604 576.223 384.504 576.023 383.704C575.723 382.304 574.723 381.904 575.023 379.904C575.223 377.904 575.123 373.604 574.823 371.004C574.523 368.404 574.423 364.004 574.023 363.204C573.623 362.404 572.823 359.104 572.523 358.304C572.323 357.504 572.923 353.504 572.923 352.204C572.923 350.804 572.623 350.404 572.523 348.304C572.423 346.204 570.523 320.404 570.423 316.604C570.323 312.804 569.223 301.504 568.823 300.604C568.523 299.704 568.323 298.504 568.123 297.204C567.923 295.804 568.223 292.704 568.123 292.004C568.023 291.304 567.923 286.604 567.923 286.604C566.223 285.904 555.323 286.104 555.323 286.104L554.423 285.404C554.423 285.404 554.723 286.704 553.423 286.504C552.223 286.304 545.123 286.104 544.223 286.204C543.423 286.304 542.523 286.704 542.323 287.704C542.123 288.604 542.723 290.904 543.523 291.804C544.323 292.604 546.223 292.404 546.923 292.404C547.623 292.404 547.723 293.504 548.923 294.504C550.023 295.404 551.123 296.304 551.623 297.404C552.123 298.504 552.023 299.104 552.123 300.504C552.223 302.004 552.223 306.104 552.223 310.504C552.223 314.904 551.423 317.404 551.623 320.204C551.823 323.004 552.823 330.904 553.523 335.004C554.123 339.104 553.823 342.904 554.323 348.104C554.823 353.304 552.823 369.304 552.223 376.104C551.623 383.004 549.723 388.604 549.723 388.604C548.923 392.104 547.423 398.904 547.323 400.904C547.223 402.804 546.723 407.204 546.623 410.004C546.523 412.804 546.023 420.104 546.023 420.804C546.023 421.104 546.123 421.504 546.123 422.104C546.123 422.004 546.023 421.904 546.023 421.904C543.523 420.804 543.223 422.204 542.423 422.304C541.623 422.404 542.023 428.104 542.023 429.704C542.023 430.004 541.923 430.304 541.623 430.804C540.423 431.604 538.023 433.104 538.523 434.904H538.623C537.923 435.904 537.323 436.804 537.023 437.704C536.223 440.304 536.323 443.404 536.223 445.104C536.123 446.804 536.623 448.004 537.023 450.504C537.423 453.004 536.023 454.504 536.423 458.004C536.823 461.504 536.523 461.504 536.523 464.304C536.523 467.104 537.823 480.004 538.123 483.004L628.923 482.504C629.523 480.304 629.423 467.704 629.823 465.704C630.223 463.604 629.923 464.404 629.723 463.204C629.723 461.904 629.823 460.404 629.723 458.904ZM539.623 434.004C539.823 433.704 540.023 433.404 540.323 433.104C540.023 433.504 539.823 433.804 539.623 434.004ZM553.523 446.004C553.523 446.304 553.523 447.004 553.423 447.604C553.123 447.404 552.923 447.204 552.623 447.004C552.423 446.804 552.223 446.704 552.123 446.704C552.423 446.904 552.923 447.004 552.623 446.504C552.023 445.404 552.623 446.504 553.323 445.504C553.423 445.404 553.423 445.304 553.523 445.204C553.523 445.604 553.523 445.804 553.523 446.004ZM614.623 469.404C614.523 470.604 614.623 471.504 613.923 472.504C613.423 473.204 612.823 474.604 612.223 475.604C612.023 475.804 611.823 476.004 611.723 476.104C611.323 476.404 611.223 476.704 611.023 477.004C610.723 476.904 610.523 476.204 610.223 475.704C609.823 475.004 610.323 471.804 609.423 470.604C608.423 469.304 608.323 466.404 608.123 465.204C608.023 463.904 608.823 463.704 608.923 462.404C609.023 461.104 608.923 451.704 607.923 451.304C607.323 451.004 606.623 450.504 605.823 450.104C606.023 449.904 606.223 449.604 606.323 449.304C606.423 448.904 607.723 443.404 608.823 438.404C608.723 439.204 608.723 439.704 609.123 440.304C609.723 441.004 610.123 441.104 609.923 442.204C609.823 443.304 609.923 444.104 609.823 446.004C609.723 447.804 609.523 449.204 610.223 450.604C610.623 451.404 610.923 451.504 611.423 451.704C612.623 453.004 614.423 455.404 614.523 455.704C614.523 455.704 614.623 455.704 614.823 455.804C614.923 456.004 614.923 456.204 615.023 456.404C615.323 457.804 614.723 460.004 614.223 461.704C613.723 463.204 614.823 468.204 614.623 469.404Z" fill="url(#paint6_linear_374_100)"/>
<path opacity="0.63" d="M705.622 445.904C705.122 442.204 705.122 441.604 704.522 437.604C703.922 433.804 702.122 420.204 701.922 418.904C702.122 413.304 701.922 406.704 701.422 404.104C700.622 399.904 699.722 393.404 699.122 389.404C698.522 385.404 696.622 373.704 696.622 373.704C696.422 373.604 695.922 373.504 695.122 373.404C695.122 372.904 695.122 372.204 695.222 371.004C695.322 367.704 697.322 363.704 698.422 359.504C699.522 355.304 698.422 346.304 697.522 341.204C696.622 336.004 693.722 323.304 692.922 319.504C692.122 315.704 696.222 307.804 696.122 306.704C696.022 305.604 694.922 302.504 693.122 298.504C691.422 294.504 693.122 286.004 693.122 286.004H691.122C691.122 286.004 690.822 286.304 690.722 288.204C690.622 290.104 690.922 292.404 690.922 293.804C690.922 295.204 691.222 296.504 690.722 297.204C690.222 298.004 689.822 296.204 689.022 294.804C688.122 293.504 685.822 286.804 684.522 286.304C683.322 285.804 675.922 286.104 673.122 286.104C670.322 286.104 671.122 286.404 670.122 288.004C669.122 289.604 669.822 289.504 668.922 290.904C667.922 292.204 668.222 292.504 668.322 293.804C668.422 295.004 669.722 293.804 670.822 293.704C671.222 293.704 671.722 293.904 672.222 294.204C672.322 295.004 672.322 295.704 672.322 296.004C672.222 297.104 671.122 298.704 670.322 299.404C669.522 300.204 667.022 296.204 665.522 294.404C664.122 292.704 662.322 287.304 662.322 287.304C662.322 287.304 657.822 286.704 652.922 286.504C648.022 286.304 648.022 291.104 648.022 292.204C648.022 293.304 649.122 293.504 649.222 294.004C649.322 294.504 650.022 295.204 651.122 295.104C652.222 295.004 652.822 294.004 654.322 295.004C655.822 296.104 656.322 300.004 656.722 302.004C657.122 304.004 657.822 304.904 658.722 307.604C659.622 310.404 657.922 311.704 657.722 313.404C657.522 315.104 658.522 315.704 658.522 316.204C658.522 316.704 658.022 317.904 656.922 321.804C655.822 325.704 652.122 336.204 651.222 342.004C650.222 347.704 648.622 353.004 648.522 356.604C648.422 360.204 648.122 361.504 647.322 363.304C646.422 365.104 646.622 365.904 646.422 367.504C646.222 369.104 645.522 369.204 644.422 370.504C643.522 371.504 643.722 373.404 643.822 374.104C641.122 374.304 639.422 374.504 639.422 374.504C639.422 374.504 639.622 377.004 639.822 380.204C640.022 383.404 639.222 388.804 639.222 394.704C639.222 395.304 639.222 395.904 639.222 396.704C637.822 398.104 636.322 400.204 635.922 400.604C635.322 401.104 634.622 406.104 634.322 407.204C634.022 408.204 634.922 409.504 636.022 411.504C637.222 413.404 638.422 414.604 638.622 415.904C638.822 417.004 638.722 418.204 638.822 418.504C638.522 418.604 638.322 418.604 638.322 418.604C638.022 421.504 639.822 431.804 640.122 434.904C640.422 438.004 642.722 454.204 643.022 456.604L706.022 457.804C705.722 454.204 706.022 454.704 705.522 451.604C705.522 448.704 706.122 449.604 705.622 445.904ZM682.422 324.904C681.822 328.604 679.822 342.704 679.722 345.904C679.622 349.104 679.622 354.404 678.922 357.004C678.222 359.604 678.022 362.104 677.622 363.304C677.122 364.504 677.322 366.504 676.822 367.504C676.322 368.604 675.722 369.504 675.522 370.704C675.422 371.104 675.322 371.704 675.222 372.404C673.122 372.404 671.022 372.504 668.922 372.604C668.122 372.704 667.222 372.704 666.322 372.804C666.322 372.304 666.222 371.804 666.222 371.304C666.122 370.004 665.322 368.904 665.522 366.204C665.722 363.504 668.022 358.904 669.122 354.804C670.222 350.704 669.522 349.104 669.522 347.004C669.522 344.904 669.022 337.404 669.122 334.704C669.222 332.004 669.722 321.204 670.222 317.104C670.822 313.004 671.022 315.604 673.222 312.504C675.422 309.404 676.722 307.204 676.422 305.504C676.022 303.804 674.422 298.404 674.422 296.604C674.422 296.304 674.422 296.004 674.422 295.504C674.722 295.704 675.022 296.004 675.222 296.104C676.022 296.804 677.322 298.104 678.422 299.704C679.422 301.304 679.722 302.904 680.222 304.904C680.722 306.904 680.922 308.004 680.422 309.304C679.922 310.604 680.822 310.404 681.522 310.504C682.322 310.704 681.522 312.904 681.222 313.604C680.922 314.304 681.522 314.704 682.022 315.304C682.522 316.104 683.022 321.204 682.422 324.904Z" fill="url(#paint7_linear_374_100)"/>
<path d="M254.422 116.704C254.922 116.604 259.122 114.204 259.022 109.504C258.922 104.804 259.122 97.9039 258.522 94.8039C257.922 91.6039 254.922 84.1039 255.022 80.8039C255.122 77.5039 254.422 74.0039 252.122 69.9039C249.922 65.8039 247.122 58.7039 243.822 57.2039C240.522 55.7039 232.422 55.6039 230.722 54.2039C229.022 52.8039 226.522 52.404 226.622 51.504C226.722 50.904 226.722 49.3039 226.222 48.1039L226.322 48.2039C226.322 48.2039 225.022 43.3039 225.222 42.8039C225.522 42.2039 227.622 41.0039 227.922 39.3039C228.222 37.6039 227.522 33.2039 227.822 31.9039C228.122 30.6039 228.122 28.6039 227.422 27.8039C226.722 26.9039 226.722 22.1039 225.622 19.6039C224.522 17.1039 221.922 14.904 221.222 14.504C220.522 14.104 219.822 11.0039 214.722 11.1039C210.222 11.2039 207.822 13.4039 205.822 14.9039C203.822 16.4039 201.122 19.1039 200.422 24.2039C199.722 29.3039 202.222 35.4039 203.422 37.4039C204.522 39.4039 205.222 39.5039 205.422 41.4039C205.522 43.2039 206.422 43.7039 206.722 44.7039C207.022 45.7039 207.722 46.104 207.822 46.504C207.822 46.504 206.422 49.6039 206.422 50.4039C206.422 51.2039 206.422 51.2039 206.422 51.2039C206.422 51.2039 197.622 55.4039 192.522 58.7039C187.422 62.0039 185.322 64.5039 184.422 66.8039C183.622 69.0039 181.522 75.4039 184.722 83.1039C184.722 83.1039 184.422 84.2039 185.922 86.3039C187.422 88.4039 187.122 88.6039 187.322 89.9039C187.522 91.2039 188.622 94.6039 189.522 96.9039C190.522 99.2039 191.522 99.8039 191.622 100.604C191.722 101.404 191.822 104.604 191.722 106.004C191.622 107.404 191.322 111.104 191.622 114.004C192.122 119.104 191.422 128.004 191.122 131.004C190.622 137.204 190.422 139.204 190.422 139.204C190.422 139.204 189.622 143.004 190.622 145.104C190.322 146.004 190.822 148.304 190.622 148.804C189.922 150.604 190.922 149.904 191.222 151.304C191.522 152.704 190.522 155.304 190.622 157.604C190.722 159.804 189.922 161.704 190.222 163.904C190.522 166.004 190.322 167.604 190.222 169.604C190.122 171.604 189.622 171.604 190.022 172.404C190.422 173.104 190.222 174.604 190.222 175.404C190.222 176.104 189.722 177.504 189.922 179.004C190.122 180.504 189.722 180.904 190.222 182.004C190.722 183.104 190.922 183.204 190.522 184.704C190.122 186.204 189.822 186.804 189.822 188.104C189.822 189.404 190.222 191.104 190.322 193.004C190.422 194.904 190.422 195.004 189.722 197.404C189.022 199.704 188.422 203.204 188.322 205.504C188.222 207.704 187.822 209.604 187.922 211.004C188.022 212.404 188.222 218.404 187.922 220.804C187.622 223.104 186.922 224.304 187.122 227.004C187.222 229.704 188.422 238.804 188.522 242.204C188.622 245.604 188.922 247.504 189.222 250.604C189.522 253.704 189.222 254.604 189.322 257.004C189.422 259.304 189.022 263.304 189.222 263.904C189.422 264.504 189.822 265.804 189.722 268.704C189.622 271.604 189.022 271.604 188.822 273.504C188.722 275.404 188.122 275.204 188.722 276.704C189.322 278.204 189.422 280.104 189.522 281.504C189.622 282.904 189.422 284.404 189.422 284.404C189.422 284.404 194.522 284.904 203.722 284.904C204.022 284.904 205.022 284.204 205.622 284.304C206.222 284.404 208.722 284.804 211.622 284.604C214.622 284.404 215.422 283.504 215.522 283.004C215.622 282.504 215.222 280.604 214.722 279.904C214.222 279.304 211.822 278.904 210.722 277.904C209.522 276.804 208.722 276.304 209.122 276.004C209.522 275.704 210.722 274.704 210.922 274.004C211.122 273.304 209.522 271.904 209.822 270.704C210.122 269.504 210.422 266.704 210.222 265.804C210.022 265.004 207.022 258.104 207.422 256.304C207.822 254.504 210.822 237.804 210.722 233.604C210.622 229.404 211.922 217.304 212.022 211.904C212.022 210.604 212.222 208.904 212.422 207.004C213.022 202.804 213.722 196.704 214.122 195.604C214.522 194.404 215.622 188.204 217.322 183.104C217.722 181.904 218.222 180.804 218.622 179.704C218.922 179.004 219.222 178.404 219.622 177.904C220.622 176.504 221.122 175.404 221.522 174.704C221.722 174.504 221.922 174.604 221.922 175.004C221.922 175.804 221.922 178.204 222.222 179.504C222.522 180.804 223.622 181.104 223.022 182.704C222.522 184.304 222.022 183.204 222.322 184.804C222.522 186.404 222.322 189.304 222.222 191.404C222.122 193.504 222.222 192.804 222.322 195.604C222.422 198.504 221.622 204.404 222.022 206.704C222.422 209.004 223.322 209.704 223.222 212.004C223.122 214.304 221.822 213.704 222.222 216.504C222.622 219.304 222.522 220.404 222.622 223.304C222.722 226.204 222.022 227.904 222.122 231.604C222.222 235.304 222.522 244.504 221.522 250.104C220.422 255.604 220.822 256.504 220.522 259.804C220.322 263.104 219.822 260.204 219.222 263.804C218.722 267.404 220.022 267.704 219.822 271.404C219.622 275.104 218.522 276.504 218.522 280.004C218.522 283.504 218.422 284.704 218.422 284.704C218.422 284.704 232.422 284.404 234.222 284.804C234.722 284.904 235.722 284.204 236.922 284.304C238.122 284.404 247.922 285.304 251.122 285.004C254.322 284.804 255.622 283.904 255.822 283.504C256.022 283.104 255.522 281.404 254.422 280.704C253.322 280.104 248.722 280.104 246.322 278.604C244.022 277.104 243.522 276.404 242.422 275.504C241.222 274.604 241.722 274.004 240.422 272.304C239.122 270.604 238.022 272.504 238.022 269.104C238.022 265.704 240.522 251.804 240.722 249.004C240.822 246.204 241.722 232.204 241.722 227.504C241.722 222.804 243.122 208.104 244.522 204.504C245.922 200.904 250.422 181.904 251.122 175.904C251.722 169.904 251.522 167.704 251.822 162.704C252.122 158.604 252.222 156.004 252.622 154.604C254.122 154.104 255.322 153.504 255.522 152.704C255.922 151.104 251.722 128.504 251.722 118.604C251.622 116.404 252.422 117.204 254.422 116.704Z" fill="#141414"/>
<path d="M25.2221 15.0042C24.7221 15.0042 24.1221 15.1041 24.1221 15.1041L25.2221 15.0042Z" fill="#212121"/>
<path d="M85.6225 282.204C83.0225 281.604 75.8225 283.004 74.7225 280.504C73.6225 278.004 74.3225 277.304 74.3225 276.504C74.3225 275.704 72.7225 268.704 73.2225 267.604C73.8225 266.504 76.1225 256.704 76.4225 253.804C76.7225 250.904 74.2225 224.004 73.2225 218.004C72.2225 212.104 73.9225 197.404 74.7225 194.904C75.5225 192.504 76.3225 181.204 76.5225 178.104C76.7225 178.304 76.8225 178.304 77.1225 178.304C77.6225 178.204 77.7225 178.004 78.3225 178.204C78.8225 178.304 79.9225 178.604 80.2225 178.704C80.5225 178.804 80.2225 179.704 80.2225 179.704C80.2225 179.704 78.0225 180.004 77.7225 180.404C77.4225 180.904 76.8225 181.504 77.2225 181.604C77.5225 181.704 78.8225 181.804 79.5225 181.704C80.3225 181.604 83.7225 180.204 84.3225 179.404C84.9225 178.604 86.2225 174.804 86.6225 174.204C87.0225 173.604 87.9225 172.504 88.1225 171.804C88.3225 171.104 85.7225 162.504 85.6225 161.804C85.6225 161.704 85.6225 161.504 85.5225 161.304L85.8225 159.204C85.9225 159.104 86.1225 159.004 86.1225 158.904C86.5225 158.304 86.4225 149.004 86.8225 148.304C87.2225 147.604 88.3225 140.904 88.3225 138.304C88.3225 135.704 87.3225 131.404 87.1225 128.104C86.8225 124.804 88.8225 117.104 88.3225 114.504C87.9225 111.904 85.7225 102.704 84.6225 95.5042C83.5225 88.3042 82.3225 77.2042 82.0225 72.8042C81.7225 68.4042 76.5225 66.9042 71.7225 63.6042C66.9225 60.3042 59.6225 57.5042 56.4225 56.6042C56.4225 56.6042 56.2225 54.9041 55.9225 53.4041C56.0225 52.5041 56.3225 51.1041 57.1225 50.9041C58.2225 50.5041 60.5225 49.0042 61.4225 47.5042C62.2225 46.0042 61.8225 39.2042 61.7225 37.5042C61.6225 35.7042 61.3225 34.5042 61.0225 33.5042C60.7225 32.5042 59.8225 31.2042 59.6225 28.5042C59.5225 25.9042 59.3225 24.5041 58.0225 22.7041C56.6225 20.9041 56.1225 16.1042 48.2225 12.5042C41.0225 9.20418 29.2225 11.9042 28.5225 15.5042L28.2225 17.2041L26.5225 15.0042L27.1225 17.1042L25.2225 17.3042C25.7225 17.3042 26.2225 17.4042 26.2225 17.8042C26.2225 18.6042 23.3225 21.0042 22.8225 22.8042C22.3225 24.6042 22.5225 27.9041 24.6225 32.4041C26.7225 36.9041 27.8225 39.8042 29.4225 42.0042C31.1225 44.2042 33.3225 47.0041 34.2225 47.4041C34.4225 47.5041 34.8225 47.6041 35.3225 47.7041C34.6225 48.9041 32.5225 52.3042 32.0225 52.8042C31.3225 53.4042 16.2225 59.1042 13.4225 60.6042C10.6225 62.1042 9.72249 63.2042 8.72249 65.0042C7.72249 66.8042 3.92249 73.0041 3.52249 74.4041C3.12249 75.8041 2.52249 79.8042 2.52249 82.1042C2.52249 84.4042 -0.277506 96.0041 0.0224935 102.704C0.322494 109.404 0.0224935 120.804 0.522494 123.104C1.12249 125.404 0.62249 134.004 0.72249 136.404C0.82249 138.704 2.62249 144.404 2.92249 146.304C3.22249 148.204 3.92248 155.404 4.62248 156.904C5.32248 158.404 4.72248 160.904 4.82248 161.704C4.82248 161.904 5.22249 162.004 5.72249 162.104L6.12248 164.104C6.12248 164.104 6.82249 164.204 7.72249 164.304C7.52249 165.704 7.32248 167.304 7.32248 168.004C7.22248 169.204 6.82248 169.904 7.12248 170.804C7.42248 171.704 7.22249 173.904 7.72249 174.604C8.22249 175.404 11.0225 176.904 11.9225 177.304C12.0225 177.304 12.1225 177.404 12.2225 177.404C11.9225 182.804 11.4225 188.904 11.1225 191.904C10.5225 197.504 11.0225 217.804 10.5225 225.204C10.1225 232.604 9.32248 237.604 9.32248 244.704C9.32248 251.904 11.1225 269.304 11.2225 271.204C11.3225 273.104 12.0225 275.504 12.3225 276.704C12.6225 277.904 11.9225 278.104 12.2225 280.404C12.5225 282.704 11.9225 283.304 12.3225 284.704C12.7225 286.104 11.9225 287.904 12.7225 288.104C13.5225 288.404 21.6225 290.704 28.7225 288.404C29.1225 288.304 36.3225 288.004 37.1225 287.304C37.9225 286.604 37.0225 284.804 36.5225 283.304C36.1225 281.804 37.6225 278.604 37.6225 277.104C37.6225 275.604 35.3225 269.004 35.9225 267.204C36.6225 265.404 38.9225 253.204 39.3225 248.904C39.7225 244.604 42.7225 217.304 42.3225 213.704C42.2225 212.904 42.1225 211.704 42.0225 210.504C42.0225 209.904 42.0225 209.304 41.9225 208.804C41.8225 205.004 41.9225 200.804 42.5225 199.704C42.6225 199.604 42.6225 199.504 42.7225 199.404C43.0225 199.104 43.3225 199.004 43.5225 199.204C43.6225 200.504 44.1225 205.604 44.6225 209.404C44.6225 209.904 44.6225 210.204 44.6225 210.404C44.5225 211.504 45.1225 212.604 45.3225 213.804C45.4225 215.504 44.4225 215.904 43.9225 220.204C43.3225 225.204 43.2225 235.704 43.5225 240.104C43.8225 244.504 44.7225 258.804 44.6225 261.404C44.5225 264.004 44.3225 266.504 44.5225 268.104C44.0225 268.904 44.5225 270.604 45.3225 272.304C45.3225 272.704 45.4225 273.104 45.4225 273.604C45.4225 276.104 44.2225 278.004 44.4225 280.104C44.7225 282.204 44.3225 282.904 44.8225 284.204C45.4225 285.604 44.7225 285.304 45.1225 286.704C45.5225 288.104 44.6225 287.804 45.5225 288.104C46.5225 288.404 60.9225 288.504 62.8225 288.404C62.8225 288.404 63.9225 287.304 65.4225 287.704C66.9225 288.104 68.0225 288.204 68.0225 288.204C68.0225 288.204 79.7225 288.604 83.5225 288.104C87.4225 287.504 87.9225 286.904 88.2225 286.404C88.8225 285.904 88.2225 282.704 85.6225 282.204Z" fill="#212121"/>
<path d="M630.122 107.804C629.922 105.704 629.022 101.704 628.422 99.5041C627.822 97.3041 627.622 94.604 627.222 93.204C626.822 91.804 626.522 89.904 626.122 87.104C625.722 84.304 625.622 82.304 624.922 79.404C624.322 77.104 623.622 75.004 623.322 72.204C623.022 69.404 621.422 67.404 620.722 65.104C620.022 62.904 619.522 61.5041 618.122 60.3041C616.622 59.0041 608.222 55.004 606.222 54.204C604.722 53.604 603.422 53.1041 601.122 51.8041C598.722 50.5041 595.322 50.104 594.722 48.704C594.122 47.304 593.622 47.004 593.222 45.604C592.822 44.304 592.822 42.004 592.222 41.604C592.822 41.004 596.622 37.2041 597.722 33.8041C598.922 30.0041 602.522 21.904 599.822 16.104C597.122 10.304 592.522 5.90406 586.722 6.30406C585.222 6.40406 582.322 7.30406 581.322 7.30406C580.322 7.30406 576.522 10.404 575.522 13.604C574.522 16.704 573.622 18.204 573.622 19.204C573.622 20.204 573.622 20.204 573.622 20.204L571.922 21.0041C571.922 21.0041 571.322 22.904 571.522 23.704C571.722 24.504 571.322 24.704 572.522 24.704C572.522 24.704 572.522 25.9041 572.122 27.0041C571.722 28.0041 571.722 32.004 571.722 34.104C571.722 36.204 571.322 38.1041 572.722 39.3041C574.222 40.6041 575.022 40.3041 575.022 40.3041L575.422 41.8041C575.422 41.9041 574.322 45.0041 574.322 46.3041C574.322 47.6041 574.322 47.604 574.322 47.604C574.322 47.604 567.122 49.804 565.922 50.404C564.822 51.004 562.022 52.0041 560.722 52.5041C559.722 52.9041 558.222 53.404 556.422 53.904C554.622 54.504 553.622 54.404 552.222 55.704C550.822 57.004 547.922 57.904 546.222 63.604C544.522 69.304 542.622 73.304 542.022 76.204C541.422 79.104 540.222 85.204 539.222 88.404C538.222 91.604 537.822 97.204 537.522 100.204C537.222 103.304 536.722 106.204 536.722 109.004C536.722 111.804 537.022 111.804 536.622 115.304C536.222 118.804 537.622 120.304 537.222 122.804C536.822 125.304 536.622 126.604 536.822 128.304C536.922 130.004 536.722 133.704 537.522 136.304C537.922 137.504 538.322 139.704 538.622 141.904C538.522 141.904 538.422 141.904 538.422 141.904L538.822 145.004L538.922 145.104C538.822 145.304 538.722 146.004 538.722 146.404C538.722 147.004 539.022 148.304 539.222 149.004C539.422 149.704 540.322 150.104 540.522 150.304C540.722 150.504 542.022 151.004 542.322 151.204C542.622 151.404 543.022 151.304 543.322 151.604C543.722 151.804 543.822 151.804 544.322 152.104C544.822 152.404 545.922 151.704 546.122 151.204C546.122 151.204 546.122 151.104 546.222 151.004C546.122 151.604 546.122 152.004 546.122 152.304C546.022 153.104 546.622 160.404 546.722 163.104C546.822 165.904 547.322 170.304 547.422 172.204C547.522 174.104 549.022 181.004 549.822 184.504C549.822 184.504 551.722 190.104 552.322 197.004C552.922 203.904 554.922 219.804 554.422 225.004C553.922 230.204 554.222 234.104 553.622 238.104C553.022 242.204 551.922 250.104 551.722 252.904C551.522 255.704 552.322 258.204 552.322 262.604C552.322 267.004 552.322 271.104 552.222 272.604C552.122 274.104 552.222 274.604 551.722 275.704C551.222 276.804 550.122 277.704 549.022 278.604C547.922 279.504 547.822 280.704 547.022 280.704C546.222 280.704 544.422 280.504 543.622 281.304C542.822 282.104 542.122 284.404 542.422 285.404C542.622 286.304 543.422 286.804 544.322 286.904C545.122 287.004 552.222 286.804 553.522 286.604C554.822 286.404 554.822 286.404 554.822 286.404L555.422 287.004C555.422 287.004 566.322 287.204 568.022 286.504C568.022 286.504 568.122 281.804 568.222 281.104C568.322 280.404 568.022 277.204 568.222 275.904C568.422 274.504 568.622 273.404 568.922 272.504C569.222 271.604 570.422 260.204 570.522 256.504C570.622 252.704 572.522 226.904 572.622 224.804C572.722 222.704 573.022 222.304 573.022 220.904C573.022 219.504 572.422 215.604 572.622 214.804C572.822 214.004 573.622 210.704 574.122 209.904C574.522 209.104 574.622 204.704 574.922 202.104C575.222 199.504 575.322 195.204 575.122 193.204C574.922 191.204 575.822 190.804 576.122 189.404C576.322 188.504 576.422 185.404 576.422 182.704C576.522 181.704 576.622 180.804 576.622 180.204C576.622 179.804 576.622 179.404 576.522 179.004C576.522 178.904 576.522 178.804 576.522 178.704C576.622 176.304 575.722 175.804 576.722 174.104C577.722 172.404 577.822 172.004 578.722 170.104C578.922 169.704 579.022 169.204 579.122 168.904C579.222 169.004 579.422 169.104 579.522 169.104C580.022 169.104 580.822 169.604 581.622 170.604C581.722 170.804 581.822 170.904 581.922 171.004C582.022 172.304 582.022 173.804 582.522 174.504C583.222 175.904 583.622 175.104 584.022 176.704C584.322 178.304 584.422 177.704 584.322 179.504C584.222 181.304 584.722 186.104 585.722 188.704C586.622 191.304 587.522 192.304 587.422 194.204C587.322 196.104 588.422 200.804 588.622 202.804C588.822 204.904 590.022 208.104 590.322 209.404C590.622 210.704 590.422 212.204 590.622 214.504C590.822 216.804 590.522 215.904 591.122 219.004C591.722 222.104 592.222 223.104 592.522 226.204C592.722 229.304 593.422 239.504 593.322 242.204C593.222 244.904 593.622 247.304 593.722 251.004C593.822 254.604 594.522 263.704 594.622 266.704C594.722 269.704 596.122 270.104 596.622 273.004C597.122 275.804 597.922 276.404 598.122 278.404C598.322 280.404 598.322 285.804 598.722 286.204C599.122 286.604 598.722 287.004 603.422 287.004C608.122 287.004 612.022 286.404 612.722 286.304C613.322 286.204 615.122 286.004 615.422 285.604C615.722 285.204 615.522 283.404 615.422 282.504C615.322 281.604 614.022 281.004 613.722 280.104C613.422 279.204 613.522 279.004 613.022 278.204C612.522 277.504 611.222 277.604 611.222 276.304C611.222 275.004 610.922 273.604 611.522 273.304C612.122 273.004 613.122 268.404 613.322 268.004C613.522 267.604 612.822 262.704 612.622 261.104C612.422 259.504 612.822 249.804 612.122 244.104C611.422 238.404 612.122 235.104 611.022 232.004C609.922 228.904 609.222 225.404 609.222 222.504C609.222 219.604 609.422 216.604 609.322 214.804C609.222 213.004 609.522 214.404 608.422 210.804C607.322 207.304 608.122 196.404 608.022 192.104C607.922 187.804 607.722 188.004 608.022 186.104C608.322 184.104 608.122 177.304 608.622 175.404C609.122 173.404 611.322 169.504 611.022 166.504C610.722 163.604 611.422 154.204 610.922 149.604C610.622 146.804 611.022 146.004 611.022 144.604V144.704C611.022 144.704 614.722 145.404 615.122 145.204C615.522 145.004 616.922 143.204 616.922 143.204C616.822 143.204 616.822 143.204 616.722 143.204C616.822 143.104 616.822 143.104 616.922 143.004C617.422 142.704 617.722 142.404 617.922 142.204C618.722 141.704 619.922 141.104 621.022 140.104C622.222 139.004 623.222 137.304 624.122 136.204C624.922 135.104 624.822 135.104 625.122 133.104C625.422 131.204 625.722 130.804 626.422 128.304C627.122 125.804 626.922 124.804 627.822 123.004C628.622 121.204 628.922 120.604 629.422 118.004C629.822 116.304 629.822 115.704 629.922 114.204C630.022 112.704 629.922 111.104 630.222 109.904C630.322 109.104 630.422 109.904 630.122 107.804ZM608.422 132.804C608.322 132.304 608.222 131.704 608.022 131.204C608.922 130.004 609.122 112.304 608.922 111.104C608.822 109.804 608.922 109.804 609.122 108.604C609.222 107.304 609.022 105.304 609.322 102.904C609.522 101.304 609.722 98.5041 610.122 97.8041C610.422 97.3041 610.522 96.7041 610.822 96.5041C611.222 96.8041 611.622 97.6041 611.822 98.0041C611.822 98.0041 611.822 98.104 611.922 98.204C612.122 99.204 612.122 100.404 612.322 101.104C612.622 102.304 612.822 104.704 612.922 105.904C613.022 107.104 613.122 109.904 613.422 112.004C613.722 113.704 613.722 114.504 613.422 115.904C613.122 117.304 613.922 116.604 613.422 118.504C612.922 120.304 612.722 122.404 611.322 123.204C610.022 124.004 609.522 125.604 609.722 127.404C609.822 129.204 608.722 129.204 608.822 130.304C609.222 131.504 608.922 132.204 608.422 132.804Z" fill="#212121"/>
<path d="M811.723 123.904C811.523 122.704 809.823 124.404 808.723 124.404C807.523 124.404 806.623 121.604 806.623 121.604C806.623 121.604 807.323 120.704 807.523 117.404C807.723 114.104 809.123 111.804 808.423 107.904C807.723 103.904 806.523 98.6041 806.523 98.6041L805.823 93.704L804.923 86.704C804.923 86.704 804.723 82.5041 804.423 81.3041C804.223 80.1041 804.423 77.6041 803.723 75.3041C803.023 73.0041 803.723 69.0041 803.223 65.8041C802.823 63.2041 798.223 60.8041 796.223 59.9041C795.523 58.0041 793.723 55.4041 793.723 55.4041C792.023 53.9041 779.023 48.204 779.023 48.204C778.523 48.004 778.123 47.9041 777.623 47.8041C776.723 46.9041 775.223 45.0041 774.823 41.6041C774.823 41.6041 774.723 41.6041 774.523 41.5041C774.723 40.9041 775.923 37.6041 777.723 35.8041C779.723 33.8041 782.523 29.504 782.723 28.204C782.923 26.904 784.323 20.6041 784.223 18.9041C784.123 17.2041 783.623 16.8041 783.323 15.6041C783.023 14.4041 780.523 11.3041 779.823 10.3041C779.123 9.30408 778.323 9.00406 777.923 8.10406C777.623 7.20406 775.523 6.50405 775.023 5.90405C774.523 5.30405 773.523 4.90405 773.523 4.90405C773.523 4.90405 771.423 5.00405 770.523 5.40405C769.823 5.60405 766.523 6.10405 765.523 5.90405C764.523 5.70405 764.123 4.90406 763.423 5.60406C762.723 6.30406 761.723 6.80408 761.723 6.80408C761.723 6.80408 760.923 5.90404 759.823 7.70404C758.823 9.60404 758.823 10.5041 758.823 10.5041L758.023 13.5041L757.023 14.3041C757.023 14.3041 755.823 15.7041 755.523 17.6041C755.523 17.6041 753.323 17.4041 752.223 18.3041C751.223 19.2041 752.823 21.6041 753.623 22.4041C754.423 23.2041 755.023 23.3041 755.023 23.3041C755.023 23.3041 754.823 26.704 754.423 28.204C754.123 29.704 753.423 32.0041 753.923 33.6041C754.523 35.1041 755.323 35.7041 756.023 36.4041C756.023 36.4041 756.123 39.0041 755.823 40.9041C755.823 40.9041 755.823 40.9041 755.823 41.1041C755.823 41.1041 756.223 40.8041 757.223 40.5041C756.523 40.7041 755.823 41.0041 755.223 41.4041C755.223 41.4041 754.623 45.8041 753.623 47.8041C753.623 47.8041 754.023 47.7041 754.823 47.6041H754.723C752.223 48.0041 742.123 54.204 742.123 54.204C742.123 54.304 742.223 54.3041 742.223 54.4041C742.223 54.4041 733.323 61.6041 732.823 64.8041C732.323 68.0041 730.523 68.1041 729.823 70.4041C729.123 72.7041 727.623 76.9041 727.423 78.1041C727.223 79.3041 725.723 84.3041 725.723 84.3041L725.523 88.4041L724.523 97.1041C724.523 97.1041 724.323 98.7041 723.623 102.604C722.823 106.504 723.323 107.804 723.523 111.004C723.723 114.304 724.123 118.604 724.123 118.604C724.123 118.604 727.723 127.704 726.523 127.704C725.323 127.704 725.223 129.504 725.023 130.704C724.823 131.904 722.923 130.704 724.823 132.804C726.623 134.904 724.623 132.604 725.823 134.204C726.923 135.804 726.523 134.704 728.623 136.304C729.223 136.704 730.123 136.804 731.323 136.704C732.123 138.804 733.523 142.604 734.423 144.604C734.723 145.304 735.023 145.904 735.323 146.304C734.923 153.104 734.523 161.004 734.723 162.904C735.023 166.204 734.923 172.104 734.923 172.104C734.923 172.104 735.223 177.304 735.123 180.004C734.923 182.604 736.723 196.104 737.923 202.004C739.123 207.904 739.623 220.104 739.623 220.104C739.623 220.104 739.123 227.404 739.323 230.904C739.523 234.404 739.823 243.604 739.823 246.804C739.823 249.904 739.323 255.704 739.323 257.804C739.323 259.904 736.923 264.104 736.223 265.304C735.523 266.504 734.323 269.504 733.923 271.204C733.623 272.904 732.723 274.004 732.023 275.604C731.323 277.204 731.123 276.804 730.123 277.304C729.123 277.804 725.623 279.904 725.623 279.904C710.923 280.604 715.723 287.104 715.723 287.104C715.723 287.104 731.423 287.104 733.523 287.104C735.623 287.104 738.723 285.504 739.423 285.504C740.123 285.504 740.323 287.104 740.323 287.104C740.323 287.104 755.023 287.804 755.723 286.604C756.423 285.404 754.823 278.104 754.123 276.804C753.423 275.604 754.823 275.204 754.623 273.704C754.423 272.104 754.623 270.604 754.923 268.504C755.223 266.404 755.423 263.304 755.223 261.304C755.023 259.404 755.923 254.804 756.923 251.504C757.923 248.204 758.523 234.804 757.923 231.104C757.423 227.404 758.423 224.804 758.623 220.504C758.823 216.104 757.223 213.704 758.323 212.804C759.323 211.904 760.023 205.604 760.423 202.204C760.723 198.704 759.723 196.104 760.223 194.204C760.423 193.504 761.823 185.504 762.123 183.604C762.423 181.704 763.723 174.004 764.723 174.004C765.723 174.004 767.723 180.604 768.923 183.404C770.123 186.204 773.323 210.104 774.023 214.804C774.723 219.504 774.523 218.604 775.923 223.304C777.323 228.004 776.823 240.004 777.823 243.404C778.823 246.704 774.823 260.704 774.823 260.704C773.423 264.404 774.323 263.704 774.523 267.704C774.723 271.704 774.523 275.904 775.723 278.304C776.923 280.704 777.823 280.904 777.623 281.804C777.423 282.704 776.623 286.904 776.623 286.904C778.923 287.904 794.723 287.504 794.723 287.504C794.723 287.504 793.723 284.404 793.723 282.704C793.723 281.004 794.023 279.604 793.923 277.804C793.723 276.104 792.923 274.704 794.223 273.104C795.623 271.504 794.423 271.404 793.923 269.104C793.623 267.804 793.523 267.204 793.423 266.704C795.023 264.304 796.423 261.904 796.423 261.304C798.023 258.704 796.423 249.104 796.723 243.004C797.023 236.904 795.823 203.704 795.523 200.104C795.223 196.404 795.023 187.004 794.623 184.404C794.323 181.804 794.323 173.804 794.623 172.404C794.923 171.004 795.523 170.504 795.523 169.304C795.523 168.104 794.623 167.004 793.823 161.304C793.723 160.904 793.723 160.404 793.623 159.904C794.223 158.604 795.923 154.804 796.423 154.004C797.123 153.104 800.423 148.004 800.623 146.604C800.823 145.204 800.323 141.104 801.223 139.004C802.123 136.904 803.223 134.904 803.823 133.904C804.023 133.804 804.223 133.704 804.423 133.604C806.523 132.004 806.023 133.104 807.223 131.504C808.423 129.904 808.623 129.904 810.523 127.804C811.923 125.304 811.923 125.004 811.723 123.904ZM741.123 105.504C741.523 106.404 741.423 106.904 739.623 109.604C739.623 109.204 739.623 108.804 739.723 108.404C739.723 106.504 740.223 105.204 740.223 105.204C740.223 105.204 740.323 105.104 740.323 104.904C740.623 105.004 740.923 105.104 741.123 105.504ZM792.423 139.504L790.523 139.604C789.623 138.204 790.523 139.604 790.323 137.304C790.123 135.004 789.323 135.204 789.423 133.504C789.623 131.804 791.323 131.604 791.023 130.904C790.823 130.604 790.423 130.304 789.923 130.104C790.023 128.304 789.423 126.104 789.023 124.904C788.923 124.204 789.223 124.104 789.523 122.804C789.923 121.004 790.323 121.004 790.123 119.404C789.923 117.804 788.023 115.604 786.323 112.604C785.423 111.004 785.223 110.504 785.323 110.104C785.323 110.004 785.423 109.904 785.523 109.804C785.723 109.504 786.223 109.104 786.723 108.404C788.023 106.504 788.523 106.304 788.623 105.404C788.623 105.204 788.623 105.004 788.623 104.804C788.423 103.204 787.323 102.604 787.323 100.704C787.323 98.804 787.623 99.9041 789.323 98.5041C789.623 98.3041 789.723 98.1041 789.923 98.0041C789.823 99.0041 789.723 99.7041 789.823 99.9041C790.223 101.304 792.823 105.004 792.823 105.004C792.823 105.004 793.323 106.404 793.323 108.304C793.323 110.204 793.523 111.304 793.523 113.404C793.523 115.504 794.023 117.804 794.023 117.804C794.023 117.804 794.023 117.804 794.223 119.404C794.423 121.004 794.223 120.804 793.023 122.404C792.423 123.204 792.423 123.604 792.523 124.104C792.323 125.404 792.523 127.104 792.623 128.504C792.423 129.804 792.023 131.004 791.423 132.104C790.523 133.704 792.123 133.704 793.323 134.704C793.323 134.604 793.823 138.304 792.423 139.504Z" fill="#1A1A1A"/>
<path opacity="0.63" d="M810.123 446.504C808.223 444.404 808.023 444.404 806.823 442.804C805.623 441.204 806.123 442.304 804.023 440.704C803.823 440.604 803.623 440.504 803.423 440.304C802.823 439.304 801.823 437.304 800.823 435.204C799.923 433.104 800.423 429.004 800.223 427.604C800.023 426.204 796.723 421.104 796.023 420.204C795.523 419.504 793.823 415.704 793.223 414.304C793.323 413.804 793.323 413.404 793.423 412.904C794.323 407.104 795.123 406.104 795.123 404.904C795.123 403.704 794.623 403.204 794.223 401.804C793.923 400.404 793.923 392.404 794.223 389.804C794.523 387.204 794.723 377.804 795.123 374.104C795.423 370.404 796.723 337.304 796.323 331.204C796.023 325.104 797.523 315.504 796.023 312.904C796.023 312.204 794.623 309.904 793.023 307.504C793.123 307.004 793.223 306.304 793.523 305.104C794.023 302.804 795.223 302.704 793.823 301.104C792.423 299.504 793.323 298.104 793.523 296.404C793.723 294.704 793.323 293.304 793.323 291.504C793.323 289.704 794.323 287.304 794.323 287.304C794.323 287.304 778.423 286.304 776.223 287.304C776.223 287.304 777.123 291.504 777.223 292.404C777.423 293.304 776.523 293.404 775.323 295.904C774.123 298.304 774.323 302.504 774.123 306.504C773.923 310.504 773.123 309.804 774.423 313.504C774.423 313.504 778.423 327.504 777.423 330.804C776.423 334.104 776.923 346.204 775.523 350.904C774.123 355.604 774.323 354.704 773.623 359.404C772.923 364.104 769.823 388.004 768.523 390.804C767.323 393.604 765.423 400.204 764.323 400.204C763.323 400.204 762.023 392.504 761.723 390.604C761.423 388.704 760.023 380.604 759.823 380.004C759.323 378.104 760.323 375.504 760.023 372.004C759.723 368.504 759.023 362.204 757.923 361.404C756.923 360.504 758.423 358.104 758.223 353.704C758.023 349.304 757.023 346.704 757.523 343.104C758.023 339.404 757.523 326.004 756.523 322.704C755.523 319.404 754.623 314.804 754.823 312.904C755.023 311.004 754.823 307.804 754.523 305.704C754.223 303.604 754.023 302.004 754.223 300.504C754.423 298.904 753.023 298.604 753.723 297.404C754.423 296.204 756.023 288.904 755.323 287.604C754.623 286.404 739.923 287.104 739.923 287.104C739.923 287.104 739.723 288.704 739.023 288.704C738.323 288.704 735.223 287.104 733.123 287.104C731.023 287.104 715.323 287.104 715.323 287.104C715.323 287.104 710.623 293.604 725.223 294.304C725.223 294.304 728.723 296.404 729.723 296.904C730.723 297.404 730.923 297.104 731.623 298.604C732.323 300.204 733.223 301.204 733.523 303.004C733.823 304.704 735.123 307.704 735.823 308.904C736.523 310.104 738.923 314.304 738.923 316.404C738.923 318.504 739.423 324.304 739.423 327.404C739.423 330.504 739.123 339.804 738.923 343.304C738.723 346.804 739.223 354.104 739.223 354.104C739.223 354.104 738.723 366.304 737.523 372.204C736.323 378.104 734.523 391.604 734.723 394.204C734.923 396.804 734.523 402.104 734.523 402.104C734.523 402.104 734.723 408.004 734.323 411.304C734.123 413.204 734.523 421.104 734.923 427.904C734.623 428.304 734.323 428.904 734.023 429.604C733.123 431.604 731.723 435.304 730.923 437.504C729.723 437.404 728.823 437.404 728.223 437.904C726.123 439.604 726.623 438.404 725.423 440.004C724.323 441.604 726.323 439.304 724.423 441.404C722.623 443.504 724.423 442.404 724.623 443.504C724.923 444.704 725.023 446.504 726.123 446.504C727.323 446.504 723.723 455.604 723.723 455.604L807.123 456.604C806.923 453.304 806.223 452.404 806.223 452.404C806.223 452.404 807.123 449.604 808.323 449.604C809.523 449.604 811.123 451.204 811.323 450.104C811.923 448.904 811.923 448.604 810.123 446.504ZM794.223 454.704C794.023 456.304 794.023 456.304 794.023 456.304L790.223 454.604C790.423 453.004 790.023 453.004 789.623 451.204C789.323 449.804 789.023 449.704 789.123 449.104C789.523 447.904 790.123 445.704 790.023 443.904C790.523 443.704 791.023 443.504 791.123 443.104C791.423 442.404 789.723 442.204 789.523 440.504C789.323 438.804 790.223 438.904 790.423 436.704C790.623 434.404 789.723 435.804 790.623 434.404L792.523 434.504C793.923 435.704 793.423 439.404 793.423 439.404C792.223 440.304 790.623 440.304 791.523 442.004C792.123 443.104 792.523 444.304 792.723 445.604C792.623 447.004 792.423 448.704 792.623 450.004C792.523 450.504 792.623 450.904 793.123 451.704C794.223 453.304 794.523 453.104 794.223 454.704Z" fill="url(#paint8_linear_374_100)"/>
<path d="M276.222 278.404C275.922 280.304 274.122 282.704 273.722 283.504C273.322 284.304 272.422 283.804 270.322 285.504C268.322 287.204 270.322 290.504 270.522 290.904C270.722 291.304 270.222 292.104 275.822 292.104C281.422 292.204 282.322 290.904 282.822 290.704C283.322 290.404 282.822 288.904 283.322 286.604C283.822 284.304 284.622 281.704 285.322 281.804C286.022 281.904 285.822 291.804 285.822 291.804H287.822C288.022 287.704 289.022 280.704 289.622 278.704C290.322 276.804 290.822 272.504 290.722 269.804C290.522 267.104 286.822 264.504 286.822 264.504C286.622 262.204 287.222 251.504 289.322 244.904C291.422 238.304 292.222 234.904 292.222 229.604C292.222 224.304 290.722 221.704 291.322 220.104C292.022 218.504 293.222 211.804 293.822 208.904C294.422 205.904 294.322 201.304 294.822 199.204C295.322 197.104 296.722 193.304 297.322 191.604C297.622 190.804 297.922 189.504 298.122 188.404C300.022 188.404 302.022 188.404 304.022 188.404C304.522 191.904 305.522 198.404 306.422 202.104C306.422 202.104 306.922 206.404 307.022 209.204C307.122 212.004 307.322 214.504 308.522 216.704C309.722 218.904 310.422 221.804 310.922 224.504C311.422 227.204 312.822 238.804 313.122 241.904C313.422 245.004 315.422 256.704 314.722 259.404C314.022 262.104 313.522 265.004 313.022 266.204C312.522 267.404 312.422 270.104 312.322 270.904C312.222 271.704 310.422 275.504 310.322 276.804C310.222 278.004 307.022 284.604 306.622 285.604C306.222 286.704 306.122 290.604 307.522 291.704C308.822 292.804 319.122 292.104 319.122 292.104C319.122 292.104 319.822 290.104 320.322 288.404C320.922 286.804 320.622 282.904 321.422 281.104C322.222 279.304 323.822 275.204 323.622 273.804C323.422 272.404 321.522 264.804 321.522 263.904C321.522 263.004 321.422 261.904 321.822 260.404C322.222 259.004 324.622 249.404 325.122 245.804C325.622 242.204 327.922 226.104 326.222 219.804C324.522 213.504 322.222 210.804 323.522 205.704C324.722 201.204 325.822 190.204 326.322 187.404C328.122 187.204 329.422 187.004 330.222 186.804C330.322 186.804 330.422 186.804 330.622 186.804C330.622 186.804 330.522 186.804 330.422 186.804C330.622 186.704 330.722 186.604 330.922 186.604C330.922 186.604 330.022 160.904 328.422 155.504C328.522 153.604 328.822 147.504 328.522 145.304C328.122 142.704 327.222 141.604 326.722 139.804C326.422 138.904 325.922 137.604 325.422 136.404C325.522 136.004 325.622 135.304 325.622 134.804C325.722 134.004 325.622 134.804 326.122 133.304C326.622 131.804 327.122 130.004 327.122 128.004C327.222 125.904 327.222 126.304 327.522 124.004C327.822 121.604 328.522 120.004 329.522 116.104C330.522 112.104 332.122 105.504 332.122 101.904C332.022 98.4041 332.122 96.6042 331.722 94.0042C331.522 92.4042 330.422 87.9042 329.922 86.5042C329.422 85.0042 327.122 83.2042 326.722 83.3042C326.622 83.2042 326.522 83.0042 326.322 82.8042C325.522 82.0042 318.522 78.6041 317.322 78.4041C317.122 78.4041 316.422 78.3041 315.422 78.2041C314.522 77.7041 310.322 75.5042 309.822 74.3042C309.222 73.0042 308.622 70.1041 309.422 69.9041C310.222 69.7041 313.222 65.9041 314.022 63.6041C314.822 61.3041 317.522 52.5041 315.022 47.1041C312.522 41.7041 306.522 36.3042 299.422 37.5042C292.322 38.7042 292.522 40.4041 292.522 40.4041C290.222 40.2041 286.722 42.3041 284.422 45.6041C282.122 48.9041 281.922 52.5042 282.722 56.0042C283.522 59.5042 286.022 67.3042 288.322 69.3042C290.622 71.2042 293.522 71.4041 293.922 72.4041C294.322 73.4041 295.122 75.3041 293.722 76.6041L292.622 77.5042C292.322 77.5042 292.022 77.6041 291.722 77.6041C291.722 77.6041 291.322 77.5041 289.822 78.1041L285.322 79.9041C285.322 79.9041 285.322 80.0042 285.422 80.3042C285.422 80.3042 285.322 80.3041 285.322 80.2041C284.522 80.0041 279.722 81.0041 278.322 81.9041C276.922 82.8041 275.822 82.8042 275.322 84.3042C274.822 85.8042 273.422 91.2041 273.122 96.7041C272.922 102.304 273.122 107.504 273.622 112.504C274.022 117.504 275.522 123.504 276.022 126.504C276.522 129.504 276.022 132.604 278.322 133.804C279.422 134.404 279.922 134.604 280.322 134.604C280.122 134.904 280.022 134.904 280.122 135.704C280.222 137.104 279.622 136.704 279.522 137.704C279.422 138.704 279.122 139.004 279.022 140.304C278.922 141.604 278.722 141.804 278.222 143.404C277.722 144.904 276.922 143.704 277.222 145.604C277.522 147.504 277.322 146.904 276.822 149.604C276.422 151.904 276.522 153.504 276.522 153.904C276.422 154.304 276.222 154.804 276.222 155.204C276.122 156.204 275.822 157.104 275.322 158.004C274.822 158.904 274.322 160.204 274.322 160.904C274.322 161.704 274.622 164.204 274.822 165.804C275.122 167.304 274.522 172.704 274.722 174.504C274.822 176.304 274.622 183.604 274.622 184.404C274.622 185.104 274.622 187.504 274.622 188.204C274.622 188.204 274.622 188.204 274.522 188.204C274.522 188.204 274.522 188.204 274.622 188.204C274.622 188.304 274.622 188.404 274.622 188.404C274.622 188.404 274.722 188.404 274.922 188.404C275.022 190.804 275.522 200.604 275.522 204.204C275.522 208.304 276.722 214.304 276.522 223.304C275.122 233.204 275.322 237.504 275.722 241.604C276.122 245.704 277.422 259.104 277.722 262.104C278.022 265.104 277.922 272.904 277.322 273.804C276.722 273.904 276.522 276.504 276.222 278.404Z" fill="#212121"/>
<defs>
<linearGradient id="paint0_linear_374_100" x1="44.4371" y1="572.809" x2="44.4371" y2="281.474" gradientUnits="userSpaceOnUse">
<stop offset="0.5826" stop-color="white"/>
<stop offset="0.6244" stop-color="#FAFAFA"/>
<stop offset="0.6725" stop-color="#ECECEC"/>
<stop offset="0.7236" stop-color="#D5D5D5"/>
<stop offset="0.7768" stop-color="#B5B5B5"/>
<stop offset="0.8317" stop-color="#8C8C8C"/>
<stop offset="0.8881" stop-color="#595959"/>
<stop offset="0.9445" stop-color="#1E1E1E"/>
<stop offset="0.9707"/>
</linearGradient>
<linearGradient id="paint1_linear_374_100" x1="134.196" y1="565.278" x2="134.196" y2="283.06" gradientUnits="userSpaceOnUse">
<stop offset="0.5826" stop-color="white"/>
<stop offset="0.6244" stop-color="#FAFAFA"/>
<stop offset="0.6725" stop-color="#ECECEC"/>
<stop offset="0.7236" stop-color="#D5D5D5"/>
<stop offset="0.7768" stop-color="#B5B5B5"/>
<stop offset="0.8317" stop-color="#8C8C8C"/>
<stop offset="0.8881" stop-color="#595959"/>
<stop offset="0.9445" stop-color="#1E1E1E"/>
<stop offset="0.9707"/>
</linearGradient>
<linearGradient id="paint2_linear_374_100" x1="222.919" y1="582.309" x2="222.919" y2="278.691" gradientUnits="userSpaceOnUse">
<stop offset="0.5826" stop-color="white"/>
<stop offset="0.6244" stop-color="#FAFAFA"/>
<stop offset="0.6725" stop-color="#ECECEC"/>
<stop offset="0.7236" stop-color="#D5D5D5"/>
<stop offset="0.7768" stop-color="#B5B5B5"/>
<stop offset="0.8317" stop-color="#8C8C8C"/>
<stop offset="0.8881" stop-color="#595959"/>
<stop offset="0.9445" stop-color="#1E1E1E"/>
<stop offset="0.9707"/>
</linearGradient>
<linearGradient id="paint3_linear_374_100" x1="396.491" y1="577.467" x2="396.491" y2="277.715" gradientUnits="userSpaceOnUse">
<stop offset="0.5826" stop-color="white"/>
<stop offset="0.6244" stop-color="#FAFAFA"/>
<stop offset="0.6725" stop-color="#ECECEC"/>
<stop offset="0.7236" stop-color="#D5D5D5"/>
<stop offset="0.7768" stop-color="#B5B5B5"/>
<stop offset="0.8317" stop-color="#8C8C8C"/>
<stop offset="0.8881" stop-color="#595959"/>
<stop offset="0.9445" stop-color="#1E1E1E"/>
<stop offset="0.9707"/>
</linearGradient>
<linearGradient id="paint4_linear_374_100" x1="484.551" y1="576.01" x2="484.551" y2="280.482" gradientUnits="userSpaceOnUse">
<stop offset="0.5826" stop-color="white"/>
<stop offset="0.6244" stop-color="#FAFAFA"/>
<stop offset="0.6725" stop-color="#ECECEC"/>
<stop offset="0.7236" stop-color="#D5D5D5"/>
<stop offset="0.7768" stop-color="#B5B5B5"/>
<stop offset="0.8317" stop-color="#8C8C8C"/>
<stop offset="0.8881" stop-color="#595959"/>
<stop offset="0.9445" stop-color="#1E1E1E"/>
<stop offset="0.9707"/>
</linearGradient>
<linearGradient id="paint5_linear_374_100" x1="300.149" y1="562.964" x2="300.149" y2="287.326" gradientUnits="userSpaceOnUse">
<stop offset="0.5826" stop-color="white"/>
<stop offset="0.6244" stop-color="#FAFAFA"/>
<stop offset="0.6725" stop-color="#ECECEC"/>
<stop offset="0.7236" stop-color="#D5D5D5"/>
<stop offset="0.7768" stop-color="#B5B5B5"/>
<stop offset="0.8317" stop-color="#8C8C8C"/>
<stop offset="0.8881" stop-color="#595959"/>
<stop offset="0.9445" stop-color="#1E1E1E"/>
<stop offset="0.9707"/>
</linearGradient>
<linearGradient id="paint6_linear_374_100" x1="583.371" y1="589.332" x2="583.371" y2="280.995" gradientUnits="userSpaceOnUse">
<stop offset="0.5826" stop-color="white"/>
<stop offset="0.6244" stop-color="#FAFAFA"/>
<stop offset="0.6725" stop-color="#ECECEC"/>
<stop offset="0.7236" stop-color="#D5D5D5"/>
<stop offset="0.7768" stop-color="#B5B5B5"/>
<stop offset="0.8317" stop-color="#8C8C8C"/>
<stop offset="0.8881" stop-color="#595959"/>
<stop offset="0.9445" stop-color="#1E1E1E"/>
<stop offset="0.9707"/>
</linearGradient>
<linearGradient id="paint7_linear_374_100" x1="670.672" y1="550.738" x2="670.672" y2="282.151" gradientUnits="userSpaceOnUse">
<stop offset="0.5826" stop-color="white"/>
<stop offset="0.6244" stop-color="#FAFAFA"/>
<stop offset="0.6725" stop-color="#ECECEC"/>
<stop offset="0.7236" stop-color="#D5D5D5"/>
<stop offset="0.7768" stop-color="#B5B5B5"/>
<stop offset="0.8317" stop-color="#8C8C8C"/>
<stop offset="0.8881" stop-color="#595959"/>
<stop offset="0.9445" stop-color="#1E1E1E"/>
<stop offset="0.9707"/>
</linearGradient>
<linearGradient id="paint8_linear_374_100" x1="763.214" y1="589.264" x2="763.214" y2="256.087" gradientUnits="userSpaceOnUse">
<stop offset="0.5826" stop-color="white"/>
<stop offset="0.6188" stop-color="#FAFAFA"/>
<stop offset="0.6603" stop-color="#ECECEC"/>
<stop offset="0.7045" stop-color="#D5D5D5"/>
<stop offset="0.7505" stop-color="#B5B5B5"/>
<stop offset="0.798" stop-color="#8C8C8C"/>
<stop offset="0.8467" stop-color="#595959"/>
<stop offset="0.8954" stop-color="#1E1E1E"/>
<stop offset="0.9181"/>
</linearGradient>
</defs>
</svg>
