<svg width="495" height="113" viewBox="0 0 495 113" fill="none" xmlns="http://www.w3.org/2000/svg">
<path d="M48.3501 93.807H44.709V92.1211H54.0345V93.807H50.3933V102.849H48.3501V93.807Z" fill="white"/>
<path d="M60.4561 97.4827C60.4561 94.3153 62.9708 91.9653 66.3762 91.9653C69.7815 91.9653 72.2963 94.2898 72.2963 97.4827C72.2963 100.676 69.7815 103 66.3762 103C62.997 103 60.4561 100.65 60.4561 97.4827ZM70.2531 97.4827C70.2531 95.286 68.6028 93.7023 66.3762 93.7023C64.1496 93.7023 62.4993 95.286 62.4993 97.4827C62.4993 99.6794 64.1496 101.263 66.3762 101.263C68.6028 101.263 70.2531 99.6794 70.2531 97.4827Z" fill="white"/>
<path d="M93.999 92.1211H98.8189C102.382 92.1211 104.818 94.2667 104.818 97.4852C104.818 100.704 102.382 102.849 98.8189 102.849H93.999V92.1211ZM98.7142 101.163C101.177 101.163 102.748 99.7075 102.748 97.4852C102.748 95.2629 101.15 93.807 98.7142 93.807H96.0422V101.163H98.7142Z" fill="white"/>
<path d="M112.822 92.1211H114.866V102.849H112.822V92.1211Z" fill="white"/>
<path d="M131.177 97.36H133.115V101.626C131.963 102.52 130.365 102.98 128.793 102.98C125.388 102.98 122.873 100.655 122.873 97.4622C122.873 94.2693 125.388 91.9448 128.819 91.9448C130.653 91.9448 132.199 92.5323 133.246 93.6818L131.963 94.9078C131.098 94.0649 130.103 93.6818 128.924 93.6818C126.593 93.6818 124.942 95.2399 124.942 97.4622C124.942 99.6334 126.593 101.243 128.924 101.243C129.71 101.243 130.47 101.089 131.177 100.681V97.36Z" fill="white"/>
<path d="M141.621 92.1211H143.664V102.849H141.621V92.1211Z" fill="white"/>
<path d="M154.692 93.807H151.051V92.1211H160.376V93.807H156.735V102.849H154.692V93.807Z" fill="white"/>
<path d="M174.343 100.372H168.842L167.768 102.849H165.673L170.624 92.1211H172.641L177.618 102.849H175.47L174.343 100.372ZM173.662 98.8134L171.593 94.1135L169.524 98.8134H173.662Z" fill="white"/>
<path d="M184.8 92.1211H186.843V101.163H192.606V102.849H184.8V92.1211Z" fill="white"/>
<path d="M200.052 92.1211H202.095V102.849H200.052V92.1211Z" fill="white"/>
<path d="M209.971 101.723L210.678 100.165C211.569 100.854 212.957 101.34 214.319 101.34C216.022 101.34 216.755 100.752 216.755 99.9348C216.755 97.6104 210.206 99.143 210.206 95.1582C210.206 93.4213 211.621 91.9653 214.633 91.9653C215.943 91.9653 217.332 92.2974 218.301 92.9104L217.646 94.4686C216.65 93.9066 215.576 93.6256 214.607 93.6256C212.905 93.6256 212.223 94.2642 212.223 95.0816C212.223 97.355 218.746 95.8735 218.746 99.8071C218.746 101.519 217.305 103 214.293 103C212.59 103 210.888 102.489 209.971 101.723Z" fill="white"/>
<path d="M234.861 101.189V102.849H226.609V92.1211H234.651V93.7814H228.653V96.5912H233.97V98.2259H228.653V101.189H234.861Z" fill="white"/>
<path d="M286.237 93.807H282.596V92.1211H291.921V93.807H288.28V102.849H286.237V93.807Z" fill="white"/>
<path d="M298.378 97.4827C298.378 94.3153 300.893 91.9653 304.298 91.9653C307.703 91.9653 310.218 94.2898 310.218 97.4827C310.218 100.676 307.703 103 304.298 103C300.893 103 298.378 100.65 298.378 97.4827ZM308.175 97.4827C308.175 95.286 306.525 93.7023 304.298 93.7023C302.071 93.7023 300.421 95.286 300.421 97.4827C300.421 99.6794 302.071 101.263 304.298 101.263C306.525 101.263 308.175 99.6794 308.175 97.4827Z" fill="white"/>
<path d="M331 101.723L331.707 100.165C332.598 100.854 333.986 101.34 335.348 101.34C337.051 101.34 337.785 100.752 337.785 99.9348C337.785 97.6104 331.236 99.143 331.236 95.1582C331.236 93.4213 332.65 91.9653 335.663 91.9653C336.972 91.9653 338.361 92.2974 339.33 92.9104L338.675 94.4686C337.68 93.9066 336.606 93.6256 335.637 93.6256C333.934 93.6256 333.253 94.2642 333.253 95.0816C333.253 97.355 339.775 95.8735 339.775 99.8071C339.775 101.519 338.335 103 335.322 103C333.62 103 331.917 102.489 331 101.723Z" fill="white"/>
<path d="M347.632 92.1211H349.675V102.849H347.632V92.1211Z" fill="white"/>
<path d="M368.583 102.851L368.557 95.7248L364.942 101.6H364.025L360.41 95.8014V102.826H358.472V92.0977H360.148L364.523 99.2242L368.819 92.0977H370.495L370.521 102.826H368.583V102.851Z" fill="white"/>
<path d="M388.545 95.9291C388.545 98.2791 386.764 99.7351 383.856 99.7351H381.367V102.826H379.324V92.0977H383.856C386.737 92.1232 388.545 93.5536 388.545 95.9291ZM386.476 95.9291C386.476 94.5754 385.559 93.8091 383.751 93.8091H381.367V98.0748H383.751C385.559 98.0748 386.476 97.2829 386.476 95.9291Z" fill="white"/>
<path d="M396.408 92.1211H398.451V101.163H404.214V102.849H396.408V92.1211Z" fill="white"/>
<path d="M411.661 92.1211H413.704V102.849H411.661V92.1211Z" fill="white"/>
<path d="M424.537 93.7814V97.0509H429.855V98.7368H424.537V102.849H422.494V92.1211H430.536V93.7814H424.537Z" fill="white"/>
<path d="M443.078 99.0689V102.849H441.035V99.0944L436.713 92.1211H438.887L442.109 97.3575L445.357 92.1211H447.374L443.078 99.0689Z" fill="white"/>
<path d="M257.981 101.187C259.615 101.187 260.941 99.8951 260.941 98.3009C260.941 96.7068 259.615 95.4146 257.981 95.4146C256.346 95.4146 255.021 96.7068 255.021 98.3009C255.021 99.8951 256.346 101.187 257.981 101.187Z" fill="white"/>
<path d="M272.833 69.5179L273.777 70.9739C276.868 75.8271 272.833 80.7314 266.992 80.7314H266.52C263.953 80.7314 261.543 79.4287 260.181 77.3086L253.868 68.5983L245.46 56.312L245.093 55.699C242.342 52.0718 243.469 52.8381 237.811 52.8381L222.12 52.8381V80.7058H206.429V10.3086L252.637 10.3086C259.16 10.3086 265.054 12.4287 269.323 15.8515C273.593 19.2743 276.239 23.9998 276.239 29.2362C276.239 36.8736 274.772 46.6822 266.599 49.7219C264.477 50.5392 262.198 51.0246 259.814 51.2289L272.833 69.5179ZM252.611 38.9171C253.737 38.9171 254.864 38.7127 255.885 38.304C258.767 37.3078 260.653 34.3704 260.653 30.6666C260.653 27.346 259.133 25.8389 258.269 25.1237C257.274 24.3063 255.388 23.3101 252.611 23.3101L222.12 23.3101V38.9937L252.611 38.9171Z" fill="white"/>
<path d="M300.128 29.3129V35.852L331.615 35.852C335.178 35.852 338.059 38.6618 338.059 42.1357C338.059 45.6096 335.178 48.4193 331.615 48.4193L300.128 48.4193V61.7018C300.128 65.2268 303.769 68.1387 308.17 68.1387H349.113V80.706L308.17 80.706C295.125 80.706 284.568 72.149 284.568 61.6763V29.3129C284.568 18.8402 295.099 10.2832 308.17 10.2832L349.113 10.2832V22.8505L308.17 22.8505C303.769 22.876 300.128 25.788 300.128 29.3129Z" fill="white"/>
<path d="M394.508 80.702H394.77L394.508 80.9064V80.702ZM482 10.458L448.129 45.6311L446.243 47.5468V73.7031C446.243 77.5091 443.074 80.6254 439.144 80.6254H437.704C433.801 80.6254 430.605 77.5346 430.605 73.7031V47.7256L428.483 45.6311L394.639 10.458L414.39 10.458L438.385 35.4138L462.38 10.458L482 10.458ZM481.869 80.702H482V80.9064L481.869 80.702Z" fill="white"/>
<path d="M197.505 80.7293L165.73 16.1559H165.704C164.054 12.5799 159.496 10 153.314 10C146.634 10 142.6 12.5799 140.923 16.1559H140.897L109.148 80.7293H127.04L153.13 27.6759C153.183 27.6759 153.261 27.6759 153.314 27.6759C153.392 27.6759 153.445 27.6759 153.523 27.6759L179.614 80.7293H197.505Z" fill="white"/>
<path d="M79.58 27.9796C79.4752 27.7497 79.3704 27.5198 79.2656 27.3154H79.2918L79.58 27.9796Z" fill="white"/>
<path d="M127.604 10.1528L95.4887 80.6012H84.12L70.2889 48.1357L56.4578 80.6012H45.0891L13 10.1528L32.1487 10.1528L51.6641 51.1498L60.6229 28.9527L61.2254 27.4712C61.2516 27.4201 61.2777 27.369 61.3039 27.3179C63.3996 23.0522 66.9621 22.2093 70.3413 22.2093C73.6157 22.2093 76.9949 22.6946 79.3 27.3179C79.4048 27.5223 79.5096 27.7521 79.6144 27.982C79.6144 28.0076 79.6406 28.0331 79.6406 28.0587L79.824 28.4929L89.3328 51.3541L108.455 10.1528L127.604 10.1528Z" fill="white"/>
<path d="M61.2752 27.3179C61.2486 27.3693 61.2219 27.4207 61.1953 27.4721L61.2752 27.3179Z" fill="white"/>
<path d="M60.6221 28.9464C60.8054 28.4099 60.9888 27.9246 61.2246 27.4648L60.6221 28.9464Z" fill="white"/>
<path d="M418.797 67.7042V81.191L388.149 81.191C383.748 81.191 379.609 80.3737 375.837 78.8666C370.31 76.6443 365.805 73.0172 363.159 68.5982C361.273 65.5841 360.277 62.2635 360.277 58.7385V18.2524C360.277 14.1144 363.735 10.7427 367.979 10.7427H368.267C372.511 10.7427 375.968 14.1144 375.968 18.2524V59.045C376.073 64.4091 380.579 67.5509 386.63 67.602L418.797 67.7042Z" fill="white"/>
<path d="M153.304 72.3215C157.919 72.3215 161.661 68.6734 161.661 64.1732C161.661 59.673 157.919 56.0249 153.304 56.0249C148.689 56.0249 144.948 59.673 144.948 64.1732C144.948 68.6734 148.689 72.3215 153.304 72.3215Z" fill="white"/>
</svg>
