<svg width="272" height="228" viewBox="0 0 272 228" fill="none" xmlns="http://www.w3.org/2000/svg">
<circle cx="136.826" cy="133.784" r="93.5" stroke="black"/>
<path d="M79.9266 144.833H78.8862V144.329H81.5507V144.833H80.5104V147.535H79.9266V144.833Z" fill="#121212"/>
<path d="M83.3857 145.933C83.3857 144.986 84.1042 144.284 85.0772 144.284C86.0502 144.284 86.7687 144.978 86.7687 145.933C86.7687 146.887 86.0502 147.582 85.0772 147.582C84.1117 147.582 83.3857 146.88 83.3857 145.933ZM86.1849 145.933C86.1849 145.276 85.7134 144.803 85.0772 144.803C84.441 144.803 83.9695 145.276 83.9695 145.933C83.9695 146.589 84.441 147.063 85.0772 147.063C85.7134 147.063 86.1849 146.589 86.1849 145.933Z" fill="#121212"/>
<path d="M92.9688 144.331H94.3459C95.3638 144.331 96.0598 144.972 96.0598 145.934C96.0598 146.896 95.3638 147.537 94.3459 147.537H92.9688V144.331ZM94.316 147.033C95.0195 147.033 95.4686 146.598 95.4686 145.934C95.4686 145.27 95.012 144.834 94.316 144.834H93.5525V147.033H94.316Z" fill="#121212"/>
<path d="M98.3472 144.331H98.931V147.537H98.3472V144.331Z" fill="#121212"/>
<path d="M103.592 145.898H104.146V147.173C103.817 147.441 103.36 147.578 102.911 147.578C101.938 147.578 101.22 146.883 101.22 145.929C101.22 144.975 101.938 144.28 102.919 144.28C103.443 144.28 103.884 144.455 104.184 144.799L103.817 145.165C103.57 144.913 103.285 144.799 102.949 144.799C102.283 144.799 101.811 145.265 101.811 145.929C101.811 146.578 102.283 147.059 102.949 147.059C103.173 147.059 103.39 147.013 103.592 146.891V145.898Z" fill="#121212"/>
<path d="M106.576 144.331H107.16V147.537H106.576V144.331Z" fill="#121212"/>
<path d="M110.31 144.834H109.27V144.331H111.934V144.834H110.894V147.537H110.31V144.834Z" fill="#121212"/>
<path d="M115.925 146.797H114.353L114.046 147.537H113.447L114.862 144.331H115.438L116.86 147.537H116.246L115.925 146.797ZM115.73 146.331L115.139 144.926L114.547 146.331H115.73Z" fill="#121212"/>
<path d="M118.913 144.331H119.497V147.033H121.143V147.537H118.913V144.331Z" fill="#121212"/>
<path d="M123.271 144.331H123.854V147.537H123.271V144.331Z" fill="#121212"/>
<path d="M126.104 147.2L126.307 146.735C126.561 146.941 126.958 147.086 127.347 147.086C127.833 147.086 128.043 146.91 128.043 146.666C128.043 145.971 126.172 146.429 126.172 145.238C126.172 144.719 126.576 144.284 127.437 144.284C127.811 144.284 128.208 144.383 128.485 144.566L128.297 145.032C128.013 144.864 127.706 144.78 127.429 144.78C126.943 144.78 126.748 144.971 126.748 145.215C126.748 145.895 128.612 145.452 128.612 146.628C128.612 147.139 128.2 147.582 127.339 147.582C126.853 147.582 126.366 147.429 126.104 147.2Z" fill="#121212"/>
<path d="M133.216 147.041V147.537H130.858V144.331H133.156V144.827H131.442V145.667H132.962V146.155H131.442V147.041H133.216Z" fill="#121212"/>
<path d="M147.895 144.834H146.854V144.331H149.519V144.834H148.479V147.537H147.895V144.834Z" fill="#121212"/>
<path d="M151.364 145.933C151.364 144.986 152.083 144.284 153.056 144.284C154.029 144.284 154.747 144.978 154.747 145.933C154.747 146.887 154.029 147.582 153.056 147.582C152.083 147.582 151.364 146.88 151.364 145.933ZM154.163 145.933C154.163 145.276 153.692 144.803 153.056 144.803C152.42 144.803 151.948 145.276 151.948 145.933C151.948 146.589 152.42 147.063 153.056 147.063C153.692 147.063 154.163 146.589 154.163 145.933Z" fill="#121212"/>
<path d="M160.685 147.2L160.887 146.735C161.141 146.941 161.538 147.086 161.927 147.086C162.413 147.086 162.623 146.91 162.623 146.666C162.623 145.971 160.752 146.429 160.752 145.238C160.752 144.719 161.156 144.284 162.017 144.284C162.391 144.284 162.788 144.383 163.065 144.566L162.878 145.032C162.593 144.864 162.286 144.78 162.009 144.78C161.523 144.78 161.328 144.971 161.328 145.215C161.328 145.895 163.192 145.452 163.192 146.628C163.192 147.139 162.78 147.582 161.92 147.582C161.433 147.582 160.947 147.429 160.685 147.2Z" fill="#121212"/>
<path d="M165.437 144.331H166.021V147.537H165.437V144.331Z" fill="#121212"/>
<path d="M171.423 147.541L171.416 145.411L170.383 147.167H170.121L169.088 145.434V147.533H168.534V144.327H169.013L170.263 146.457L171.491 144.327H171.97L171.977 147.533H171.423V147.541Z" fill="#121212"/>
<path d="M177.127 145.472C177.127 146.174 176.618 146.61 175.787 146.61H175.076V147.533H174.492V144.327H175.787C176.61 144.334 177.127 144.762 177.127 145.472ZM176.535 145.472C176.535 145.067 176.273 144.838 175.757 144.838H175.076V146.113H175.757C176.273 146.113 176.535 145.877 176.535 145.472Z" fill="#121212"/>
<path d="M179.373 144.331H179.957V147.033H181.603V147.537H179.373V144.331Z" fill="#121212"/>
<path d="M183.731 144.331H184.315V147.537H183.731V144.331Z" fill="#121212"/>
<path d="M187.41 144.827V145.804H188.93V146.308H187.41V147.537H186.827V144.331H189.124V144.827H187.41Z" fill="#121212"/>
<path d="M192.707 146.407V147.537H192.124V146.415L190.889 144.331H191.51L192.43 145.896L193.359 144.331H193.935L192.707 146.407Z" fill="#121212"/>
<path d="M139.822 147.04C140.289 147.04 140.668 146.654 140.668 146.178C140.668 145.701 140.289 145.315 139.822 145.315C139.355 145.315 138.977 145.701 138.977 146.178C138.977 146.654 139.355 147.04 139.822 147.04Z" fill="#FFB921"/>
<path d="M144.065 137.574L144.335 138.009C145.218 139.459 144.065 140.925 142.396 140.925H142.262C141.528 140.925 140.84 140.536 140.45 139.902L138.647 137.299L136.244 133.626L136.139 133.443C135.353 132.359 135.675 132.588 134.059 132.588H129.575V140.918H125.092V119.875H138.295C140.158 119.875 141.842 120.509 143.062 121.532C144.282 122.555 145.038 123.968 145.038 125.533C145.038 127.816 144.619 130.748 142.284 131.656C141.678 131.901 141.027 132.046 140.346 132.107L144.065 137.574ZM138.287 128.427C138.609 128.427 138.931 128.366 139.223 128.243C140.046 127.946 140.585 127.068 140.585 125.961C140.585 124.968 140.151 124.518 139.904 124.304C139.62 124.059 139.081 123.762 138.287 123.762H129.575V128.45L138.287 128.427Z" fill="#E01E26"/>
<path d="M151.864 125.558V127.512H160.861C161.878 127.512 162.702 128.352 162.702 129.391C162.702 130.429 161.878 131.269 160.861 131.269H151.864V135.239C151.864 136.293 152.905 137.163 154.162 137.163H165.86V140.919H154.162C150.435 140.919 147.418 138.362 147.418 135.231V125.558C147.418 122.427 150.427 119.87 154.162 119.87H165.86V123.626H154.162C152.905 123.634 151.864 124.504 151.864 125.558Z" fill="#E01E26"/>
<path d="M178.829 140.915H178.904L178.829 140.976V140.915ZM203.827 119.918L194.15 130.432L193.611 131.005V138.823C193.611 139.96 192.705 140.892 191.583 140.892H191.171C190.056 140.892 189.143 139.968 189.143 138.823V131.058L188.536 130.432L178.867 119.918H184.51L191.366 127.378L198.221 119.918H203.827ZM203.79 140.915H203.827V140.976L203.79 140.915Z" fill="#E01E26"/>
<path d="M122.542 140.925L113.464 121.624H113.456C112.985 120.555 111.682 119.784 109.916 119.784C108.008 119.784 106.855 120.555 106.376 121.624H106.369L97.2974 140.925H102.409L109.864 125.067C109.879 125.067 109.901 125.067 109.916 125.067C109.939 125.067 109.954 125.067 109.976 125.067L117.431 140.925H122.542Z" fill="#E01E26"/>
<path d="M88.8491 125.156C88.8192 125.087 88.7892 125.019 88.7593 124.958H88.7668L88.8491 125.156Z" fill="white"/>
<path d="M102.571 119.831L93.3947 140.888H90.1465L86.1947 131.184L82.2429 140.888H78.9946L69.8262 119.831H75.2973L80.8732 132.085L83.4329 125.45L83.6051 125.007C83.6125 124.992 83.62 124.977 83.6275 124.961C84.2263 123.686 85.2441 123.434 86.2096 123.434C87.1452 123.434 88.1107 123.579 88.7693 124.961C88.7993 125.022 88.8292 125.091 88.8591 125.16C88.8591 125.167 88.8666 125.175 88.8666 125.183L88.919 125.313L91.6359 132.146L97.0995 119.831H102.571Z" fill="#E01E26"/>
<path d="M83.6203 124.958C83.6123 124.973 83.6042 124.989 83.5962 125.005L83.6203 124.958Z" fill="white"/>
<path d="M83.4326 125.447C83.485 125.287 83.5374 125.142 83.6048 125.004L83.4326 125.447Z" fill="white"/>
<path d="M185.77 137.031V141.062H177.013C175.756 141.062 174.573 140.818 173.496 140.367C171.916 139.703 170.629 138.619 169.873 137.298C169.334 136.397 169.05 135.404 169.05 134.351V122.249C169.05 121.012 170.038 120.004 171.25 120.004H171.333C172.545 120.004 173.533 121.012 173.533 122.249V134.442C173.563 136.046 174.85 136.985 176.579 137L185.77 137.031Z" fill="#E01E26"/>
<path d="M109.913 138.413C111.232 138.413 112.3 137.322 112.3 135.977C112.3 134.632 111.232 133.542 109.913 133.542C108.594 133.542 107.525 134.632 107.525 135.977C107.525 137.322 108.594 138.413 109.913 138.413Z" fill="#FFB921"/>
<path d="M26.9046 125.532L26.8729 125.721C26.8623 125.785 26.8465 125.831 26.8255 125.86C26.8228 125.875 26.8044 125.888 26.7702 125.899L13.559 128.654C11.7754 129.037 10.6428 129.359 10.1613 129.619C9.68247 129.863 9.39027 130.301 9.28472 130.932L9.2768 130.98C9.25306 131.122 9.21094 131.179 9.15045 131.153C9.07419 131.124 9.04397 131.062 9.0598 130.968C9.08355 130.826 9.11915 130.661 9.16659 130.474C9.20089 130.269 9.26024 129.963 9.34463 129.555C9.40526 129.29 9.4435 129.109 9.45933 129.015C9.4778 128.904 9.49099 128.825 9.49891 128.778C9.50683 128.731 9.52134 128.644 9.54245 128.518C9.5662 128.376 9.60052 128.122 9.64543 127.756C9.72465 127.185 9.78536 126.774 9.82758 126.521C9.85402 126.266 9.87911 126.068 9.90286 125.926C9.91869 125.831 9.96606 125.79 10.045 125.803C10.1107 125.798 10.1357 125.843 10.1199 125.938L10.017 126.553C9.95626 126.916 9.96664 127.193 10.0481 127.386C10.1164 127.559 10.2676 127.674 10.5016 127.729C10.7541 127.771 11.3381 127.723 12.2536 127.584C13.1559 127.427 14.4238 127.168 16.0575 126.809L25.1176 124.868C25.1518 124.858 25.186 124.847 25.2202 124.837C25.2412 124.808 25.2531 124.786 25.2557 124.77C25.2583 124.754 25.2531 124.737 25.2399 124.718C25.2137 124.682 25.1861 124.653 25.1571 124.632L19.1461 120.707L14.4819 121.825C13.8373 121.993 13.3362 122.128 12.9784 122.23C12.6075 122.314 12.3023 122.393 12.0629 122.466C11.4973 122.648 11.1092 122.834 10.8987 123.026C10.675 123.2 10.5196 123.547 10.4325 124.068L10.4009 124.257C10.3798 124.383 10.3377 124.441 10.2745 124.43C10.1983 124.401 10.168 124.34 10.1839 124.245C10.2076 124.103 10.2445 123.931 10.2946 123.728C10.3316 123.507 10.3949 123.177 10.4845 122.738C10.5478 122.456 10.5887 122.261 10.6072 122.15C10.6256 122.04 10.6388 121.961 10.6467 121.913C10.6546 121.866 10.6665 121.795 10.6824 121.7C10.7008 121.59 10.7233 121.407 10.7497 121.152C10.7999 120.755 10.8408 120.461 10.8725 120.272C10.891 120.064 10.9121 119.889 10.9359 119.747C10.9517 119.653 10.9991 119.612 11.078 119.625C11.1411 119.636 11.1648 119.688 11.1489 119.783L11.1173 119.972C11.0619 120.304 11.0709 120.541 11.1445 120.683C11.2181 120.825 11.3575 120.913 11.5626 120.947C11.8309 120.992 12.2228 120.976 12.7384 120.9C13.2567 120.809 14.0051 120.65 14.9837 120.424L18.0261 119.692L15.3519 118.077C14.8076 117.742 14.3014 117.471 13.8333 117.263C13.3678 117.039 12.9773 116.901 12.6616 116.848C12.3302 116.793 12.0632 116.837 11.8606 116.982C11.6606 117.111 11.5369 117.317 11.4894 117.601C11.4788 117.664 11.4762 117.729 11.4814 117.795C11.4709 117.858 11.4629 117.954 11.4576 118.083C11.4655 118.133 11.4667 118.173 11.4615 118.205C11.4588 118.221 11.4562 118.237 11.4536 118.252C11.4456 118.3 11.4311 118.338 11.4101 118.367C11.3917 118.38 11.3588 118.382 11.3114 118.375C11.2641 118.367 11.2352 118.346 11.2247 118.311C11.201 118.259 11.1971 118.185 11.213 118.09C11.2262 118.011 11.2459 117.893 11.2723 117.735C11.2987 117.578 11.3515 117.311 11.4306 116.934C11.5044 116.59 11.5532 116.347 11.5769 116.205C11.6007 116.063 11.6178 115.96 11.6284 115.897C11.6363 115.85 11.6495 115.771 11.668 115.66C11.6864 115.55 11.7142 115.335 11.7512 115.017C11.8172 114.525 11.8673 114.177 11.9017 113.972C11.9386 113.751 11.9663 113.585 11.9848 113.474C12.0006 113.38 12.0467 113.347 12.1229 113.376C12.186 113.386 12.211 113.431 12.1978 113.51L12.0949 114.126C11.9946 114.725 12.1719 115.266 12.6267 115.747C13.0657 116.226 14.0294 116.915 15.5177 117.813L18.4049 119.609L26.5457 117.637C26.5957 117.629 26.6299 117.618 26.6483 117.605C26.6667 117.592 26.6773 117.578 26.6799 117.562C26.6825 117.546 26.6773 117.529 26.6641 117.511C26.6379 117.474 26.6103 117.445 26.5813 117.424L17.2608 111.899C16.4483 111.422 15.7856 111.068 15.2728 110.837C14.7442 110.602 14.3064 110.456 13.9592 110.398C13.5489 110.329 13.224 110.38 12.9845 110.551C12.7451 110.722 12.5897 111.021 12.5185 111.447C12.5079 111.51 12.5039 111.582 12.5065 111.664C12.496 111.727 12.4946 111.832 12.5024 111.979C12.505 112.061 12.5037 112.117 12.4984 112.149C12.4958 112.165 12.4931 112.181 12.4905 112.196C12.4826 112.244 12.4681 112.282 12.447 112.311C12.4102 112.337 12.3681 112.346 12.3207 112.338C12.2734 112.33 12.2458 112.301 12.2379 112.251C12.2143 112.199 12.2104 112.125 12.2262 112.031C12.2394 111.952 12.2605 111.825 12.2895 111.652C12.3212 111.462 12.3832 111.14 12.4755 110.685C12.5678 110.23 12.6285 109.916 12.6575 109.742C12.6865 109.569 12.7063 109.45 12.7168 109.387C12.7248 109.34 12.7366 109.269 12.7525 109.174C12.7683 109.08 12.7881 108.912 12.8119 108.673C12.8595 108.292 12.8977 108.014 12.9268 107.841C12.9584 107.651 12.9848 107.494 13.0059 107.367C13.0218 107.273 13.0678 107.24 13.1441 107.269C13.2072 107.279 13.2322 107.324 13.219 107.403L13.2071 107.474C13.1068 108.074 13.3498 108.658 13.9361 109.226C14.5066 109.792 15.6701 110.595 17.4267 111.635L28.1198 117.973C28.1487 117.994 28.1606 118.02 28.1553 118.052C28.1684 118.07 28.171 118.103 28.1631 118.151L28.1235 118.387C28.1156 118.435 28.1011 118.473 28.0801 118.502C28.0774 118.517 28.059 118.531 28.0248 118.541L19.5526 120.604L26.8573 125.378C26.8862 125.399 26.8994 125.418 26.8967 125.433C26.9099 125.452 26.9125 125.485 26.9046 125.532Z" fill="#121212"/>
<path d="M33.3935 96.8033C33.2767 97.1017 33.1822 97.3311 33.1099 97.4916C33.0442 97.6375 32.9818 97.7761 32.9227 97.9074C32.8833 97.9949 32.8344 98.0256 32.7761 97.9993C32.7031 97.9665 32.6864 97.9063 32.7258 97.8187C32.9228 97.381 32.9276 97.0586 32.7402 96.8514C32.5593 96.6295 31.8999 96.2625 30.7619 95.7501L18.266 90.124C17.9159 89.9664 17.6321 89.8561 17.4147 89.7934C17.1827 89.724 17.0025 89.6955 16.8741 89.7079C16.6888 89.7298 16.5455 89.8144 16.444 89.9617C16.3492 90.0945 16.243 90.3888 16.1254 90.8447C16.1006 90.9388 16.059 90.9728 16.0006 90.9465C15.9277 90.9136 15.9036 90.8502 15.9285 90.7561C16.0694 90.1703 16.1497 89.68 16.1695 89.2854C16.1813 88.8695 16.1321 88.4526 16.022 88.0345C16.006 87.9922 16.0322 87.9339 16.1008 87.8595C16.1694 87.7851 16.2256 87.7577 16.2694 87.7774L25.4388 91.9059C24.8219 90.8209 24.4555 89.8225 24.3397 88.9105C24.2238 87.9986 24.3499 87.1341 24.7177 86.3171C25.2629 85.1062 26.0495 84.3724 27.0775 84.1158C28.112 83.8446 29.3879 84.0506 30.9052 84.7338L35.8948 86.9802C36.4638 87.2364 36.8661 87.3562 37.1018 87.3394C37.344 87.3081 37.5735 87.0517 37.7902 86.5703C37.8296 86.4827 37.8858 86.4554 37.9588 86.4882C38.0171 86.5145 38.0266 86.5714 37.9872 86.6589C37.9741 86.6881 37.9511 86.7392 37.9182 86.8121C37.8854 86.8851 37.8091 87.035 37.6894 87.2618C37.5252 87.6266 37.407 87.8892 37.3347 88.0497C37.2544 88.189 37.1979 88.2951 37.165 88.3681C37.1453 88.4118 37.1158 88.4775 37.0764 88.565C37.0435 88.638 36.995 88.7653 36.9307 88.9469C36.8139 89.2453 36.7194 89.4747 36.6472 89.6352C36.5815 89.7811 36.5191 89.9197 36.46 90.051C36.4206 90.1385 36.3717 90.1691 36.3133 90.1429C36.2404 90.11 36.2236 90.0498 36.263 89.9623C36.4995 89.4371 36.5127 89.057 36.3026 88.822C36.078 88.5805 35.4915 88.2463 34.5432 87.8193L30.2976 85.9078C28.9992 85.3232 27.91 85.1311 27.0302 85.3316C26.1503 85.532 25.4903 86.121 25.0502 87.0985C24.7284 87.8134 24.6264 88.5659 24.7445 89.356C24.8479 90.1395 25.1815 91.0355 25.7452 92.0438L33.7111 95.6303L34.2727 94.3829C34.3121 94.2954 34.3683 94.268 34.4412 94.3009C34.4996 94.3271 34.5091 94.3841 34.4697 94.4716C34.4565 94.5008 34.4302 94.5591 34.3908 94.6467C34.358 94.7196 34.2817 94.8695 34.162 95.0964C33.9978 95.4611 33.8796 95.7237 33.8073 95.8842C33.7205 96.0381 33.6606 96.1516 33.6278 96.2245C33.6081 96.2683 33.5785 96.3339 33.5391 96.4215C33.5063 96.4944 33.4577 96.6217 33.3935 96.8033Z" fill="#121212"/>
<path d="M45.5058 82.086C45.1787 82.5601 44.8317 82.8941 44.4647 83.088C44.1017 83.3042 43.8215 83.3441 43.6239 83.2078C43.4527 83.0897 43.3451 82.8794 43.3011 82.5769C43.2702 82.2835 43.3366 82.0183 43.5001 81.7812C43.5819 81.6627 43.6834 81.5578 43.8047 81.4665C43.926 81.3752 44.1363 81.2676 44.4356 81.1436C44.7663 81.0024 45.0013 80.873 45.1408 80.7554C45.2934 80.6469 45.4197 80.5202 45.5196 80.3753C45.8921 79.8353 46.0089 79.187 45.87 78.4303C45.7311 77.6736 45.3415 76.7731 44.7013 75.7289L44.3573 75.1708L35.2365 73.5149C33.621 73.2363 32.6064 73.1292 32.1926 73.1937C31.7747 73.2359 31.3952 73.5183 31.0541 74.0411C31.0086 74.1069 30.9596 74.1217 30.9069 74.0853C30.841 74.0399 30.8308 73.9843 30.8763 73.9184C30.8944 73.8921 30.9353 73.8328 30.9989 73.7406C31.0625 73.6484 31.1963 73.4686 31.4003 73.2011C31.7042 72.7887 31.9106 72.5035 32.0196 72.3455C32.1377 72.1743 32.2195 72.0557 32.2649 71.9899C32.2922 71.9504 32.3331 71.8911 32.3876 71.8121C32.4421 71.7331 32.5355 71.5836 32.6677 71.3638C32.8725 71.0387 33.0295 70.797 33.1385 70.639C33.2475 70.481 33.3384 70.3493 33.4111 70.2439C33.4656 70.1649 33.5258 70.1481 33.5916 70.1935C33.6443 70.2298 33.6434 70.2875 33.5889 70.3665C33.3345 70.7353 33.1902 71.0148 33.1561 71.2051C33.118 71.3732 33.1734 71.5183 33.3223 71.6405C33.4449 71.7445 33.6298 71.8429 33.8769 71.9356C34.133 72.0151 34.5885 72.1155 35.2435 72.2369L43.4486 73.6985L39.3801 67.0433C38.8352 66.1426 38.2971 65.6547 37.7657 65.5797C37.2434 65.4915 36.7324 65.8096 36.2327 66.534C36.1782 66.613 36.1246 66.6343 36.0719 66.598C36.006 66.5526 36.0004 66.4903 36.0549 66.4113C36.1366 66.2928 36.2386 66.159 36.3608 66.0101C36.4789 65.8389 36.6606 65.5755 36.9059 65.2199C37.0736 65.0051 37.1846 64.8581 37.2391 64.7791C37.3027 64.6869 37.3482 64.6211 37.3754 64.5816C37.4208 64.5157 37.4935 64.4104 37.5935 64.2655C37.7025 64.1074 37.8822 63.8329 38.1325 63.4419C38.2919 63.1826 38.3989 63.0134 38.4534 62.9344C38.5079 62.8553 38.5443 62.8027 38.5624 62.7763C38.6079 62.7105 38.6635 62.7003 38.7293 62.7457C38.782 62.782 38.7856 62.8331 38.7402 62.899C38.4272 63.3245 38.3391 63.8468 38.4757 64.4659C38.5992 65.0759 38.981 65.903 39.6213 66.9472L44.877 75.5586C45.7294 76.9435 46.1984 78.1514 46.2841 79.1825C46.3921 80.2094 46.1327 81.1772 45.5058 82.086Z" fill="#121212"/>
<path d="M61.8508 60.9249C61.418 61.305 61 61.5443 60.5968 61.6429C60.1921 61.764 59.9106 61.7344 59.7522 61.5541C59.615 61.3978 59.5619 61.1676 59.5929 60.8635C59.6346 60.5714 59.7636 60.3304 59.98 60.1403C60.0882 60.0453 60.2122 59.9683 60.3521 59.9094C60.492 59.8504 60.7222 59.7973 61.0427 59.7501C61.3978 59.6938 61.6573 59.6256 61.8212 59.5455C61.9957 59.4775 62.1491 59.3854 62.2813 59.2692C62.7742 58.8364 63.0456 58.2361 63.0954 57.4684C63.1452 56.7006 62.9869 55.7324 62.6206 54.5635L62.423 53.9385L53.9812 50.1087C52.4824 49.4446 51.5245 49.0934 51.1075 49.055C50.692 48.994 50.2551 49.1754 49.7967 49.5992C49.7366 49.652 49.6855 49.6543 49.6432 49.6062C49.5904 49.5461 49.5941 49.4897 49.6542 49.4369C49.6783 49.4158 49.7324 49.3683 49.8165 49.2944C49.9007 49.2205 50.0743 49.0787 50.3373 48.869C50.7326 48.5431 51.0023 48.3169 51.1466 48.1902C51.3029 48.0529 51.4111 47.9579 51.4712 47.9051C51.5073 47.8735 51.5614 47.826 51.6335 47.7626C51.7056 47.6993 51.8326 47.5771 52.0144 47.3962C52.2924 47.1308 52.5035 46.9347 52.6478 46.808C52.792 46.6813 52.9123 46.5758 53.0084 46.4913C53.0806 46.4279 53.143 46.4263 53.1958 46.4864C53.2381 46.5345 53.2231 46.5902 53.151 46.6536C52.8143 46.9492 52.6063 47.1851 52.5268 47.3614C52.4489 47.5151 52.4672 47.6693 52.5819 47.8241C52.6754 47.9549 52.8307 48.0954 53.0477 48.2455C53.2767 48.3851 53.694 48.5935 54.2996 48.8709L61.9008 52.289L59.5777 44.8426C59.2689 43.8363 58.8659 43.2319 58.3689 43.0296C57.8838 42.8167 57.3107 43.0006 56.6495 43.5813C56.5773 43.6447 56.5201 43.6523 56.4779 43.6042C56.4251 43.5441 56.4348 43.4824 56.5069 43.419C56.6151 43.324 56.7466 43.2191 56.9015 43.1045C57.0578 42.9672 57.2982 42.7561 57.6228 42.471C57.8377 42.3036 57.9813 42.1882 58.0534 42.1248C58.1376 42.0509 58.1977 41.9981 58.2337 41.9664C58.2939 41.9137 58.39 41.8292 58.5223 41.7131C58.6665 41.5864 58.9077 41.3639 59.2458 41.0457C59.4637 40.8331 59.6087 40.6951 59.6808 40.6318C59.7529 40.5684 59.801 40.5262 59.8251 40.5051C59.8852 40.4523 59.9416 40.456 59.9944 40.5161C60.0367 40.5642 60.0277 40.6146 59.9676 40.6674C59.5603 41.0038 59.3475 41.4888 59.329 42.1225C59.3 42.7442 59.4687 43.6395 59.8351 44.8083L62.8326 54.4412C63.3215 55.9921 63.4819 57.278 63.3136 58.2988C63.1679 59.3211 62.6803 60.1964 61.8508 60.9249Z" fill="#121212"/>
<path d="M79.9501 33.9155C80.8284 35.385 81.0673 36.9851 80.6665 38.7159C80.2795 40.4385 79.3376 41.7472 77.8406 42.642C76.3437 43.5368 74.8313 43.7977 73.3035 43.4248C71.7813 43.0299 70.5645 42.0702 69.6533 40.5458C68.7339 39.0076 68.4717 37.3842 68.8669 35.6753C69.2622 33.9665 70.2288 32.6523 71.767 31.7329C73.2639 30.8381 74.7667 30.5922 76.2752 30.9953C77.7975 31.3902 79.0224 32.3636 79.9501 33.9155ZM70.68 39.4568C71.5419 40.8988 72.6831 41.9036 74.1036 42.4712C75.5158 43.0251 76.8262 42.9408 78.0348 42.2184C79.1884 41.5288 79.8513 40.5174 80.0237 39.1841C80.196 37.8508 79.8389 36.4425 78.9523 34.9593C78.0575 33.4624 76.9108 32.4329 75.5123 31.8708C74.1275 31.3005 72.8377 31.3724 71.6429 32.0866C70.4481 32.8009 69.7618 33.8356 69.5839 35.1908C69.4116 36.5241 69.7769 37.9461 70.68 39.4568Z" fill="#121212"/>
<path d="M96.0038 33.3039C94.7239 33.7637 93.6223 33.726 92.6989 33.1906C91.7906 32.6499 91.0633 31.6191 90.5169 30.0983L88.8778 25.5357C88.6236 24.828 88.3914 24.4184 88.1813 24.3069C87.9713 24.1953 87.5647 24.3414 86.9617 24.745C86.8767 24.7925 86.8234 24.7862 86.8018 24.726C86.7597 24.6561 86.7811 24.5974 86.866 24.5499C87.2853 24.2972 87.6561 24.028 87.9785 23.7422C88.3105 23.4359 88.6338 23.0817 88.9484 22.6797C88.9677 22.6388 89.0204 22.6198 89.1065 22.6229C89.2077 22.6206 89.2664 22.642 89.2826 22.6872L91.8061 29.7116C92.2551 30.9614 92.8723 31.8277 93.6579 32.3106C94.453 32.773 95.34 32.8284 96.3187 32.4768C97.0867 32.2009 97.7165 31.7536 98.2083 31.1349C98.7001 30.5162 99.0785 29.7002 99.3435 28.6869L97.1446 22.5659C96.8903 21.8582 96.6582 21.4486 96.4481 21.337C96.238 21.2255 95.8314 21.3716 95.2284 21.7752C95.1435 21.8227 95.0826 21.8191 95.0459 21.7643C95.0189 21.689 95.0478 21.6276 95.1328 21.58C95.5521 21.3274 95.9153 21.0609 96.2226 20.7805C96.545 20.4947 96.8683 20.1405 97.1925 19.718C97.2118 19.6771 97.2645 19.6581 97.3506 19.6612C97.4518 19.6589 97.5105 19.6803 97.5267 19.7255L100.829 28.9182C101.148 29.8067 101.403 30.3271 101.594 30.4796C101.8 30.6266 102.174 30.6028 102.716 30.4081C102.776 30.3864 102.82 30.4132 102.847 30.4885C102.869 30.5488 102.849 30.5897 102.789 30.6113C102.307 30.7844 101.891 30.951 101.54 31.1109C101.205 31.2654 100.828 31.469 100.408 31.7217C100.353 31.7584 100.306 31.7671 100.265 31.7478C100.224 31.7285 100.192 31.6887 100.171 31.6285C100.144 31.3659 100.071 31.0184 99.9492 30.586C99.843 30.1481 99.6897 29.6506 99.4896 29.0935L99.449 28.9806C99.1508 30.0908 98.7016 31.0172 98.1013 31.7599C97.5161 32.4971 96.817 33.0118 96.0038 33.3039Z" fill="#121212"/>
<path d="M119.958 26.3044C119.641 26.3464 119.394 26.3746 119.219 26.389C119.059 26.4021 118.908 26.4145 118.764 26.4262C118.669 26.434 118.618 26.4061 118.613 26.3423C118.606 26.2626 118.651 26.2188 118.747 26.2109C119.225 26.1718 119.51 26.02 119.6 25.7557C119.707 25.4901 119.709 24.7354 119.608 23.4916L119.139 17.7747C119.106 17.3601 118.975 16.9454 118.749 16.5305C118.522 16.1156 118.254 15.7844 117.945 15.5368C117.91 15.5075 117.892 15.4849 117.891 15.4689C117.888 15.437 117.902 15.4118 117.933 15.3932C118.255 15.2064 118.507 15.0493 118.689 14.922C118.87 14.7787 119.012 14.6467 119.114 14.526C119.144 14.4914 119.167 14.4815 119.184 14.4962C119.2 14.4949 119.225 14.5088 119.26 14.5381C119.553 14.787 119.807 15.1435 120.022 15.6075C120.236 16.0715 120.363 16.5428 120.402 17.0212C121.068 15.9392 121.772 15.127 122.514 14.5847C123.255 14.0263 124.072 13.7106 124.965 13.6375C126.289 13.5291 127.311 13.8627 128.033 14.6384C128.771 15.4128 129.208 16.6292 129.343 18.2877L129.743 23.1673C129.772 23.5182 129.804 23.8125 129.839 24.0504C129.874 24.2724 129.913 24.4618 129.958 24.6186C130.043 24.8685 130.145 25.0368 130.264 25.1233C130.4 25.2086 130.667 25.2348 131.065 25.2022C131.161 25.1944 131.212 25.2303 131.219 25.31C131.224 25.3738 131.179 25.4096 131.083 25.4175C131.051 25.4201 130.995 25.4247 130.916 25.4312C130.836 25.4377 130.668 25.4435 130.411 25.4484C130.013 25.481 129.726 25.5046 129.55 25.5189C129.389 25.516 129.269 25.5178 129.189 25.5244C129.142 25.5283 129.078 25.5335 128.998 25.54C128.918 25.5466 128.775 25.5663 128.569 25.5992C128.268 25.64 128.029 25.6675 127.854 25.6819C127.694 25.695 127.543 25.7074 127.399 25.7191C127.304 25.727 127.253 25.699 127.248 25.6352C127.241 25.5555 127.286 25.5117 127.382 25.5038C127.924 25.4594 128.247 25.2885 128.351 24.991C128.471 24.6922 128.493 24.0724 128.416 23.1316L128.022 18.3236C127.906 16.9044 127.547 15.8582 126.946 15.185C126.345 14.5118 125.511 14.2189 124.442 14.3064C123.645 14.3717 122.929 14.647 122.294 15.1324C121.66 15.6178 121.038 16.3511 120.428 17.3321L121.139 26.0151L122.382 25.9132C122.478 25.9054 122.529 25.9413 122.536 26.0211C122.541 26.0848 122.496 26.1207 122.4 26.1285C122.368 26.1311 122.312 26.1357 122.233 26.1422C122.153 26.1487 121.993 26.1538 121.752 26.1575C121.37 26.1888 121.098 26.211 120.939 26.224C120.778 26.2212 120.658 26.223 120.578 26.2295C120.53 26.2334 120.459 26.2393 120.363 26.2471C120.283 26.2537 120.148 26.2727 119.958 26.3044Z" fill="#121212"/>
<path d="M149.681 25.201C149.087 25.5106 148.478 25.7304 147.854 25.8601C147.247 25.9755 146.625 26.001 145.988 25.9365C144.158 25.7511 142.738 25.0766 141.731 23.9131C140.74 22.7353 140.332 21.2868 140.506 19.5676C140.689 17.7688 141.499 16.2749 142.938 15.0859C144.393 13.8985 145.989 13.3927 147.724 13.5684C149.045 13.7023 150.049 14.1095 150.736 14.7902C151.423 15.4709 151.7 16.2227 151.569 17.0457C151.522 17.3465 151.387 17.566 151.164 17.7043C150.959 17.8282 150.657 17.87 150.259 17.8297L142.188 17.0121C142.061 17.3208 141.955 17.6478 141.872 17.9932C141.805 18.3402 141.752 18.7047 141.713 19.0868C141.558 20.6149 141.962 21.9504 142.923 23.0931C143.903 24.2216 145.228 24.8705 146.899 25.0398C148.316 25.1833 149.584 24.8936 150.702 24.1706C151.837 23.4493 152.848 22.2732 153.737 20.6425C153.814 20.5216 153.874 20.4795 153.919 20.5162C153.965 20.5369 153.959 20.6006 153.9 20.7072C153.362 21.7302 152.732 22.6313 152.01 23.4105C151.289 24.1738 150.513 24.7706 149.681 25.201ZM150.029 16.5279C150.09 15.9229 149.857 15.3686 149.329 14.8648C148.803 14.3452 148.078 14.0385 147.155 13.945C146.041 13.8321 145.056 14.0299 144.2 14.5382C143.346 15.0307 142.698 15.7932 142.256 16.8259C143.465 16.9485 144.844 17.072 146.391 17.1966C147.954 17.3228 148.752 17.3875 148.784 17.3907C148.976 17.3942 149.171 17.3817 149.367 17.3533C149.58 17.3106 149.713 17.2678 149.766 17.2248C149.837 17.1517 149.895 17.061 149.938 16.9528C149.983 16.8287 150.013 16.687 150.029 16.5279Z" fill="#121212"/>
<path d="M168.705 29.1312C168.066 29.332 167.427 29.4416 166.79 29.46C166.172 29.4674 165.556 29.3836 164.94 29.2086C163.17 28.7054 161.891 27.7929 161.103 26.4708C160.334 25.1378 160.186 23.6402 160.658 21.9781C161.153 20.239 162.212 18.9101 163.838 17.9915C165.478 17.0773 167.137 16.8587 168.815 17.3356C170.092 17.6987 171.009 18.2756 171.566 19.066C172.123 19.8565 172.265 20.6453 171.991 21.4325C171.893 21.7205 171.722 21.913 171.478 22.0101C171.254 22.0961 170.949 22.0844 170.565 21.975L162.762 19.7567C162.582 20.0382 162.421 20.3417 162.279 20.6672C162.151 20.997 162.035 21.3466 161.93 21.716C161.51 23.1934 161.674 24.5789 162.42 25.8724C163.187 27.1549 164.378 28.0259 165.994 28.4853C167.364 28.8747 168.663 28.8114 169.891 28.2956C171.134 27.784 172.336 26.8034 173.497 25.3535C173.593 25.2479 173.66 25.217 173.698 25.2609C173.739 25.2895 173.722 25.351 173.645 25.4456C172.936 26.3586 172.158 27.1355 171.311 27.7761C170.468 28.4014 169.599 28.8531 168.705 29.1312ZM170.566 20.653C170.733 20.0682 170.6 19.4816 170.168 18.8931C169.741 18.2893 169.081 17.8605 168.189 17.6067C167.111 17.3005 166.107 17.3226 165.176 17.6733C164.249 18.0086 163.477 18.6458 162.861 19.5851C164.03 19.9176 165.366 20.2807 166.867 20.6743C168.384 21.0724 169.158 21.2757 169.189 21.2845C169.378 21.3216 169.572 21.3433 169.769 21.3497C169.987 21.345 170.125 21.3261 170.185 21.2931C170.268 21.2336 170.341 21.1544 170.402 21.0554C170.468 20.9411 170.523 20.8069 170.566 20.653Z" fill="#121212"/>
<path d="M182.308 35.3666C181.035 34.7281 180.196 33.7074 179.79 32.3044C179.384 30.9014 179.543 29.4777 180.268 28.0332C181.114 26.3457 182.443 25.2132 184.254 24.636C186.087 24.0516 187.825 24.172 189.47 24.997C190.014 25.2696 190.489 25.6423 190.896 26.1151C191.311 26.5736 191.625 27.0892 191.839 27.6619L194.271 22.8137C194.45 22.4561 194.579 22.1629 194.658 21.934C194.744 21.6909 194.791 21.4906 194.798 21.3332C194.813 21.1257 194.752 20.961 194.617 20.8392C194.481 20.7174 194.17 20.5882 193.683 20.4516C193.59 20.4229 193.558 20.3799 193.587 20.3227C193.623 20.2512 193.687 20.2298 193.78 20.2585C194.374 20.431 194.871 20.5283 195.272 20.5503C195.687 20.5794 196.102 20.537 196.517 20.4231C196.574 20.416 196.635 20.4554 196.699 20.5414C196.785 20.6202 196.817 20.6811 196.796 20.724L189.403 35.4617C188.807 36.6487 188.517 37.371 188.531 37.6287C188.566 37.8791 188.841 38.1335 189.356 38.3918C189.442 38.4348 189.467 38.4921 189.431 38.5636C189.402 38.6208 189.345 38.6279 189.259 38.5849C188.802 38.3553 188.433 38.1795 188.154 38.0575C187.868 37.9498 187.464 37.8276 186.942 37.691C186.849 37.6622 186.788 37.6228 186.76 37.5727C186.731 37.5226 186.738 37.4546 186.781 37.3688C186.789 37.3545 186.799 37.333 186.814 37.3044C186.828 37.2758 186.86 37.2294 186.91 37.165C187.161 36.7718 187.377 36.4143 187.556 36.0926C187.749 35.778 187.925 35.4634 188.083 35.1487L188.137 35.0415C187.113 35.5839 186.104 35.8832 185.109 35.9391C184.129 36.0022 183.195 35.8114 182.308 35.3666ZM188.44 25.0708C187.152 24.4251 185.904 24.3448 184.694 24.8298C183.498 25.3219 182.52 26.326 181.76 27.842C181.028 29.3007 180.805 30.7279 181.089 32.1236C181.381 33.505 182.148 34.5078 183.393 35.1319C184.136 35.5049 184.93 35.6527 185.775 35.575C186.634 35.5046 187.471 35.2266 188.287 34.7411L191.171 28.9919C190.929 28.0113 190.583 27.2023 190.133 26.5649C189.691 25.9132 189.126 25.4151 188.44 25.0708Z" fill="#121212"/>
<path d="M206.041 45.5836C205.422 46.4188 204.585 46.8742 203.533 46.95C202.503 47.0224 201.493 46.6916 200.504 45.9574C200.183 45.719 199.882 45.4662 199.602 45.1988C199.326 44.9538 199.064 44.6895 198.816 44.406C198.568 44.1224 198.299 43.7734 198.009 43.3589C197.719 42.9444 197.538 42.6909 197.468 42.5984C197.426 42.5474 197.401 42.4996 197.395 42.4548C197.411 42.4067 197.447 42.3441 197.504 42.267C197.523 42.2413 197.547 42.2092 197.576 42.1707C197.604 42.1321 197.657 42.0615 197.733 41.9587C198.061 41.5442 198.396 41.1057 198.739 40.6431C199.105 40.1773 199.512 39.6424 199.96 39.0385C200.008 38.9742 200.057 38.9612 200.108 38.9993C200.16 39.0375 200.162 39.0887 200.114 39.1529C199.618 39.821 199.244 40.4598 198.991 41.0691C198.748 41.6655 198.64 42.2133 198.668 42.7123C198.664 43.2275 198.833 43.7515 199.175 44.2842C199.53 44.8264 200.022 45.3311 200.652 45.7983C201.5 46.4275 202.282 46.7292 202.999 46.7031C203.738 46.6737 204.351 46.3314 204.837 45.6761C205.104 45.3164 205.243 44.9413 205.254 44.5508C205.287 44.157 205.193 43.7191 204.973 43.237C204.857 42.9912 204.704 42.728 204.513 42.4473C204.345 42.1634 204.025 41.6962 203.551 41.0458C202.507 39.6335 201.916 38.5773 201.778 37.8772C201.64 37.1771 201.795 36.5251 202.243 35.9212C202.853 35.0989 203.674 34.6915 204.704 34.6991C205.744 34.6938 206.765 35.063 207.768 35.8067C208.204 36.1309 208.595 36.4505 208.939 36.7655C209.292 37.0677 209.852 37.6425 210.618 38.4898C210.66 38.5408 210.678 38.5839 210.671 38.6191C210.688 38.651 210.677 38.6927 210.639 38.7441C210.562 38.8469 210.441 38.9963 210.276 39.1923C210.123 39.3979 209.855 39.7465 209.47 40.2381C209.066 40.7553 208.772 41.1248 208.588 41.3466C208.426 41.565 208.302 41.732 208.216 41.8477C208.159 41.9248 208.104 41.9442 208.053 41.9061C208.002 41.868 208.004 41.8103 208.062 41.7333C208.491 41.1551 208.813 40.627 209.028 40.1491C209.266 39.6679 209.39 39.2321 209.401 38.8416C209.43 38.3454 209.288 37.8518 208.975 37.3605C208.672 36.8565 208.218 36.3804 207.615 35.9323C206.792 35.322 205.995 34.9997 205.224 34.9652C204.462 34.9179 203.871 35.1769 203.452 35.7423C203.09 36.2305 202.977 36.7847 203.115 37.4048C203.252 38.0249 203.809 39.0061 204.786 40.3483C205.305 41.0721 205.663 41.5967 205.859 41.9221C206.069 42.257 206.227 42.5538 206.334 42.8125C206.552 43.3522 206.636 43.8429 206.587 44.2848C206.538 44.7267 206.356 45.1596 206.041 45.5836Z" fill="#121212"/>
<path d="M220.639 63.9936L220.523 63.8402C220.485 63.7891 220.462 63.7459 220.456 63.7107C220.446 63.698 220.449 63.6755 220.465 63.6435L227.568 52.1685C228.519 50.6117 229.066 49.5691 229.209 49.0408C229.362 48.5254 229.246 48.012 228.861 47.5007L228.832 47.4623C228.745 47.3473 228.732 47.2769 228.793 47.2512C228.867 47.2158 228.932 47.2365 228.99 47.3132C229.076 47.4283 229.171 47.5673 229.274 47.7303C229.399 47.8965 229.58 48.1506 229.818 48.4926C229.968 48.7195 230.073 48.8713 230.13 48.948C230.198 49.0375 230.246 49.1014 230.275 49.1398C230.304 49.1781 230.357 49.2484 230.433 49.3507C230.52 49.4657 230.68 49.6654 230.915 49.9498C231.274 50.4004 231.53 50.7279 231.684 50.9325C231.851 51.1274 231.978 51.2823 232.064 51.3974C232.122 51.4741 232.119 51.5365 232.055 51.5846C232.014 51.6359 231.964 51.6232 231.906 51.5465L231.531 51.0479C231.31 50.7539 231.101 50.5703 230.906 50.497C230.733 50.4269 230.546 50.4577 230.344 50.5892C230.14 50.7432 229.773 51.1998 229.243 51.9592C228.735 52.7217 228.049 53.8189 227.185 55.2508L222.351 63.1554C222.335 63.1874 222.319 63.2194 222.303 63.2515C222.309 63.2867 222.317 63.3106 222.327 63.3234C222.337 63.3362 222.353 63.3442 222.375 63.3473C222.42 63.3537 222.46 63.3536 222.495 63.3471L229.481 61.6932L231.883 57.5417C232.205 56.9588 232.453 56.5023 232.625 56.1724C232.819 55.8457 232.972 55.5702 233.084 55.346C233.342 54.8111 233.474 54.4013 233.48 54.1165C233.509 53.8348 233.364 53.4831 233.046 53.0613L232.931 52.9079C232.854 52.8056 232.841 52.7352 232.892 52.6967C232.966 52.6614 233.031 52.6821 233.089 52.7588C233.176 52.8738 233.275 53.0193 233.387 53.1951C233.522 53.374 233.718 53.6473 233.975 54.0148C234.135 54.2545 234.249 54.4191 234.316 54.5086C234.384 54.5981 234.432 54.662 234.461 54.7004C234.489 54.7387 234.533 54.7962 234.59 54.8729C234.658 54.9624 234.775 55.1046 234.942 55.2995C235.195 55.6095 235.379 55.8411 235.495 55.9945C235.633 56.1511 235.745 56.2869 235.832 56.4019C235.889 56.4786 235.886 56.541 235.822 56.5892C235.771 56.6276 235.717 56.6085 235.659 56.5318L235.544 56.3784C235.341 56.11 235.164 55.9535 235.01 55.909C234.856 55.8645 234.696 55.9047 234.53 56.0298C234.313 56.1934 234.054 56.4883 233.754 56.9144C233.464 57.3533 233.063 58.0052 232.553 58.8701L230.988 61.5801L234.001 60.754C234.618 60.5897 235.163 60.4095 235.637 60.2135C236.12 60.0302 236.489 59.8424 236.745 59.6499C237.013 59.4479 237.165 59.2236 237.199 58.9771C237.244 58.7434 237.179 58.5116 237.006 58.2815C236.968 58.2303 236.923 58.184 236.871 58.1425C236.833 58.0914 236.769 58.0195 236.679 57.9268C236.637 57.8981 236.607 57.871 236.588 57.8454C236.578 57.8326 236.568 57.8198 236.559 57.8071C236.53 57.7687 236.512 57.7319 236.506 57.6967C236.509 57.6743 236.53 57.6487 236.568 57.6198C236.606 57.591 236.642 57.5845 236.674 57.6005C236.728 57.6196 236.784 57.6675 236.842 57.7442C236.89 57.8081 236.962 57.9039 237.058 58.0318C237.155 58.1596 237.312 58.3817 237.53 58.6981C237.729 58.989 237.872 59.1919 237.958 59.307C238.045 59.422 238.107 59.5051 238.146 59.5563C238.175 59.5946 238.223 59.6585 238.29 59.748C238.358 59.8375 238.494 60.0052 238.699 60.2513C239.01 60.6379 239.228 60.9143 239.353 61.0805C239.488 61.2595 239.589 61.3937 239.657 61.4832C239.714 61.5599 239.706 61.6159 239.633 61.6512C239.582 61.6897 239.532 61.677 239.484 61.6131L239.109 61.1146C238.743 60.6288 238.229 60.3849 237.567 60.3829C236.917 60.3712 235.754 60.5957 234.078 61.0562L230.787 61.9117L226.609 69.1719C226.581 69.2135 226.565 69.2455 226.561 69.268C226.558 69.2904 226.562 69.308 226.571 69.3207C226.581 69.3335 226.597 69.3415 226.619 69.3446C226.664 69.351 226.704 69.3509 226.739 69.3444L237.164 66.3932C238.07 66.1324 238.783 65.8959 239.304 65.6838C239.838 65.4621 240.246 65.2453 240.527 65.0337C240.859 64.7835 241.046 64.5127 241.087 64.2215C241.128 63.9302 241.019 63.612 240.759 63.2668C240.72 63.2157 240.671 63.163 240.61 63.1087C240.571 63.0576 240.496 62.9841 240.384 62.8883C240.323 62.834 240.283 62.7941 240.264 62.7685C240.254 62.7557 240.244 62.7429 240.235 62.7302C240.206 62.6918 240.188 62.655 240.182 62.6199C240.188 62.575 240.21 62.5382 240.249 62.5093C240.287 62.4805 240.327 62.4804 240.369 62.5091C240.423 62.5282 240.479 62.5761 240.537 62.6528C240.585 62.7167 240.662 62.819 240.768 62.9596C240.883 63.113 241.074 63.3799 241.341 63.7602C241.607 64.1405 241.793 64.401 241.899 64.5416C242.005 64.6822 242.077 64.7781 242.115 64.8292C242.144 64.8676 242.187 64.9251 242.245 65.0018C242.303 65.0785 242.41 65.2079 242.567 65.39C242.811 65.6872 242.986 65.9061 243.092 66.0467C243.207 66.2001 243.304 66.3279 243.381 66.4302C243.438 66.5069 243.43 66.5629 243.357 66.5982C243.306 66.6367 243.256 66.624 243.208 66.5601L243.165 66.5026C242.799 66.0168 242.208 65.7907 241.392 65.8241C240.589 65.8479 239.206 66.1384 237.242 66.6955L225.281 70.0814C225.246 70.0879 225.219 70.0783 225.2 70.0528C225.177 70.0496 225.152 70.0288 225.123 69.9905L224.978 69.7987C224.95 69.7604 224.932 69.7236 224.925 69.6884C224.916 69.6757 224.919 69.6533 224.935 69.6212L229.275 62.0583L220.783 64.0654C220.747 64.0718 220.725 64.0687 220.715 64.0559C220.693 64.0527 220.667 64.032 220.639 63.9936Z" fill="#121212"/>
<path d="M241.086 90.1186C240.17 90.0989 239.083 89.7872 237.825 89.1835C236.581 88.5733 235.787 87.8722 235.442 87.0802C235.071 86.2294 235.002 85.4304 235.235 84.6832C235.483 83.9296 235.966 83.3961 236.685 83.0829C237.521 82.7186 238.462 82.797 239.51 83.3179C240.572 83.8325 241.827 84.8302 243.275 86.311L245.355 88.4414C246.568 87.8605 247.349 87.2496 247.698 86.6088C248.054 85.9827 248.03 85.2076 247.627 84.2835C247.493 83.9755 247.332 83.7055 247.143 83.4734C246.955 83.2413 246.727 83.0179 246.459 82.8031C246.216 82.647 245.94 82.5142 245.631 82.4048C245.342 82.3036 244.816 82.2185 244.053 82.1496C243.776 82.1135 243.572 82.0454 243.441 81.9453C243.31 81.8453 243.193 81.6779 243.091 81.4432C242.995 81.2232 242.958 81.0385 242.981 80.8892C243.017 80.7335 243.102 80.6269 243.234 80.5694C243.366 80.5119 243.538 80.5066 243.751 80.5537C243.963 80.6007 244.205 80.6959 244.477 80.8392C245.166 81.2195 245.838 81.7386 246.491 82.3964C247.144 83.0542 247.614 83.7132 247.902 84.3732C248.42 85.5613 248.489 86.6219 248.11 87.5549C247.746 88.4815 246.956 89.2101 245.738 89.7406C245.415 89.8812 245.038 90.0369 244.606 90.2076C244.175 90.3783 243.505 90.6439 242.597 91.0044C241.845 91.28 241.311 91.4776 240.997 91.5971C240.689 91.7314 240.432 91.8432 240.227 91.9327C239.67 92.1756 239.281 92.4059 239.062 92.6236C238.864 92.8496 238.813 93.0726 238.908 93.2927C238.998 93.498 239.243 93.6793 239.643 93.8366C240.064 94.0021 240.462 94.0732 240.835 94.0499C240.957 94.0492 241.008 94.1056 240.988 94.2192C240.974 94.3474 240.903 94.4046 240.774 94.3906C240.236 94.2763 239.663 94.0633 239.056 93.7519C238.464 93.434 238.097 93.1137 237.957 92.791C237.784 92.395 237.785 92.0368 237.96 91.7164C238.141 91.4107 238.488 91.1459 239.001 90.9222C239.28 90.8008 239.628 90.6579 240.045 90.4936C240.462 90.3293 240.809 90.2043 241.086 90.1186ZM237.74 84.0629C237.08 84.3506 236.632 84.8249 236.397 85.4861C236.168 86.1619 236.21 86.8591 236.523 87.5778C236.67 87.9152 236.929 88.2298 237.301 88.5217C237.672 88.8136 238.138 89.0818 238.698 89.3263C239.21 89.5396 239.746 89.7076 240.306 89.8302C240.865 89.9529 241.268 89.9956 241.513 89.9584C241.893 89.828 242.419 89.6336 243.092 89.3753C243.779 89.1106 244.38 88.8664 244.893 88.6427L245.201 88.5085L243.045 86.3849C241.765 85.1279 240.742 84.3431 239.977 84.0305C239.234 83.7261 238.488 83.737 237.74 84.0629Z" fill="#121212"/>
<path d="M241.796 102.461C241.679 102.112 241.593 101.845 241.54 101.66C241.492 101.491 241.448 101.337 241.408 101.199C241.381 101.107 241.399 101.052 241.46 101.034C241.537 101.012 241.589 101.047 241.615 101.139C241.783 101.724 242.016 102.04 242.313 102.088C242.614 102.151 243.349 102.014 244.517 101.678L250.03 100.093C250.43 99.9785 250.811 99.7691 251.173 99.4652C251.535 99.1613 251.807 98.8334 251.989 98.4815C252.011 98.4419 252.029 98.4199 252.045 98.4154C252.076 98.4066 252.103 98.4153 252.127 98.4417C252.325 98.6677 252.513 98.8553 252.689 99.0045C252.869 99.169 253.039 99.2951 253.197 99.3827C253.237 99.4047 253.251 99.4255 253.24 99.4453C253.244 99.4607 253.236 99.4882 253.214 99.5278C253.045 99.8094 252.775 100.087 252.404 100.36C252.053 100.644 251.669 100.871 251.251 101.041C251.658 101.007 252.044 101.046 252.409 101.158C252.774 101.269 253.148 101.47 253.531 101.759C253.797 101.932 254.018 102.152 254.194 102.417C254.386 102.679 254.528 102.971 254.621 103.294C254.709 103.601 254.745 103.841 254.728 104.012C254.726 104.179 254.671 104.278 254.563 104.309C254.333 104.375 254.089 104.337 253.831 104.195C253.594 104.063 253.437 103.867 253.362 103.605C253.336 103.513 253.309 103.421 253.283 103.329C253.26 103.252 253.235 103.134 253.206 102.976C253.18 102.884 253.162 102.822 253.153 102.792C253.144 102.761 253.135 102.73 253.127 102.699C253.012 102.299 252.883 101.995 252.739 101.787C252.616 101.589 252.45 101.445 252.241 101.356C252.012 101.255 251.708 101.209 251.327 101.219C250.967 101.239 250.533 101.322 250.026 101.468L242.345 103.676L242.743 105.06C242.769 105.153 242.744 105.21 242.667 105.232C242.606 105.25 242.562 105.212 242.535 105.12C242.526 105.089 242.509 105.028 242.482 104.936C242.46 104.859 242.417 104.68 242.353 104.398C242.233 103.983 242.147 103.683 242.094 103.499C242.061 103.325 242.033 103.2 242.011 103.123C241.998 103.077 241.978 103.008 241.951 102.916C241.925 102.823 241.873 102.672 241.796 102.461Z" fill="#121212"/>
<path d="M246.625 120.465C246.178 119.966 245.815 119.43 245.535 118.857C245.273 118.297 245.095 117.701 245.001 117.068C244.728 115.248 245.032 113.706 245.911 112.443C246.808 111.192 248.111 110.439 249.82 110.184C251.608 109.916 253.255 110.333 254.763 111.434C256.273 112.551 257.156 113.972 257.414 115.697C257.611 117.011 257.464 118.084 256.974 118.918C256.484 119.751 255.824 120.206 254.994 120.282C254.691 120.311 254.445 120.234 254.256 120.052C254.085 119.884 253.97 119.602 253.911 119.206L252.711 111.183C252.38 111.135 252.037 111.114 251.682 111.119C251.329 111.139 250.963 111.178 250.583 111.234C249.064 111.461 247.87 112.182 247 113.396C246.148 114.624 245.846 116.068 246.094 117.73C246.305 119.138 246.899 120.295 247.875 121.2C248.854 122.122 250.244 122.812 252.043 123.271C252.179 123.315 252.235 123.363 252.211 123.416C252.202 123.465 252.139 123.475 252.021 123.444C250.897 123.175 249.868 122.787 248.935 122.28C248.017 121.77 247.247 121.165 246.625 120.465ZM255.115 118.662C255.717 118.572 256.196 118.209 256.554 117.573C256.928 116.935 257.046 116.157 256.909 115.239C256.743 114.131 256.309 113.226 255.605 112.522C254.917 111.816 254.018 111.376 252.908 111.202C253.088 112.405 253.308 113.771 253.57 115.301C253.833 116.847 253.967 117.636 253.972 117.668C254.016 117.855 254.076 118.041 254.152 118.223C254.246 118.42 254.32 118.538 254.375 118.578C254.464 118.63 254.566 118.663 254.681 118.678C254.812 118.691 254.957 118.685 255.115 118.662Z" fill="#121212"/>
<path d="M246.672 130.683C246.646 130.348 246.631 130.092 246.626 129.916C246.621 129.74 246.616 129.58 246.612 129.436C246.609 129.34 246.639 129.291 246.703 129.29C246.783 129.287 246.825 129.334 246.827 129.43C246.842 129.91 246.978 130.202 247.238 130.306C247.497 130.427 248.251 130.468 249.498 130.432L263.244 130.026C264.012 130.003 264.497 129.909 264.701 129.743C264.92 129.576 264.955 129.143 264.806 128.443C264.787 128.348 264.81 128.299 264.874 128.297C264.954 128.295 265.003 128.341 265.022 128.437C265.152 129.025 265.302 129.509 265.473 129.888C265.645 130.283 265.855 130.621 266.103 130.902C266.152 130.933 266.162 130.996 266.133 131.093C266.12 131.206 266.082 131.263 266.018 131.265L249.537 131.751C248.226 131.79 247.46 131.884 247.241 132.035C247.021 132.186 246.92 132.557 246.937 133.148C246.94 133.244 246.902 133.294 246.822 133.296C246.758 133.298 246.724 133.251 246.721 133.155C246.717 133.011 246.712 132.851 246.707 132.675C246.702 132.515 246.703 132.275 246.71 131.955C246.72 131.762 246.724 131.618 246.721 131.522C246.719 131.442 246.717 131.378 246.716 131.33C246.714 131.282 246.712 131.21 246.709 131.114C246.707 131.034 246.695 130.891 246.672 130.683Z" fill="#121212"/>
<path d="M242.33 137.36C242.384 136.787 242.523 136.326 242.749 135.977C242.959 135.611 243.184 135.439 243.423 135.461C243.63 135.481 243.827 135.611 244.013 135.854C244.184 136.095 244.256 136.358 244.229 136.645C244.216 136.789 244.178 136.93 244.117 137.069C244.056 137.208 243.925 137.404 243.725 137.659C243.505 137.944 243.364 138.171 243.3 138.342C243.219 138.512 243.171 138.684 243.155 138.859C243.094 139.512 243.309 140.135 243.801 140.727C244.292 141.319 245.072 141.914 246.141 142.512L246.714 142.83L255.48 139.814C257.025 139.267 257.962 138.864 258.292 138.606C258.636 138.365 258.828 137.933 258.87 137.31C258.878 137.23 258.913 137.193 258.977 137.199C259.057 137.207 259.093 137.25 259.085 137.33C259.082 137.362 259.076 137.433 259.065 137.545C259.055 137.656 259.026 137.879 258.979 138.212C258.916 138.72 258.875 139.07 258.857 139.261C258.838 139.468 258.825 139.612 258.817 139.691C258.813 139.739 258.806 139.811 258.797 139.906C258.788 140.002 258.78 140.178 258.772 140.434C258.753 140.818 258.734 141.106 258.716 141.297C258.698 141.488 258.683 141.647 258.671 141.775C258.663 141.87 258.618 141.914 258.539 141.907C258.475 141.901 258.447 141.85 258.456 141.755C258.498 141.309 258.487 140.994 258.424 140.812C258.375 140.646 258.256 140.547 258.066 140.513C257.908 140.482 257.699 140.487 257.438 140.527C257.176 140.583 256.729 140.718 256.098 140.932L248.227 143.67L255.03 147.486C255.946 148.005 256.654 148.167 257.154 147.973C257.653 147.794 257.943 147.267 258.025 146.391C258.033 146.295 258.07 146.25 258.134 146.256C258.213 146.264 258.249 146.315 258.24 146.411C258.226 146.554 258.203 146.721 258.169 146.91C258.15 147.117 258.12 147.436 258.08 147.866C258.039 148.135 258.014 148.318 258.005 148.413C257.995 148.525 257.987 148.605 257.983 148.652C257.975 148.732 257.963 148.86 257.947 149.035C257.929 149.226 257.907 149.553 257.88 150.017C257.867 150.321 257.857 150.521 257.848 150.616C257.839 150.712 257.833 150.776 257.83 150.808C257.823 150.887 257.779 150.923 257.699 150.916C257.636 150.91 257.608 150.867 257.615 150.788C257.68 150.263 257.501 149.765 257.079 149.291C256.673 148.82 255.936 148.285 254.867 147.687L246.071 142.746C244.65 141.955 243.65 141.131 243.071 140.273C242.475 139.43 242.228 138.459 242.33 137.36Z" fill="#121212"/>
</svg>
